<?xml version="1.0" encoding="utf-8"?>
<!-- Generator: Adobe Illustrator 24.0.3, SVG Export Plug-In . SVG Version: 6.00 Build 0)  -->
<svg version="1.1" id="Layer_4" xmlns="http://www.w3.org/2000/svg" xmlns:xlink="http://www.w3.org/1999/xlink" x="0px" y="0px"
	 viewBox="0 0 264.7 80.8" style="enable-background:new 0 0 264.7 80.8;" xml:space="preserve">
<style type="text/css">
	.st0{fill:url(#SVGID_1_);}
	.st1{fill:url(#SVGID_2_);}
	.st2{fill:url(#SVGID_3_);}
	.st3{fill:url(#SVGID_4_);}
	.st4{fill:url(#SVGID_5_);}
	.st5{fill:url(#SVGID_6_);}
	.st6{fill:url(#SVGID_7_);}
	.st7{fill:url(#SVGID_8_);}
	.st8{fill:url(#SVGID_9_);}
</style>
<linearGradient id="SVGID_1_" gradientUnits="userSpaceOnUse" x1="90.5156" y1="39.6656" x2="90.5156" y2="9.6871">
	<stop  offset="0" style="stop-color:#AD69FF"/>
	<stop  offset="0.2801" style="stop-color:#AF66FC"/>
	<stop  offset="0.4988" style="stop-color:#B65CF4"/>
	<stop  offset="0.6967" style="stop-color:#C24CE6"/>
	<stop  offset="0.8812" style="stop-color:#D334D2"/>
	<stop  offset="1" style="stop-color:#E121C1"/>
</linearGradient>
<path class="st0" d="M100.7,21.7v0.2l-3.6,3.6v6.8l3.6-3.6V29l-7,7h0.8l6.2-6.2v0.4L94.9,36h0.8l5-5v0.4L96.1,36h0.8l3.8-3.8v0.4
	L97.3,36h0.8l2.6-2.6v0.4L98.5,36h0.8l1.4-1.4V35l-1,1h1l-3.6,3.6H80.3V13.3l3.6-3.6v1l1-1h0.4l-1.4,1.4v0.8l2.2-2.2h0.4l-2.6,2.6
	v0.8l3.4-3.4h0.4l-3.8,3.7v0.8l4.6-4.6h0.4l-5,5v0.8l5.8-5.8h0.4l-6.2,6.2v0.8l7-7h0.4l-3.6,3.6h7v8.2l3.6-3.6v0.4l-7,7h0.8l6.2-6.2
	v0.4l-5.8,5.8h0.8l5-5v0.4l-4.6,4.6h0.8l3.8-3.8v0.2c0,0,0,0,0.2,0l-3.6,3.6h0.8l3.6-3.6c0.1,0,0.3,0,0.4,0l-3.6,3.6h0.8l3.6-3.6
	C100.7,21.7,100.7,21.7,100.7,21.7z M83.9,17.9l3.6-3.6v-0.8l-3.6,3.6V17.9z M83.9,19.1l3.6-3.6v-0.8l-3.6,3.6V19.1z M83.9,20.3
	l3.6-3.6v-0.8l-3.6,3.6V20.3z M83.9,28.7l7-7h0.2v-4.8h-3.6v0.2l-3.6,3.6v0.8l3.6-3.6v0.4l-3.6,3.6v0.8l3.6-3.6v0.4l-3.6,3.6v0.8
	l3.6-3.6v0.4l-3.6,3.6v0.8l3.6-3.6v0.2h0.2l-3.8,3.7v0.8l4.6-4.6h0.4l-5,5v0.8l5.8-5.8h0.4l-6.2,6.2V28.7z M83.9,29.9l3.6-3.6v-0.8
	L83.9,29V29.9z M83.9,31l3.6-3.6v-0.8l-3.6,3.6V31z M83.9,32.3l3.6-3.6v-0.8l-3.6,3.6V32.3z M89.7,36l3.6-3.6h0.2v-3.6h-6V29
	l-3.6,3.6v0.8l3.6-3.6v0.4l-3.6,3.6v0.8l3.6-3.6v0.4L83.9,35v0.8l3.6-3.6v0.2h0.2L84.1,36h0.8l3.6-3.6h0.4L85.3,36h0.8l3.6-3.6h0.4
	L86.5,36h0.8l3.6-3.6h0.4L87.7,36h0.8l3.6-3.6h0.4L88.9,36H89.7z M87.7,25.3h0.8l3.6-3.6h-0.8L87.7,25.3z M88.5,13.3l3.6-3.6h0.4
	l-3.6,3.6H88.5z M88.9,25.3h0.8l3.6-3.6h-0.8L88.9,25.3z M89.7,13.3l3.6-3.6h0.4l-3.6,3.6H89.7z M94.5,21.7h-0.8l-3.6,3.6h0.8
	L94.5,21.7z M90.9,36l3.6-3.6h-0.8L90.1,36H90.9z M90.9,13.3l3.6-3.6h0.4l-3.6,3.6H90.9z M91.3,36h0.8l3.6-3.6h-0.8L91.3,36z
	 M92.1,13.3l3.6-3.6h0.4l-3.6,3.6H92.1z M93.3,36l3.6-3.6h-0.8L92.5,36H93.3z M93.3,13.3l3.6-3.6h0.4l-3.6,3.6H93.3z M94.5,13.3
	l3.6-3.6h0.2v0.2l-3.6,3.6v-0.2H94.5z M98.3,11.1l-3.6,3.6v-0.4l3.6-3.6V11.1z M98.3,12.3l-3.6,3.6v-0.4l3.6-3.6V12.3z M98.3,13.4
	l-3.6,3.6v-0.4l3.6-3.6V13.4z M98.3,14.6l-3.6,3.6v-0.4l3.6-3.6V14.6z M98.3,15.8l-3.6,3.6v-0.4l3.6-3.6V15.8z M98.3,17.1l-3.6,3.6
	v-0.4l3.6-3.6V17.1z M97.1,26.3l3.6-3.6v0.4l-3.6,3.6V26.3z M97.1,27.5l3.6-3.6v0.4l-3.6,3.6V27.5z M97.1,28.7l3.6-3.6v0.4L97.1,29
	V28.7z M97.1,29.9l3.6-3.6v0.4l-3.6,3.6V29.9z M97.1,31l3.6-3.6v0.4l-3.6,3.6V31z"/>
<linearGradient id="SVGID_2_" gradientUnits="userSpaceOnUse" x1="114.7474" y1="39.6656" x2="114.7474" y2="9.6871">
	<stop  offset="0" style="stop-color:#AD69FF"/>
	<stop  offset="0.2801" style="stop-color:#AF66FC"/>
	<stop  offset="0.4988" style="stop-color:#B65CF4"/>
	<stop  offset="0.6967" style="stop-color:#C24CE6"/>
	<stop  offset="0.8812" style="stop-color:#D334D2"/>
	<stop  offset="1" style="stop-color:#E121C1"/>
</linearGradient>
<path class="st1" d="M121.3,13.4v0.8l3.6-3.6v0.4l-3.6,3.6v0.8l3.6-3.6v0.4l-3.6,3.6v0.8l3.6-3.6v0.4l-3.6,3.6v0.8l3.6-3.6v0.4
	l-3.6,3.6v0.8l3.6-3.6v0.4l-3.6,3.6v0.8l3.6-3.6v0.4l-3.6,3.6v0.8l3.6-3.6v0.4l-8.3,8.3l0.4,0.4l7.9-7.9v0.4l-7.7,7.7l0.5,0.5
	l7.2-7.3v0.4l-7.1,7.1l0.4,0.4l6.7-6.7v0.4l-3.4,3.4h0.8l2.6-2.6v0.4l-2.2,2.2h0.8l1.4-1.4v0.4l-1,1h1l-1.8,1.8l0.1,0.1l-3,3
	l0.5,0.5l3-3l0.2,0.2l-3,3l0.4,0.4l3-3l0.2,0.2l-3.1,3.1v0.8l3.5-3.5l0.1,0.1V29l-3.6,3.6v0.8l3.6-3.6v0.4l-3.6,3.6v0.8l3.6-3.6v0.4
	l-3.6,3.6v0.8l3.6-3.6v0.4l-3.4,3.4h0.8l2.6-2.6v0.4l-2.2,2.2h0.8l1.4-1.4V35l-1,1h1l-3.6,3.6h-3.6v-4.8l-6-6V29l-3.6,3.6v0.8
	l3.6-3.6v0.4l-3.6,3.6v0.8l3.6-3.6v0.4l-3.6,3.6v0.8l3.6-3.6v0.4l-3.4,3.4h0.8l2.6-2.6v0.4l-2.2,2.2h0.8l1.4-1.4V35l-1,1h1l-3.6,3.6
	h-3.6V13.3l3.6-3.6v1l1-1h0.4l-1.4,1.4v0.8l2.2-2.2h0.4l-2.6,2.6v0.8l3.4-3.4h0.4l-3.8,3.7v0.8l4.6-4.6h0.4l-5,5v0.8l5.8-5.8h0.4
	l-6.2,6.2v0.8l7-7h0.4l-3.6,3.6h0.8l3.6-3.6h0.4l-3.6,3.6h0.8l3.6-3.6h0.4l-3.6,3.6h0.8l3.6-3.6h0.4l-3.6,3.6h0.8l3.6-3.6h0.4
	l-3.6,3.6h0.8l3.6-3.6h0.4l-3.6,3.6h0.8l3.6-3.6h0.4l-3.6,3.6h0.8l3.6-3.6h0.4l-3.6,3.6h0.8l3.6-3.6h0.2v0.2L121.3,13.4z
	 M108.1,17.9l3.6-3.6v-0.8l-3.6,3.6V17.9z M108.1,19.1l3.6-3.6v-0.8l-3.6,3.6V19.1z M108.1,20.3l3.6-3.6v-0.8l-3.6,3.6V20.3z
	 M114,25.3l3.6-3.6h0.2v-4.8h-6v0.2l-3.6,3.6v0.8l3.6-3.6v0.4l-3.6,3.6v0.8l3.6-3.6v0.4l-3.6,3.6v0.8l3.6-3.6v0.4l-3.6,3.6v0.8
	l3.6-3.6v0.2h0.2l-3.8,3.7v0.8l4.6-4.6h0.4l-5,5v0.8l5.8-5.8h0.4l-6.2,6.2v0.8l7-7h0.4l-3.6,3.6h0.8l3.6-3.6h0.4l-3.6,3.6H114z
	 M111.7,25.4l-3.6,3.6v0.8l3.6-3.6V25.4z M111.7,26.6l-3.6,3.6V31l3.6-3.6V26.6z M111.7,27.8l-3.6,3.6v0.8l3.6-3.6V27.8z
	 M115.1,25.3l3.6-3.6h-0.8l-3.6,3.6H115.1z M115.4,25.3l0.5,0.5l4.1-4.1h-0.8L115.4,25.3z M121.1,21.7h-0.8l-4.3,4.3l0.4,0.4
	L121.1,21.7z M118.4,28.3l0.5,0.5l3-3l-0.4-0.4L118.4,28.3z M122.1,26l-3,3l0.4,0.4l3-3L122.1,26z M122.6,26.5l-3,3l0.4,0.4l3-3
	L122.6,26.5z"/>
<linearGradient id="SVGID_3_" gradientUnits="userSpaceOnUse" x1="138.9796" y1="39.6656" x2="138.9796" y2="9.6871">
	<stop  offset="0" style="stop-color:#AD69FF"/>
	<stop  offset="0.2801" style="stop-color:#AF66FC"/>
	<stop  offset="0.4988" style="stop-color:#B65CF4"/>
	<stop  offset="0.6967" style="stop-color:#C24CE6"/>
	<stop  offset="0.8812" style="stop-color:#D334D2"/>
	<stop  offset="1" style="stop-color:#E121C1"/>
</linearGradient>
<path class="st2" d="M145.6,13.4v0.8l3.6-3.6v0.4l-3.6,3.6v0.8l3.6-3.6v0.4l-3.6,3.6v0.8l3.6-3.6v0.4l-3.6,3.6v0.8l3.6-3.6v0.4
	l-3.6,3.6v0.8l3.6-3.6v0.4l-3.6,3.6v0.8l3.6-3.6v0.4l-3.6,3.6v0.8l3.6-3.6v0.4l-7,7h0.8l6.2-6.2v0.4l-5.8,5.8h0.8l5-5v0.4l-4.6,4.6
	h0.8l3.8-3.8v0.4l-3.6,3.6v0.8l3.6-3.6v0.4l-3.6,3.6v0.8l3.6-3.6v0.4l-3.6,3.6v0.8l3.6-3.6v0.4l-3.6,3.6v0.8l3.6-3.6v0.4l-3.6,3.6
	V31l3.6-3.6v0.4l-3.6,3.6v0.8l3.6-3.6V29l-3.6,3.6v0.8l3.6-3.6v0.4l-3.6,3.6v0.8l3.6-3.6v0.4l-3.6,3.6v0.8l3.6-3.6v0.4l-3.4,3.4h0.8
	l2.6-2.6v0.4L147,36h0.8l1.4-1.4V35l-1,1h1l-3.6,3.6H142V28.8h-6V29l-3.6,3.6v0.8l3.6-3.6v0.4l-3.6,3.6v0.8L136,31v0.4l-3.6,3.6v0.8
	l3.6-3.6v0.4l-3.4,3.4h0.8l2.6-2.6v0.4l-2.2,2.2h0.8l1.4-1.4V35l-1,1h1l-3.6,3.6h-3.6V13.3l3.6-3.6v1l1-1h0.4l-1.4,1.4v0.8l2.2-2.2
	h0.4l-2.6,2.6v0.8l3.4-3.4h0.4l-3.8,3.7v0.8l4.6-4.6h0.4l-5,5v0.8l5.8-5.8h0.4l-6.2,6.2v0.8l7-7h0.4l-3.6,3.6h0.8l3.6-3.6h0.4
	l-3.6,3.6h0.8l3.6-3.6h0.4l-3.6,3.6h0.8l3.6-3.6h0.4l-3.6,3.6h0.8l3.6-3.6h0.4l-3.6,3.6h0.8l3.6-3.6h0.4l-3.6,3.6h0.8l3.6-3.6h0.4
	l-3.6,3.6h0.8l3.6-3.6h0.4l-3.6,3.6h0.8l3.6-3.6h0.2v0.2L145.6,13.4z M132.4,17.9l3.6-3.6v-0.8l-3.6,3.6V17.9z M132.4,19.1l3.6-3.6
	v-0.8l-3.6,3.6V19.1z M132.4,20.3l3.6-3.6v-0.8l-3.6,3.6V20.3z M138.2,25.3l3.6-3.6h0.2v-4.8h-6v0.2l-3.6,3.6v0.8l3.6-3.6v0.4
	l-3.6,3.6v0.8l3.6-3.6v0.4l-3.6,3.6v0.8l3.6-3.6v0.4l-3.6,3.6v0.8l3.6-3.6v0.2h0.2l-3.8,3.7v0.8l4.6-4.6h0.4l-5,5v0.8l5.8-5.8h0.4
	l-6.2,6.2v0.8l7-7h0.4l-3.6,3.6h0.8l3.6-3.6h0.4l-3.6,3.6H138.2z M136,25.4l-3.6,3.6v0.8l3.6-3.6V25.4z M136,26.6l-3.6,3.6V31
	l3.6-3.6V26.6z M136,27.8l-3.6,3.6v0.8l3.6-3.6V27.8z M139.4,25.3l3.6-3.6h-0.8l-3.6,3.6H139.4z M140.6,25.3l3.6-3.6h-0.8l-3.6,3.6
	H140.6z M145.4,21.7h-0.8l-3.6,3.6h0.8L145.4,21.7z"/>
<linearGradient id="SVGID_4_" gradientUnits="userSpaceOnUse" x1="156.612" y1="39.6656" x2="156.612" y2="9.6871">
	<stop  offset="0" style="stop-color:#AD69FF"/>
	<stop  offset="0.2801" style="stop-color:#AF66FC"/>
	<stop  offset="0.4988" style="stop-color:#B65CF4"/>
	<stop  offset="0.6967" style="stop-color:#C24CE6"/>
	<stop  offset="0.8812" style="stop-color:#D334D2"/>
	<stop  offset="1" style="stop-color:#E121C1"/>
</linearGradient>
<path class="st3" d="M156.6,13.4v0.8l3.6-3.6v0.4l-3.6,3.6v0.8l3.6-3.6v0.4l-3.6,3.6v0.8l3.6-3.6v0.4l-3.6,3.6v0.8l3.6-3.6v0.4
	l-3.6,3.6v0.8l3.6-3.6v0.4l-3.6,3.6v0.8l3.6-3.6v0.4l-3.6,3.6v0.8l3.6-3.6v0.4l-3.6,3.6v0.8l3.6-3.6v0.4l-3.6,3.6v0.8l3.6-3.6v0.4
	l-3.6,3.6v0.8l3.6-3.6v0.4l-3.6,3.6v0.8l3.6-3.6v0.4l-3.6,3.6v0.8l3.6-3.6v0.4l-3.6,3.6v0.8l3.6-3.6v0.4l-3.6,3.6v0.8l3.6-3.6v0.4
	l-3.6,3.6V31l3.6-3.6v0.4l-3.6,3.6v0.8l3.6-3.6V29l-3.6,3.6v0.8l3.6-3.6v0.4l-3.6,3.6v0.8l3.6-3.6v0.4l-3.6,3.6v0.8l3.6-3.6v0.4
	l-3.4,3.4h0.8l2.6-2.6v0.4L158,36h0.8l1.4-1.4V35l-1,1h1l-3.6,3.6H153V13.3l3.6-3.6v1l1-1h0.4l-1.4,1.4v0.8l2.2-2.2h0.4l-2.6,2.6
	v0.8l3.4-3.4h0.2v0.2L156.6,13.4z"/>
<linearGradient id="SVGID_5_" gradientUnits="userSpaceOnUse" x1="174.245" y1="39.6656" x2="174.245" y2="9.6871">
	<stop  offset="0" style="stop-color:#AD69FF"/>
	<stop  offset="0.2801" style="stop-color:#AF66FC"/>
	<stop  offset="0.4988" style="stop-color:#B65CF4"/>
	<stop  offset="0.6967" style="stop-color:#C24CE6"/>
	<stop  offset="0.8812" style="stop-color:#D334D2"/>
	<stop  offset="1" style="stop-color:#E121C1"/>
</linearGradient>
<path class="st4" d="M180.8,13.4v0.8l3.6-3.6v0.4l-3.6,3.6v0.8l3.6-3.6v0.4l-3.6,3.6v0.8l3.6-3.6v0.4l-3.6,3.6v0.8l3.6-3.6v0.4
	l-3.6,3.6v0.8l3.6-3.6v0.4l-6.5,6.5l0.5,0.5l6-6.1v0.4l-5.9,5.9l0.4,0.4l5.5-5.5v0.4l-5.3,5.3l0.4,0.4l4.9-4.9v0.4l-4.7,4.7l0.5,0.5
	l4.2-4.3v0.4l-4.1,4.1l0.4,0.4l3.7-3.7v0.4l-3.6,3.6v0.8l3.6-3.6v0.4l-3.6,3.6v0.8l3.6-3.6v0.4l-3.6,3.6v0.8l3.6-3.6v0.4l-3.6,3.6
	v0.8l3.6-3.6v0.4l-3.6,3.6V31l3.6-3.6v0.4l-3.6,3.6v0.8l3.6-3.6V29l-3.6,3.6v0.8l3.6-3.6v0.4l-3.6,3.6v0.8l3.6-3.6v0.4l-3.6,3.6v0.8
	l3.6-3.6v0.4L181,36h0.8l2.6-2.6v0.4l-2.2,2.2h0.8l1.4-1.4V35l-1,1h1l-3.6,3.6h-3.6V28.8l-6-6v0.2l-3.6,3.6v0.8l3.6-3.6v0.4
	l-3.6,3.6v0.8l3.6-3.6v0.4l-3.6,3.6v0.8l3.6-3.6v0.4l-3.6,3.6V31l3.6-3.6v0.4l-3.6,3.6v0.8l3.6-3.6V29l-3.6,3.6v0.8l3.6-3.6v0.4
	l-3.6,3.6v0.8l3.6-3.6v0.4l-3.6,3.6v0.8l3.6-3.6v0.4l-3.4,3.4h0.8l2.6-2.6v0.4L169,36h0.8l1.4-1.4V35l-1,1h1l-3.6,3.6h-3.6V13.3
	l3.6-3.6v1l1-1h0.4l-1.4,1.4v0.8l2.2-2.2h0.4l-2.6,2.6v0.8l3.4-3.4h0.2l0.1,0.1l-3.7,3.7v0.8l4.1-4.1l0.2,0.2l-4.3,4.3v0.8l4.7-4.7
	l0.2,0.2l-4.9,4.9v0.8l5.3-5.3l0.2,0.2l-5.5,5.5v0.8l5.9-6l0.2,0.2l-6.1,6.1v0.8l6.5-6.5l0.2,0.2l-3,3l0.4,0.4l3-3l0.2,0.2l-3,3
	l0.4,0.4l3-3l0.2,0.2l-3,3l0.4,0.4l3-3l0.2,0.2l-3,3l0.5,0.5l3-3l0.2,0.2l-3,3l0.4,0.4l3-3l0.1,0.1v-2.4l3.6-3.6v1l1-1h0.4l-1.4,1.4
	v0.8l2.2-2.2h0.4l-2.6,2.6v0.8l3.4-3.4h0.2v0.2L180.8,13.4z M171.2,15.8l-3.6,3.6v0.8l3.6-3.6V15.8z M171.2,17.1l-3.6,3.6v0.8
	l3.6-3.6V17.1z M171.2,18.3l-3.6,3.6v0.8l3.6-3.6V18.3z M171.2,19.4l-3.6,3.6v0.8l3.6-3.6V19.4z M171.2,20.6l-3.6,3.6v0.8l3.6-3.6
	V20.6z M171.2,21.8l-3.6,3.6v0.8l3.6-3.6V21.8z M174.3,18.7l0.5,0.5l3-3l-0.4-0.4L174.3,18.7z M177.9,16.3l-3,3l0.4,0.4l3-3
	L177.9,16.3z M178.6,17l-3,3l0.4,0.4l3-3L178.6,17z M179.1,17.6l-3,3l0.5,0.5l3-3L179.1,17.6z M179.7,18.1l-3,3l0.4,0.4l3-3
	L179.7,18.1z M180.8,19.2l-0.4-0.4l-3,3l0.5,0.5L180.8,19.2z"/>
<linearGradient id="SVGID_6_" gradientUnits="userSpaceOnUse" x1="126.3887" y1="41.341" x2="126.3887" y2="71.0189">
	<stop  offset="0" style="stop-color:#AD69FF"/>
	<stop  offset="6.521269e-03" style="stop-color:#AC68FF"/>
	<stop  offset="0.4873" style="stop-color:#5F42DE"/>
	<stop  offset="0.83" style="stop-color:#2F2AC9"/>
	<stop  offset="1" style="stop-color:#1D21C1"/>
</linearGradient>
<path class="st5" d="M132.9,45.1v0.8l3.5-3.5v0.4l-3.5,3.5v0.8l3.5-3.5v0.4l-3.5,3.5v0.8l3.5-3.6v0.4l-3.5,3.6v0.8l3.5-3.6v0.4
	l-3.5,3.6v0.8l3.5-3.5v0.4l-3.5,3.5v0.8l3.5-3.5v0.4l-3.5,3.5V53l3.5-3.5v0.4l-6.9,6.9h0.8l6.1-6.1V51l-5.7,5.8h0.8l4.9-4.9v0.4
	l-4.5,4.6h0.8l3.8-3.8v0.4l-3.5,3.5v0.8l3.5-3.5v0.4l-3.5,3.5v0.8l3.5-3.5v0.4l-3.5,3.5v0.8l3.5-3.6v0.4l-3.5,3.6v0.8l3.5-3.6v0.4
	l-3.5,3.6v0.8l3.5-3.5v0.4l-3.5,3.5v0.8l3.5-3.5v0.4l-3.5,3.5v0.8l3.5-3.5v0.4l-3.5,3.5v0.8l3.5-3.6v0.4l-3.5,3.6v0.8l3.5-3.6v0.4
	l-3.4,3.4h0.8l2.6-2.6v0.4l-2.2,2.2h0.8l1.4-1.4v0.4l-1,1h1l-3.5,3.6h-3.6V60.3h-5.9v0.2l-3.5,3.5v0.8l3.5-3.5v0.4l-3.5,3.5v0.8
	l3.5-3.6v0.4l-3.5,3.6v0.8l3.5-3.6v0.4l-3.3,3.4h0.8l2.6-2.6v0.4l-2.2,2.2h0.8l1.4-1.4v0.4l-1,1h1l-3.5,3.6h-3.5V44.9l3.5-3.5v1l1-1
	h0.4l-1.4,1.4v0.8l2.2-2.2h0.4l-2.6,2.6v0.8l3.4-3.3h0.4l-3.8,3.7v0.8l4.6-4.5h0.4l-4.9,4.9v0.8l5.8-5.7h0.4l-6.1,6.1v0.8l6.9-6.9
	h0.4l-3.5,3.5h0.8l3.5-3.5h0.4l-3.5,3.5h0.8l3.5-3.5h0.4l-3.5,3.5h0.8l3.6-3.5h0.4l-3.6,3.5h0.8l3.6-3.5h0.4l-3.6,3.5h0.8l3.5-3.5
	h0.4l-3.5,3.5h0.8l3.5-3.5h0.4l-3.5,3.5h0.8l3.5-3.5h0.4l-3.5,3.5h0.8l3.6-3.5h0.2v0.2L132.9,45.1z M119.9,49.5l3.5-3.6v-0.8
	l-3.5,3.6V49.5z M119.9,50.6l3.5-3.5v-0.8l-3.5,3.6V50.6z M119.9,51.8l3.5-3.5v-0.8l-3.5,3.5V51.8z M125.6,56.8l3.5-3.5h0.2v-4.8
	h-5.9v0.2l-3.5,3.5V53l3.5-3.5v0.4l-3.5,3.5v0.8l3.5-3.6V51l-3.5,3.6v0.8l3.5-3.6v0.4l-3.5,3.6v0.8l3.5-3.5v0.2h0.2l-3.8,3.7v0.8
	l4.6-4.5h0.4l-4.9,4.9v0.8l5.8-5.7h0.4l-6.1,6.1v0.8l6.9-6.9h0.4l-3.5,3.5h0.8l3.5-3.5h0.4l-3.5,3.5H125.6z M123.4,56.9l-3.5,3.6
	v0.8l3.5-3.6V56.9z M123.4,58.1l-3.5,3.6v0.8l3.5-3.5V58.1z M123.4,59.3l-3.5,3.5v0.8l3.5-3.5V59.3z M126.8,56.8l3.6-3.5h-0.8
	l-3.5,3.5H126.8z M128,56.8l3.6-3.5h-0.8l-3.6,3.5H128z M132.7,53.2h-0.8l-3.6,3.5h0.8L132.7,53.2z"/>
<linearGradient id="SVGID_7_" gradientUnits="userSpaceOnUse" x1="150.3767" y1="41.2586" x2="150.3767" y2="71.0189">
	<stop  offset="0" style="stop-color:#AD69FF"/>
	<stop  offset="6.521269e-03" style="stop-color:#AC68FF"/>
	<stop  offset="0.4873" style="stop-color:#5F42DE"/>
	<stop  offset="0.83" style="stop-color:#2F2AC9"/>
	<stop  offset="1" style="stop-color:#1D21C1"/>
</linearGradient>
<path class="st6" d="M156.9,45v0.8l3.5-3.5v0.4l-3.5,3.5V47l3.5-3.5v0.4l-3.5,3.5v0.8l3.5-3.5V45l-3.5,3.5v0.8l3.5-3.6v0.4l-3.5,3.6
	v0.8l3.5-3.6v0.4l-3.5,3.6v0.8l3.5-3.5v0.4l-3.5,3.5v0.8l3.5-3.5v0.4l-3.5,3.5v0.8l3.5-3.5v0.4l-3.5,3.5v0.8l3.5-3.6v0.4l-3.5,3.6
	v0.8l3.5-3.6v0.4l-11.1,11.2l0.4,0.4l10.7-10.8v0.4l-10.6,10.6l0.4,0.4l10.1-10.2v0.4l-10,10l0.5,0.5l9.5-9.6v0.4l-9.4,9.4l0.4,0.4
	l8.9-9V58l-8.8,8.8l0.5,0.5l8.3-8.4v0.4L148.7,71l-8.4-8.4V44.8l3.5-3.5v1l1-1h0.4l-1.4,1.4v0.8l2.2-2.2h0.4l-2.6,2.6v0.8l3.4-3.4
	h0.2v0.2l-3.5,3.6v0.8l3.5-3.5v0.4l-3.5,3.5V47l3.5-3.5v0.4l-3.5,3.5v0.8l3.5-3.5V45l-3.5,3.5v0.8l3.5-3.6v0.4l-3.5,3.6v0.8l3.5-3.6
	v0.4l-3.5,3.6v0.8l3.5-3.5v0.4l-3.5,3.5v0.8l3.5-3.5v0.4l-3.5,3.5v0.8l3.5-3.5v0.4l-3.5,3.5v0.8l3.5-3.6v0.4l-3.5,3.6v0.8l3.5-3.6
	v0.4l-3.5,3.6v0.8l3.5-3.5v0.4l-3.5,3.5v0.8l3.5-3.5v0.4l-3.5,3.4l0.4,0.4l3.1-3v0.2l0.1,0.1l-3,2.9l0.5,0.5l2.9-3l0.2,0.2l-3,2.9
	l0.5,0.5l2.9-3l0.2,0.2l-3,2.9l0.4,0.4l2.9-3l0.2,0.2l-3,2.9l0.5,0.5l2.9-3l0.2,0.2l-3,2.9l0.4,0.4l2.9-3l0.2,0.2l-3,2.9l0.4,0.4
	l3-3l0.2,0.2l-3,2.9l0.4,0.4l3-3l0.2,0.2l-3,2.9l0.5,0.5l4.2-4.2V44.8l3.6-3.5v1l1-1h0.4l-1.4,1.4v0.8l2.2-2.2h0.4l-2.6,2.6v0.8
	l3.4-3.4h0.2v0.2L156.9,45z"/>
<linearGradient id="SVGID_8_" gradientUnits="userSpaceOnUse" x1="174.3644" y1="41.341" x2="174.3644" y2="71.0189">
	<stop  offset="0" style="stop-color:#AD69FF"/>
	<stop  offset="6.521269e-03" style="stop-color:#AC68FF"/>
	<stop  offset="0.4873" style="stop-color:#5F42DE"/>
	<stop  offset="0.83" style="stop-color:#2F2AC9"/>
	<stop  offset="1" style="stop-color:#1D21C1"/>
</linearGradient>
<path class="st7" d="M167.8,52.2V53l3.5-3.5v0.4l-3.5,3.5v0.8l3.5-3.6V51l-3.5,3.6v0.8l3.5-3.6v0.4l-3.5,3.6v0.8l3.5-3.5v0.2h0.2
	l-3.8,3.7v0.8l4.6-4.5h0.4l-4.9,4.9v0.8l5.8-5.7h0.4l-6.1,6.1v0.8l6.9-6.9h0.4l-3.5,3.5h0.8l3.5-3.5h0.4l-3.5,3.5h0.8l3.5-3.5h0.4
	l-3.5,3.5h0.8l3.6-3.5h0.4l-3.6,3.5h0.8l3.6-3.5h0.4l-3.6,3.5h0.8l3.5-3.5h0.2v0.2l-3.4,3.4h0.8l2.6-2.6v0.4l-2.2,2.2h0.8l1.4-1.4
	v0.4l-1,1h1l-3.6,3.5h-5.9v0.2l-3.5,3.5v0.8l3.5-3.5v0.4l-3.5,3.5v0.8l3.5-3.6v0.4l-3.5,3.6v0.8l3.5-3.6v0.2h0.2l-3.5,3.5h0.8
	l3.6-3.5h0.4l-3.6,3.5h0.8l3.6-3.5h0.4l-3.6,3.5h0.8l3.5-3.5h0.4l-3.5,3.5h0.8l3.5-3.5h0.4l-3.5,3.5h0.8l3.5-3.5h0.4l-3.5,3.5h0.8
	l3.6-3.5h0.4l-3.6,3.5h0.8l3.6-3.5h0.4l-3.6,3.5h0.8l3.5-3.5h0.4l-3.5,3.5h0.8l3.5-3.5h0.4l-3.5,3.5h0.8l3.5-3.5h0.4l-3.5,3.5h0.8
	l3.6-3.5h0.2v0.2l-3.4,3.4h0.8l2.6-2.6v0.4l-2.2,2.2h0.8l1.4-1.4v0.4l-1,1h1l-3.5,3.6h-16.6V44.9l3.5-3.5v1l1-1h0.4l-1.4,1.4v0.8
	l2.2-2.2h0.4l-2.6,2.6v0.8l3.4-3.3h0.4l-3.8,3.7v0.8l4.6-4.5h0.4l-4.9,4.9v0.8l5.8-5.7h0.4l-6.1,6.1v0.8l6.9-6.9h0.4l-3.5,3.5h12.9
	l-3.5,3.5h-9.5v0.2L167.8,52.2z M167.8,49.5l3.5-3.6v-0.8l-3.5,3.6V49.5z M167.8,50.6l3.5-3.5v-0.8l-3.5,3.6V50.6z M167.8,51.8
	l3.5-3.5v-0.8l-3.5,3.5V51.8z M167.8,60.5v0.8l3.5-3.6v-0.8L167.8,60.5z M171.4,58.1l-3.5,3.6v0.8l3.5-3.5V58.1z M171.4,59.3
	l-3.5,3.5v0.8l3.5-3.5V59.3z M172.4,44.9l3.5-3.5h0.4l-3.5,3.5H172.4z M173.6,44.9l3.5-3.5h0.4l-3.5,3.5H173.6z M174.8,44.9l3.6-3.5
	h0.4l-3.6,3.5H174.8z M176,44.9l3.6-3.5h0.4l-3.6,3.5H176z M177.1,44.9l3.5-3.5h0.4l-3.5,3.5H177.1z M178.3,44.9l3.5-3.5h0.4
	l-3.5,3.5H178.3z M179.5,44.9l3.5-3.5h0.4l-3.5,3.5H179.5z M184.4,41.3v0.2l-3.4,3.4h-0.4l3.6-3.5H184.4z M181.9,44.9l2.6-2.6v0.4
	l-2.2,2.2H181.9z M183.1,44.9l1.4-1.4v0.4l-1,1H183.1z"/>
<linearGradient id="SVGID_9_" gradientUnits="userSpaceOnUse" x1="96.911" y1="41.1296" x2="96.911" y2="71.0335">
	<stop  offset="0" style="stop-color:#AD69FF"/>
	<stop  offset="6.521269e-03" style="stop-color:#AC68FF"/>
	<stop  offset="0.4873" style="stop-color:#5F42DE"/>
	<stop  offset="0.83" style="stop-color:#2F2AC9"/>
	<stop  offset="1" style="stop-color:#1D21C1"/>
</linearGradient>
<polygon class="st8" points="113.6,41.3 113.6,41.1 113.4,41.1 110,44.5 110,43.7 112.6,41.1 112.2,41.1 110,43.3 110,42.5 
	111.4,41.1 111,41.1 110,42.1 110,41.1 106.4,44.7 106.4,60.1 102.3,64.3 101.8,63.8 104.8,60.9 104.6,60.7 101.6,63.7 101.2,63.2 
	104.2,60.3 104,60.1 101,63.1 100.6,62.7 103.6,59.7 103.4,59.5 100.4,62.5 100,62.1 103,59.1 102.8,58.9 99.9,61.9 99.4,61.5 
	102.4,58.5 102.2,58.3 99.2,61.3 98.8,60.9 101.8,57.9 101.6,57.7 98.7,60.7 98.6,60.7 92.1,67.3 91.7,66.8 98.6,59.8 101.2,57.3 
	101,57.1 100.5,57.6 100.5,57.6 91.5,66.7 91.1,66.3 100.5,56.8 100.5,56.5 90.9,66.1 90.5,65.6 100.2,55.8 100.5,55.6 100.5,55.6 
	100.5,55.6 100.5,55.3 99.8,55.9 96.9,58.8 96.9,58.8 90.3,65.5 89.9,65.1 100.5,54.4 100.5,54 89.7,64.9 89.3,64.5 96.9,56.8 
	96.9,56.8 100.5,53.2 100.5,53.2 100.5,53.2 100.5,52.8 96.9,56.5 96.9,55.6 100.5,52 100.5,52 100.5,52 100.5,51.6 96.9,55.3 
	96.9,54.4 100.5,50.9 100.5,50.9 100.5,50.9 100.5,50.5 96.9,54 96.9,53.2 100.5,49.7 100.5,49.7 100.5,49.7 100.5,49.3 96.9,52.8 
	96.9,52 100.5,48.5 100.5,48.5 100.5,48.5 100.5,48.1 96.9,51.6 96.9,50.9 100.5,47.3 100.5,47.3 100.5,47.3 100.5,46.9 96.9,50.5 
	96.9,49.7 100.5,46.1 100.5,46.1 100.5,46.1 100.5,45.7 96.9,49.3 96.9,48.5 100.5,44.9 100.5,44.9 100.5,44.9 100.5,44.5 
	96.9,48.1 96.9,47.3 100.5,43.7 100.5,43.7 100.5,43.7 100.5,43.3 96.9,46.9 96.9,46.1 100.5,42.5 100.5,42.5 100.5,42.5 
	100.5,42.1 96.9,45.7 96.9,44.9 100.5,41.3 100.5,41.3 100.5,41.3 100.5,41.1 100.3,41.1 96.9,44.5 96.9,43.7 99.5,41.1 99.5,41.1 
	99.5,41.1 99.1,41.1 96.9,43.3 96.9,42.5 98.3,41.1 98.3,41.1 98.3,41.1 97.9,41.1 96.9,42.1 96.9,41.1 93.3,44.7 93.3,60.1 
	89.1,64.3 88.6,63.8 91.7,60.9 91.4,60.7 88.5,63.7 88.1,63.2 91.1,60.3 90.9,60.1 87.9,63.1 87.5,62.7 90.5,59.7 90.2,59.5 
	87.3,62.5 86.9,62.1 89.9,59.1 89.7,58.9 86.7,61.9 86.3,61.5 89.3,58.5 89,58.3 86.1,61.3 85.7,60.9 88.7,57.9 88.5,57.7 
	85.5,60.7 85.1,60.3 88.1,57.3 87.8,57.1 84.9,60.1 84.4,59.6 87.4,56.7 87.3,56.6 87.3,56.5 84.3,59.5 83.9,59.1 87.3,55.6 
	87.3,55.3 83.8,58.8 83.8,58 87.3,54.4 87.3,54 83.8,57.6 83.8,56.8 87.3,53.2 87.3,52.8 83.8,56.5 83.8,55.6 87.3,52 87.3,51.6 
	83.8,55.3 83.8,54.4 87.3,50.9 87.3,50.5 83.8,54 83.8,53.2 87.3,49.7 87.3,49.3 83.8,52.8 83.8,52 87.3,48.5 87.3,48.1 83.8,51.6 
	83.8,50.9 87.3,47.3 87.3,46.9 83.8,50.5 83.8,49.7 87.3,46.1 87.3,45.7 83.8,49.3 83.8,48.5 87.3,44.9 87.3,44.5 83.8,48.1 
	83.8,47.3 87.3,43.7 87.3,43.3 83.8,46.9 83.8,46.1 87.3,42.5 87.3,42.1 83.8,45.7 83.8,44.9 87.3,41.3 87.3,41.1 87.2,41.1 
	83.8,44.5 83.8,43.7 86.4,41.1 86,41.1 83.8,43.3 83.8,42.5 85.2,41.1 84.8,41.1 83.8,42.1 83.8,41.1 80.2,44.7 80.2,62.6 88.7,71 
	95.3,64.4 95.2,64.5 101.8,71 113.6,59.2 113.6,58.8 105.2,67.3 104.8,66.9 113.6,58 113.6,57.6 104.6,66.7 104.2,66.3 113.6,56.8 
	113.6,56.5 104,66.1 103.6,65.7 113.6,55.6 113.6,55.3 103.4,65.5 103,65.1 113.6,54.4 113.6,54.1 102.8,64.9 102.4,64.5 
	113.6,53.2 113.6,52.9 110,56.5 110,55.6 113.6,52 113.6,51.7 110,55.3 110,54.4 113.6,50.9 113.6,50.5 110,54.1 110,53.2 
	113.6,49.7 113.6,49.3 110,52.9 110,52 113.6,48.5 113.6,48.1 110,51.7 110,50.9 113.6,47.3 113.6,46.9 110,50.5 110,49.7 
	113.6,46.1 113.6,45.7 110,49.3 110,48.5 113.6,44.9 113.6,44.5 110,48.1 110,47.3 113.6,43.7 113.6,43.3 110,46.9 110,46.1 
	113.6,42.5 113.6,42.1 110,45.7 110,44.9 "/>
</svg>
