<svg xmlns="http://www.w3.org/2000/svg" viewBox="0 0 300 300"><path d="M290.2 159.5c.2-3.1.3-6.3.3-9.5 0-2.9-.1-5.7-.3-8.6-9-3.1-22.4-5.8-39.1-8-3.2-4.4-6.6-9.5-10.1-15.1 15.8-11.7 27.8-22.1 34.9-30.1-1.4-2.8-2.9-5.6-4.5-8.4-1.4-2.5-3-4.9-4.5-7.3-10.5 2-25.6 7.3-43.7 15-3.1-5.9-5.8-11.4-8.1-16.3 6.4-15.4 10.8-28.4 12.6-37.6-2.6-1.8-5.3-3.4-8.1-5-2.5-1.4-5-2.8-7.6-4-7.2 6.2-16.2 16.5-26.5 29.7-5.4.5-11.6.9-18.2 1.2-2.3-19.5-5.3-35.2-8.8-45.2-2.8-.2-5.7-.3-8.6-.3-3.2 0-6.4.1-9.6.3-3.4 10.1-6.4 25.7-8.8 45.2-6.6-.3-12.8-.7-18.2-1.2-10-13.3-19-23.5-26.2-29.8-2.5 1.3-5.1 2.6-7.6 4-2.8 1.6-5.5 3.3-8.1 5 1.8 9.3 6.2 22.2 12.6 37.7-2.2 4.9-5 10.4-8 16.3-18.1-7.8-33.2-13-43.7-15-1.6 2.4-3.1 4.8-4.5 7.3-1.6 2.8-3.1 5.6-4.5 8.4 7 8 19.1 18.4 34.9 30.1-3.6 5.6-7 10.7-10.1 15.1-16.7 2.2-30.1 4.9-39.1 8-.2 2.8-.3 5.7-.3 8.6 0 3.2.1 6.4.3 9.5 9 3.1 22.4 5.8 39 7.9 3.2 4.4 6.6 9.5 10.1 15.1-15.8 11.8-27.9 22.2-34.9 30.2 1.3 2.5 2.6 5.1 4.1 7.5 1.6 2.8 3.3 5.5 5.1 8.1 10.5-2.1 25.5-7.3 43.6-15 3.1 5.9 5.8 11.4 8 16.3-6.4 15.5-10.8 28.4-12.6 37.7 2.4 1.6 4.8 3.1 7.3 4.5 2.8 1.6 5.6 3.1 8.4 4.5 7.1-6.2 16.2-16.4 26.4-29.7 5.4-.5 11.5-.9 18.2-1.2 2.3 19.5 5.3 35.1 8.8 45.2 3.2.2 6.3.3 9.6.3 2.9 0 5.7-.1 8.6-.3 3.5-10.1 6.5-25.7 8.8-45.2 6.6.3 12.8.7 18.2 1.2 10.2 13.3 19.3 23.5 26.4 29.7 2.8-1.4 5.7-2.9 8.4-4.5 2.5-1.4 4.9-2.9 7.3-4.5-1.8-9.3-6.2-22.2-12.6-37.7 2.2-4.9 5-10.4 8.1-16.3 18.1 7.7 33.1 13 43.6 15 1.8-2.6 3.5-5.3 5.1-8.1 1.4-2.5 2.8-5 4.1-7.5-7-8-19.1-18.4-34.9-30.2 3.5-5.6 7-10.7 10.1-15.1 16.5-2.1 29.9-4.8 38.9-7.9zm-105.4 11.2c-6.2 10.8-10.5 20.4-10.3 23.1-2.3-1.5-12.7-2.6-25.2-2.6s-22.9 1.1-25.2 2.6c.2-2.7-4-12.3-10.3-23.1-6.2-10.8-12.4-19.3-14.9-20.5 2.4-1.2 8.6-9.6 14.9-20.5 6.2-10.8 10.5-20.4 10.3-23.1 2.3 1.5 12.7 2.6 25.2 2.6s22.9-1.1 25.2-2.6c-.2 2.7 4 12.3 10.3 23.1 6.2 10.8 12.4 19.3 14.9 20.5-2.4 1.2-8.6 9.6-14.9 20.5z"/></svg>