<?xml version="1.0" encoding="utf-8"?>
<!-- Generator: Adobe Illustrator 24.0.1, SVG Export Plug-In . SVG Version: 6.00 Build 0)  -->
<svg version="1.1" xmlns="http://www.w3.org/2000/svg" xmlns:xlink="http://www.w3.org/1999/xlink" x="0px" y="0px"
	 viewBox="0 0 1050 604" style="enable-background:new 0 0 1050 604;" xml:space="preserve">
<g id="S">
	<path d="M257.1,40c-24.3-28-61.7-32.7-97.7-12.3c-31.2,17.7-56.9,51.5-70.4,92.7c-10.9,33.3-19.1,87.5,3.8,156.6
		c36.2,108.8,72.5,228.4,45.9,270.4c-6.1,9.7-15.4,14.9-29.3,16.6c-11.7,1.4-41,0.1-60.6-41.6C27.1,476,37.4,426.1,59.9,404.7
		l8.9-8.4l-16.9-17.8l-8.9,8.4C4.9,423.1,6.2,489.1,26.7,532.8c16.8,35.7,45,56.1,76.7,56.1c3,0,6-0.2,9-0.5
		c21.1-2.5,37-11.9,47-27.8c29.4-46.3,6.4-141.9-43.3-291.3c-20.9-62.8-13.6-111.5-3.8-141.3c11.6-35.5,33.2-64.2,59.2-79
		c12.3-7,43.5-20.3,67,7c53.7,62.3-25.2,173.9-26.3,175.4l-7.2,9.9l19.9,14.3l7.2-9.9C235.9,240.5,323.4,117,257.1,40z"/>
</g>
<g id="orcerers">
	<path d="M816.4,305.4c31.9-10.4,41-33.3,41.1-55.9c-0.1,0.1-0.1,0.2-0.2,0.3v-1.3c0-35.3-30.9-60.1-31.8-86.4
		c3.8-14.8,6.9-30.8,9.5-48.4l-21.4,1.4c-5,16.7-7.2,31.2-7.2,43.8c0,10.7,1.6,20.4,3.8,29.3c-6,16.7-12,32.4-16.1,44.2
		c-13.9,39.8-24.9,59.3-31.8,61.1c-3.2,0.8-5-0.6-5-5.3c0-11,14.5-40.9,14.5-61.1c0-18-13.6-27.1-24-35.1c5-17.7,7.6-33.5,8.8-54.6
		l-23.6-0.9c-5,17.7-7.2,30.9-7.2,40.9c0,11,2.5,18.9,5.7,25c-3.2,15.9-7.2,32.7-12.9,49.3c-12,35.2-27.4,58.7-46,63.5
		c-14.5,3.7-19.9-10-19.9-28.9v-4.7c37.2-15.5,56.1-50.7,56.1-73c0-14.5-7.9-23.8-23.6-19.8c-29,7.4-50.1,48.1-56.7,86.1
		c-13.9,39.8-24.9,59.3-31.8,61.1c-3.2,0.8-5-0.6-5-5.3c0-11,14.5-40.9,14.5-61.1c0-18-13.6-27.1-24-35.1c5-17.7,7.6-33.5,8.8-54.6
		l-23.6-0.9c-5,17.7-7.2,30.9-7.2,40.9c0,11,2.5,18.9,5.7,25c-3.2,15.9-7.2,32.8-12.9,49.3c-12,35.2-27.4,58.7-46,63.5
		c-14.5,3.7-19.9-10-19.9-28.9v-4.7c37.2-15.5,56.1-50.7,56.1-73c0-14.5-7.9-23.8-23.6-19.8c-29,7.4-50.1,48.1-56.7,86.1
		c-13.9,38.2-30.9,59.6-46,63.5c-16.1,4.1-22.4-10.6-22.4-30.5c0-29.9,14.2-71.1,30.6-75.3c4.4-1.1,6.3,2.8,6.3,9.4
		c0,9.5-4.1,24.4-10.4,36.7l20.2,5.5c6.3-15.2,10.4-31.7,10.4-45.2c0-18.3-7.2-30.9-25.2-26.3c-28.8,7.4-48.8,47.7-55,85.7h-0.1
		c-13.9,39.8-24.9,59.3-31.8,61.1c-3.2,0.8-5-0.6-5-5.3c0-11,14.5-40.9,14.5-61.1c0-18-13.6-27.1-24-35.1c5-17.7,7.6-33.5,8.8-54.6
		l-23.6-0.9c-5,17.7-7.2,30.9-7.2,40.9c0,11,2.5,18.9,5.7,25c-3.2,15.9-7.2,32.8-12.9,49.3c-5.7,16.3-13.2,26.1-21.4,32
		c4.1-14.9,7.9-32,7.9-47.4c0-28.4-11-49.8-32.1-44.4c-22.4,5.8-35.6,30.3-39.1,55.4l-11.3,0.1c-6.3,20.2-9.8,41-9.8,58.6
		c0,28.7,9.5,48.9,31.2,43.4c20.2-5.2,36.2-22.9,47-48.6c15.1-9.2,29.3-26.1,36.6-46.9l12.6-36.6c3.5,5.7,6.3,12.2,6.3,21.7
		c0,16.1-14.5,42.2-14.5,62.7c0,14.2,5.7,22.2,20.5,18.4c19.2-4.9,30.2-27.9,40.3-55.6c1.8,25.7,12.7,43.6,35,37.9
		c24.3-6.2,43.8-37.1,56.2-64.1c1.3,27,12.8,46.4,38.6,39.7c30.9-7.9,46.6-44.8,62.4-90.1l12.6-36.6c3.5,5.7,6.3,12.2,6.3,21.7
		c0,16.1-14.5,42.2-14.5,62.7c0,14.2,5.7,22.2,20.5,18.4c19-4.9,30-27.6,40-54.9c2.1,25.2,13.7,42.7,38.4,36.3
		c30.9-7.9,46.6-44.8,62.4-90.1l12.6-36.6c3.5,5.7,6.3,12.2,6.3,21.7c0,16.1-14.5,42.2-14.5,62.7c0,14.2,5.7,22.2,20.5,18.4
		c25.8-6.6,36.9-46,50.7-85.5c3.5-10.3,7.6-21.2,11-32.4c6.9,20.6,16.1,37.2,16.1,56.7c0,11.3-4.4,18.2-12.3,20.2
		c-6,1.5-9.8,0-13.9-5.9L785.2,292C789.6,303.8,801.6,309.2,816.4,305.4z M682.4,209c3.2-0.8,5,1.9,5,6.6c0,11.7-10.4,36.1-34,53.8
		C657.2,242.3,669.5,212.4,682.4,209z M516.6,251.6c3.2-0.8,5,1.9,5,6.6c0,11.7-10.4,36.1-34,53.8
		C491.4,284.9,503.7,255,516.6,251.6z M227,432.3c-0.9,0.6-1.6,0.7-2.5,1c-7.9,2-12.9-9.6-12.9-28.2c0-4.1,0.3-8.9,0.9-13.8
		c4.4,14,12.9,24.4,26.2,26.1C234.9,424.6,231.1,430,227,432.3z M245.3,402.4L245.3,402.4c-14.2-0.5-19.2-15.5-19.2-32.6
		c0-20.2,7.3-42.5,16.4-46.8c0.6-0.2,1.6-0.7,2.2-0.9c8.8-2.3,12.3,7.6,12.3,21.7C256.9,360.6,252.2,383.9,245.3,402.4z"/>
</g>
<g id="Open">
	<g>
		<path d="M356.9,206.2c-41.8,10.8-57-3.1-51.2-27.6c5.4-23.4,26.2-38.6,62.8-48.1c40.3-10.4,57.2,1.9,51.2,27.4
			C414.5,180.2,394.6,196.4,356.9,206.2z M401.1,161.5c4-17.3-7.3-22.7-35.1-15.5c-25.3,6.6-38.7,16.2-41.8,29.4
			c-4,17,7.1,22.6,35,15.4C384.7,184.2,398.1,174.3,401.1,161.5z"/>
		<path d="M504.4,97.9c22.5-5.8,37.4-1.9,32,20.6c-4,17.2-17.9,26.8-41.1,32.8c-14.6,3.8-24.6,6.4-44,11c-1.5,7-2.7,12.9-3.5,17.7
			l-19.7,5.1c2.7-10.5,5.2-20.7,8.7-36c3.6-15.2,6-25.9,8.1-35.8L504.4,97.9z M500.8,112c-8.4,2.2-30.7,7.9-40.4,10.7
			c-2.1,9-4.1,17.6-5.9,25.7c6.8-1.7,23.6-5.9,40.5-10.3c15.4-4,21.6-8.2,23.6-16.5C521.1,110.3,514.2,108.5,500.8,112z"/>
		<path d="M654,59.1c-0.4,1.6-1.1,4.2-1.6,6.5c-0.5,2.4-1.2,5.1-1.4,6.6c-22.8,5.7-56.3,14.3-75.1,19.2l-4,16.9
			c22.4-5.8,55.9-14.6,74-19.4c-0.6,3-2.2,8.9-2.8,12.1c-17.9,4.5-51.7,13.1-73.9,18.9c-1.4,5.8-2.7,11.8-4,16.9
			c18.9-4.9,53.3-13.9,75.2-19.8c-0.5,1.9-1.3,4.6-1.8,7.1c-0.6,2.4-1.3,5.2-1.5,7l-94.5,24.5c2.6-9.7,5.2-20.7,8.7-36
			c3.6-15.2,6.2-26.4,8.1-35.8L654,59.1z"/>
		<path d="M778.1,27c-2.3,9.1-5.2,20.7-8.7,35.9c-3.7,15.7-6.1,26.3-8.3,36l-17.6,4.5c-4.8-5.2-30-19.8-46.3-29.4
			c-3.2-1.9-6.6-4.1-9.3-6.1l-0.5,0.3c-0.9,5.4-2.2,11-3.4,16.8c-4,18-7.1,30.7-8,35.9l-18.2,4.7c2.2-9.6,5.1-20.7,8.6-36
			c3.6-15.2,6.2-26.3,8.2-35.9l20-5.2c3.5,4.1,31.2,20.7,45.7,29.3c2.9,1.6,5.8,3.4,7.9,5.2l0.6-0.4c0.8-5.2,1.8-10.4,2.9-14.7
			c3.8-16.2,7-30.5,7.9-36.2L778.1,27z"/>
	</g>
</g>
<g id="Stars">
	<path d="M984.6,144.1c0,3.8,0.1,102.8-50.4,108.9c13,0.5,47,10.3,48.5,100c0.2-22.1,4.2-96.9,50.5-101.2
		C1020.7,251.4,984.6,241.9,984.6,144.1z"/>
	<path d="M888.8,287.2c-0.1,17.3-3.3,76-39.4,79.7c10.1,0.4,37.9,8.6,38,84.7c0-2.7-0.1-80.9,39.6-85.7
		C916.8,365.5,890,357.8,888.8,287.2z"/>
	<path d="M928.9,178.5c0.1-10.6,2.6-46.5,31.1-48.4c-7.5-0.1-29.9-4.3-29.9-51.5c0,1.6,0.1,49.2-30.6,52.1
		C907.3,130.9,928,135.6,928.9,178.5z"/>
</g>
</svg>
