<?xml version="1.0" encoding="utf-8"?>
<!-- Generator: Adobe Illustrator 24.0.1, SVG Export Plug-In . SVG Version: 6.00 Build 0)  -->
<svg version="1.1" id="Layer_1" xmlns="http://www.w3.org/2000/svg" xmlns:xlink="http://www.w3.org/1999/xlink" x="0px" y="0px"
	 viewBox="0 0 1050 604" style="enable-background:new 0 0 1050 604;" xml:space="preserve">
<path d="M112.3,128c11.6-35.5,33.2-64.2,59.2-79c12.3-7,43.5-20.3,67,7c53.7,62.3-25.2,173.9-26.3,175.4l-7.2,9.9l19.9,14.3l7.2-9.9
	c3.8-5.2,91.3-128.7,25-205.7c-24.3-28-61.7-32.7-97.7-12.3c-31.2,17.7-56.9,51.5-70.4,92.7c-10.9,33.3-19.1,87.5,3.8,156.6
	c36.2,108.8,72.5,228.4,45.9,270.4c-6.1,9.7-15.4,14.9-29.3,16.6c-11.7,1.4-41,0.1-60.6-41.6C27.1,476,37.4,426.1,59.9,404.7
	l8.9-8.4l-16.9-17.8l-8.9,8.4C4.9,423.1,6.2,489.1,26.7,532.8c16.8,35.7,45,56.1,76.7,56.1c3,0,6-0.2,9-0.5
	c21.1-2.5,37-11.9,47-27.8c29.4-46.3,6.4-141.9-43.3-291.3C95.2,206.5,102.5,157.8,112.3,128L112.3,128z M984.6,144
	c0,0,1.2,109.3-55.3,109.3c0,0,53.5-11.6,53.5,105.8c0,0-4.1-107.5,54.7-107.5C1037.5,251.5,984.6,262.5,984.6,144z M887.4,451.6
	c0,0-0.9-86,43.5-86c0,0-42.1,9.1-42.1-83.2c0,0,3.2,84.6-43,84.6C845.7,367,887.4,358.3,887.4,451.6L887.4,451.6z M930,78.5
	c0,0,0.7,52.3-33.7,52.3c0,0,32.6-5.6,32.6,50.6c0,0-2.5-51.4,33.4-51.4C962.3,129.9,930,135.2,930,78.5z M343.1,138.7
	c6.5-1.8,12.7-2.5,18.5-2.1s10.8,1.7,15.1,3.9c4.3,2.2,7.7,5.3,10.1,9.1c2.5,3.8,3.7,8.3,3.7,13.5s-1.2,10.3-3.7,15.5
	s-5.9,10.1-10.1,14.6c-4.3,4.6-9.3,8.6-15.1,12.1c-5.8,3.5-11.9,6.1-18.5,7.9c-6.5,1.8-12.7,2.5-18.4,2.1c-5.7-0.4-10.8-1.7-15-3.9
	c-4.3-2.2-7.7-5.3-10.1-9.2c-2.5-3.9-3.7-8.4-3.7-13.5s1.2-10.3,3.7-15.5s5.9-10,10.1-14.6c4.3-4.5,9.3-8.6,15-12.1
	C330.4,143.1,336.6,140.5,343.1,138.7z M343.1,203.7c5.1-1.4,9.9-3.4,14.4-6.2c4.4-2.7,8.3-5.8,11.6-9.2c3.3-3.4,5.8-7.1,7.7-10.9
	c1.8-3.9,2.8-7.6,2.8-11.3s-0.9-6.9-2.8-9.8c-1.8-2.8-4.4-5.1-7.7-6.7c-3.3-1.7-7.1-2.6-11.6-3c-4.4-0.3-9.2,0.2-14.4,1.6
	c-5.1,1.4-9.9,3.4-14.3,6.2c-4.4,2.7-8.2,5.8-11.5,9.2s-5.8,7-7.7,10.9c-1.8,3.8-2.8,7.6-2.8,11.3s0.9,7,2.8,9.8
	c1.8,2.9,4.4,5.1,7.7,6.8c3.3,1.7,7.1,2.6,11.5,3C333.2,205.6,337.9,205.1,343.1,203.7L343.1,203.7z M473.2,105.9
	c3.8-1,7.4-1.3,10.7-0.9c3.3,0.4,6.2,1.4,8.7,3s4.4,3.7,5.9,6.4c1.4,2.7,2.1,5.7,2.1,9.1s-0.7,6.8-2.1,10.2s-3.4,6.6-5.9,9.5
	c-2.5,3-5.4,5.5-8.7,7.7c-3.3,2.2-6.9,3.8-10.7,4.8l-41,11.1v9.9l20-5.4v10l-49.9,13.5v-10l20-5.4v-49.8l-20,5.4v-10L473.2,105.9z
	 M472.7,145.9c2.4-0.7,4.7-1.7,6.8-3c2.1-1.4,4-2.9,5.5-4.7c1.6-1.8,2.8-3.7,3.7-5.7c0.9-2.1,1.4-4.1,1.4-6.2c0-2.1-0.5-3.9-1.4-5.5
	s-2.2-2.8-3.7-3.7c-1.6-0.9-3.4-1.5-5.5-1.7s-4.4,0-6.8,0.6l-40.5,11v29.9L472.7,145.9L472.7,145.9z M602.3,81l-59.8,16.2v19.9
	l49.9-13.5v10l-49.9,13.5V147l59.8-16.2v-9.9l9.9-2.7v19.9L512.5,165v-10l20-5.4V99.9l-20,5.4v-10l99.6-26.9v19.9l-9.9,2.7V81H602.3
	z M721.4,48.9l-20,5.4v-10l49.9-13.5v10l-20,5.4V106l-10,2.7L661.5,65v49.8l20-5.4v10l-49.9,13.5v-10l20-5.4V67.7l-20,5.4v-10
	l34-9.2l55.8,40.7L721.4,48.9L721.4,48.9z"/>
<path d="M112.3,128c11.6-35.5,33.2-64.2,59.2-79c12.3-7,43.5-20.3,67,7c53.7,62.3-25.2,173.9-26.3,175.4l-7.2,9.9l19.9,14.3l7.2-9.9
	c3.8-5.2,91.3-128.7,25-205.7c-24.3-28-61.7-32.7-97.7-12.3c-31.2,17.7-56.9,51.5-70.4,92.7c-10.9,33.3-19.1,87.5,3.8,156.6
	c36.2,108.8,72.5,228.4,45.9,270.4c-6.1,9.7-15.4,14.9-29.3,16.6c-11.7,1.4-41,0.1-60.6-41.6C27.1,476,37.4,426.1,59.9,404.7
	l8.9-8.4l-16.9-17.8l-8.9,8.4C4.9,423.1,6.2,489.1,26.7,532.8c16.8,35.7,45,56.1,76.7,56.1c3,0,6-0.2,9-0.5
	c21.1-2.5,37-11.9,47-27.8c29.4-46.3,6.4-141.9-43.3-291.3C95.2,206.5,102.5,157.8,112.3,128L112.3,128z"/>
<path d="M816.4,305.4c31.9-10.4,41-33.3,41.1-55.9c-0.1,0.1-0.1,0.2-0.2,0.3v-1.3c0-35.3-30.9-60.1-31.8-86.4
	c3.8-14.8,6.9-30.8,9.5-48.4l-21.4,1.4c-5,16.7-7.2,31.2-7.2,43.8c0,10.7,1.6,20.4,3.8,29.3c-6,16.7-12,32.4-16.1,44.2
	c-13.9,39.8-24.9,59.3-31.8,61.1c-3.2,0.8-5-0.6-5-5.3c0-11,14.5-40.9,14.5-61.1c0-18-13.6-27.1-24-35.1c5-17.7,7.6-33.5,8.8-54.6
	l-23.6-0.9c-5,17.7-7.2,30.9-7.2,40.9c0,11,2.5,18.9,5.7,25c-3.2,15.9-7.2,32.7-12.9,49.3c-12,35.2-27.4,58.7-46,63.5
	c-14.5,3.7-19.9-10-19.9-28.9v-4.7c37.2-15.5,56.1-50.7,56.1-73c0-14.5-7.9-23.8-23.6-19.8c-29,7.4-50.1,48.1-56.7,86.1
	c-13.9,39.8-24.9,59.3-31.8,61.1c-3.2,0.8-5-0.6-5-5.3c0-11,14.5-40.9,14.5-61.1c0-18-13.6-27.1-24-35.1c5-17.7,7.6-33.5,8.8-54.6
	l-23.6-0.9c-5,17.7-7.2,30.9-7.2,40.9c0,11,2.5,18.9,5.7,25c-3.2,15.9-7.2,32.8-12.9,49.3c-12,35.2-27.4,58.7-46,63.5
	c-14.5,3.7-19.9-10-19.9-28.9v-4.7c37.2-15.5,56.1-50.7,56.1-73c0-14.5-7.9-23.8-23.6-19.8c-29,7.4-50.1,48.1-56.7,86.1
	c-13.9,38.2-30.9,59.6-46,63.5c-16.1,4.1-22.4-10.6-22.4-30.5c0-29.9,14.2-71.1,30.6-75.3c4.4-1.1,6.3,2.8,6.3,9.4
	c0,9.5-4.1,24.4-10.4,36.7l20.2,5.5c6.3-15.2,10.4-31.7,10.4-45.2c0-18.3-7.2-30.9-25.2-26.3c-28.8,7.4-48.8,47.7-55,85.7h-0.1
	c-13.9,39.8-24.9,59.3-31.8,61.1c-3.2,0.8-5-0.6-5-5.3c0-11,14.5-40.9,14.5-61.1c0-18-13.6-27.1-24-35.1c5-17.7,7.6-33.5,8.8-54.6
	l-23.6-0.9c-5,17.7-7.2,30.9-7.2,40.9c0,11,2.5,18.9,5.7,25c-3.2,15.9-7.2,32.8-12.9,49.3c-5.7,16.3-13.2,26.1-21.4,32
	c4.1-14.9,7.9-32,7.9-47.4c0-28.4-11-49.8-32.1-44.4c-22.4,5.8-35.6,30.3-39.1,55.4l-11.3,0.1c-6.3,20.2-9.8,41-9.8,58.6
	c0,28.7,9.5,48.9,31.2,43.4c20.2-5.2,36.2-22.9,47-48.6c15.1-9.2,29.3-26.1,36.6-46.9l12.6-36.6c3.5,5.7,6.3,12.2,6.3,21.7
	c0,16.1-14.5,42.2-14.5,62.7c0,14.2,5.7,22.2,20.5,18.4c19.2-4.9,30.2-27.9,40.3-55.6c1.8,25.7,12.7,43.6,35,37.9
	c24.3-6.2,43.8-37.1,56.2-64.1c1.3,27,12.8,46.4,38.6,39.7c30.9-7.9,46.6-44.8,62.4-90.1l12.6-36.6c3.5,5.7,6.3,12.2,6.3,21.7
	c0,16.1-14.5,42.2-14.5,62.7c0,14.2,5.7,22.2,20.5,18.4c19-4.9,30-27.6,40-54.9c2.1,25.2,13.7,42.7,38.4,36.3
	c30.9-7.9,46.6-44.8,62.4-90.1l12.6-36.6c3.5,5.7,6.3,12.2,6.3,21.7c0,16.1-14.5,42.2-14.5,62.7c0,14.2,5.7,22.2,20.5,18.4
	c25.8-6.6,36.9-46,50.7-85.5c3.5-10.3,7.6-21.2,11-32.4c6.9,20.6,16.1,37.2,16.1,56.7c0,11.3-4.4,18.2-12.3,20.2
	c-6,1.5-9.8,0-13.9-5.9L785.2,292C789.6,303.8,801.6,309.2,816.4,305.4z M682.4,209c3.2-0.8,5,1.9,5,6.6c0,11.7-10.4,36.1-34,53.8
	C657.2,242.3,669.5,212.4,682.4,209z M516.6,251.6c3.2-0.8,5,1.9,5,6.6c0,11.7-10.4,36.1-34,53.8C491.4,284.9,503.7,255,516.6,251.6
	z M227,432.3c-0.9,0.6-1.6,0.7-2.5,1c-7.9,2-12.9-9.6-12.9-28.2c0-4.1,0.3-8.9,0.9-13.8c4.4,14,12.9,24.4,26.2,26.1
	C234.9,424.6,231.1,430,227,432.3z M245.3,402.4L245.3,402.4c-14.2-0.5-19.2-15.5-19.2-32.6c0-20.2,7.3-42.5,16.4-46.8
	c0.6-0.2,1.6-0.7,2.2-0.9c8.8-2.3,12.3,7.6,12.3,21.7C256.9,360.6,252.2,383.9,245.3,402.4z"/>
</svg>
