<svg xmlns="http://www.w3.org/2000/svg" viewBox="0 0 264.7 80.8"><linearGradient id="a" gradientUnits="userSpaceOnUse" x1="90.516" y1="39.666" x2="90.516" y2="9.687"><stop offset="0" stop-color="#ad69ff"/><stop offset=".28" stop-color="#af66fc"/><stop offset=".499" stop-color="#b65cf4"/><stop offset=".697" stop-color="#c24ce6"/><stop offset=".881" stop-color="#d334d2"/><stop offset="1" stop-color="#e121c1"/></linearGradient><path d="M100.7 21.7v.2l-3.6 3.6v6.8l3.6-3.6v.3l-7 7h.8l6.2-6.2v.4L94.9 36h.8l5-5v.4L96.1 36h.8l3.8-3.8v.4L97.3 36h.8l2.6-2.6v.4L98.5 36h.8l1.4-1.4v.4l-1 1h1l-3.6 3.6H80.3V13.3l3.6-3.6v1l1-1h.4l-1.4 1.4v.8l2.2-2.2h.4l-2.6 2.6v.8l3.4-3.4h.4l-3.8 3.7v.8l4.6-4.6h.4l-5 5v.8l5.8-5.8h.4l-6.2 6.2v.8l7-7h.4l-3.6 3.6h7v8.2l3.6-3.6v.4l-7 7h.8l6.2-6.2v.4l-5.8 5.8h.8l5-5v.4l-4.6 4.6h.8l3.8-3.8v.2h.2l-3.6 3.6h.8l3.6-3.6h.4l-3.6 3.6h.8l3.6-3.6.2.1zm-16.8-3.8l3.6-3.6v-.8l-3.6 3.6v.8zm0 1.2l3.6-3.6v-.8l-3.6 3.6v.8zm0 1.2l3.6-3.6v-.8l-3.6 3.6v.8zm0 8.4l7-7h.2v-4.8h-3.6v.2l-3.6 3.6v.8l3.6-3.6v.4l-3.6 3.6v.8l3.6-3.6v.4l-3.6 3.6v.8l3.6-3.6v.4l-3.6 3.6v.8l3.6-3.6v.2h.2l-3.8 3.7v.8l4.6-4.6h.4l-5 5v.8l5.8-5.8h.4l-6.2 6.2v.9zm0 1.2l3.6-3.6v-.8L83.9 29v.9zm0 1.1l3.6-3.6v-.8l-3.6 3.6v.8zm0 1.3l3.6-3.6v-.8l-3.6 3.6v.8zm5.8 3.7l3.6-3.6h.2v-3.6h-6v.2l-3.6 3.6v.8l3.6-3.6v.4l-3.6 3.6v.8l3.6-3.6v.4L83.9 35v.8l3.6-3.6v.2h.2L84.1 36h.8l3.6-3.6h.4L85.3 36h.8l3.6-3.6h.4L86.5 36h.8l3.6-3.6h.4L87.7 36h.8l3.6-3.6h.4L88.9 36h.8zm-2-10.7h.8l3.6-3.6h-.8l-3.6 3.6zm.8-12l3.6-3.6h.4l-3.6 3.6h-.4zm.4 12h.8l3.6-3.6h-.8l-3.6 3.6zm.8-12l3.6-3.6h.4l-3.6 3.6h-.4zm4.8 8.4h-.8l-3.6 3.6h.8l3.6-3.6zM90.9 36l3.6-3.6h-.8L90.1 36h.8zm0-22.7l3.6-3.6h.4l-3.6 3.6h-.4zm.4 22.7h.8l3.6-3.6h-.8L91.3 36zm.8-22.7l3.6-3.6h.4l-3.6 3.6h-.4zM93.3 36l3.6-3.6h-.8L92.5 36h.8zm0-22.7l3.6-3.6h.4l-3.6 3.6h-.4zm1.2 0l3.6-3.6h.2v.2l-3.6 3.6v-.2h-.2zm3.8-2.2l-3.6 3.6v-.4l3.6-3.6v.4zm0 1.2l-3.6 3.6v-.4l3.6-3.6v.4zm0 1.1L94.7 17v-.4l3.6-3.6v.4zm0 1.2l-3.6 3.6v-.4l3.6-3.6v.4zm0 1.2l-3.6 3.6V19l3.6-3.6v.4zm0 1.3l-3.6 3.6v-.4l3.6-3.6v.4zm-1.2 9.2l3.6-3.6v.4l-3.6 3.6v-.4zm0 1.2l3.6-3.6v.4l-3.6 3.6v-.4zm0 1.2l3.6-3.6v.4L97.1 29v-.3zm0 1.2l3.6-3.6v.4l-3.6 3.6v-.4zm0 1.1l3.6-3.6v.4l-3.6 3.6V31z" fill="url(#a)"/><linearGradient id="b" gradientUnits="userSpaceOnUse" x1="114.747" y1="39.666" x2="114.747" y2="9.687"><stop offset="0" stop-color="#ad69ff"/><stop offset=".28" stop-color="#af66fc"/><stop offset=".499" stop-color="#b65cf4"/><stop offset=".697" stop-color="#c24ce6"/><stop offset=".881" stop-color="#d334d2"/><stop offset="1" stop-color="#e121c1"/></linearGradient><path d="M121.3 13.4v.8l3.6-3.6v.4l-3.6 3.6v.8l3.6-3.6v.4l-3.6 3.6v.8l3.6-3.6v.4l-3.6 3.6v.8l3.6-3.6v.4l-3.6 3.6v.8l3.6-3.6v.4l-3.6 3.6v.8l3.6-3.6v.4l-3.6 3.6v.8l3.6-3.6v.4l-8.3 8.3.4.4 7.9-7.9v.4l-7.7 7.7.5.5 7.2-7.3v.4l-7.1 7.1.4.4 6.7-6.7v.4l-3.4 3.4h.8l2.6-2.6v.4l-2.2 2.2h.8l1.4-1.4v.4l-1 1h1l-1.8 1.8.1.1-3 3 .5.5 3-3 .2.2-3 3 .4.4 3-3 .2.2-3.1 3.1v.8l3.5-3.5.1.1-3.6 3.6v.8l3.6-3.6v.4l-3.6 3.6v.8L125 31v.4l-3.6 3.6v.8l3.6-3.6v.4l-3.4 3.4h.8l2.6-2.6v.4l-2.2 2.2h.8l1.4-1.4v.4l-1 1h1l-3.6 3.6h-3.6v-4.8l-6-6v.2l-3.6 3.6v.8l3.6-3.6v.4l-3.6 3.6v.8l3.6-3.6v.4l-3.6 3.6v.8l3.6-3.6v.4l-3.4 3.4h.8l2.6-2.6v.4l-2.2 2.2h.8l1.4-1.4v.4l-1 1h1l-3.6 3.6h-3.6V13.3l3.6-3.6v1l1-1h.4l-1.4 1.4v.8l2.2-2.2h.4l-2.6 2.6v.8l3.4-3.4h.4l-3.8 3.7v.8l4.6-4.6h.4l-5 5v.8l5.8-5.8h.4l-6.2 6.2v.8l7-7h.4l-3.6 3.6h.8l3.6-3.6h.4l-3.6 3.6h.8l3.6-3.6h.4l-3.6 3.6h.8l3.6-3.6h.4l-3.6 3.6h.8l3.6-3.6h.4l-3.6 3.6h.8l3.6-3.6h.4l-3.6 3.6h.8l3.6-3.6h.4l-3.6 3.6h.8l3.6-3.6h.4l-3.6 3.6h.8l3.6-3.6h.2v.2l-3.7 3.6zm-13.2 4.5l3.6-3.6v-.8l-3.6 3.6v.8zm0 1.2l3.6-3.6v-.8l-3.6 3.6v.8zm0 1.2l3.6-3.6v-.8l-3.6 3.6v.8zm5.9 5l3.6-3.6h.2v-4.8h-6v.2l-3.6 3.6v.8l3.6-3.6v.4l-3.6 3.6v.8l3.6-3.6v.4l-3.6 3.6v.8l3.6-3.6v.4l-3.6 3.6v.8l3.6-3.6v.2h.2l-3.8 3.7v.8l4.6-4.6h.4l-5 5v.8l5.8-5.8h.4l-6.2 6.2v.8l7-7h.4l-3.6 3.6h.8l3.6-3.6h.4l-3.6 3.6h.8zm-2.3.1l-3.6 3.6v.8l3.6-3.6v-.8zm0 1.2l-3.6 3.6v.8l3.6-3.6v-.8zm0 1.2l-3.6 3.6v.8l3.6-3.6v-.8zm3.4-2.5l3.6-3.6h-.8l-3.6 3.6h.8zm.3 0l.5.5 4.1-4.1h-.8l-3.8 3.6zm5.7-3.6h-.8L116 26l.4.4 4.7-4.7zm-2.7 6.6l.5.5 3-3-.4-.4-3.1 2.9zm3.7-2.3l-3 3 .4.4 3-3-.4-.4zm.5.5l-3 3 .4.4 3-3-.4-.4z" fill="url(#b)"/><linearGradient id="c" gradientUnits="userSpaceOnUse" x1="138.98" y1="39.666" x2="138.98" y2="9.687"><stop offset="0" stop-color="#ad69ff"/><stop offset=".28" stop-color="#af66fc"/><stop offset=".499" stop-color="#b65cf4"/><stop offset=".697" stop-color="#c24ce6"/><stop offset=".881" stop-color="#d334d2"/><stop offset="1" stop-color="#e121c1"/></linearGradient><path d="M145.6 13.4v.8l3.6-3.6v.4l-3.6 3.6v.8l3.6-3.6v.4l-3.6 3.6v.8l3.6-3.6v.4l-3.6 3.6v.8l3.6-3.6v.4l-3.6 3.6v.8l3.6-3.6v.4l-3.6 3.6v.8l3.6-3.6v.4l-3.6 3.6v.8l3.6-3.6v.4l-7 7h.8l6.2-6.2v.4l-5.8 5.8h.8l5-5v.4l-4.6 4.6h.8l3.8-3.8v.4l-3.6 3.6v.8l3.6-3.6v.4l-3.6 3.6v.8l3.6-3.6v.4l-3.6 3.6v.8l3.6-3.6v.4l-3.6 3.6v.8l3.6-3.6v.4l-3.6 3.6v.8l3.6-3.6v.4l-3.6 3.6v.8l3.6-3.6v.4l-3.6 3.6v.8l3.6-3.6v.4l-3.6 3.6v.8l3.6-3.6v.4l-3.6 3.6v.8l3.6-3.6v.4l-3.4 3.4h.8l2.6-2.6v.4L147 36h.8l1.4-1.4v.4l-1 1h1l-3.6 3.6H142V28.8h-6v.2l-3.6 3.6v.8l3.6-3.6v.4l-3.6 3.6v.8L136 31v.4l-3.6 3.6v.8l3.6-3.6v.4l-3.4 3.4h.8l2.6-2.6v.4l-2.2 2.2h.8l1.4-1.4v.4l-1 1h1l-3.6 3.6h-3.6V13.3l3.6-3.6v1l1-1h.4l-1.4 1.4v.8l2.2-2.2h.4l-2.6 2.6v.8l3.4-3.4h.4l-3.8 3.7v.8l4.6-4.6h.4l-5 5v.8l5.8-5.8h.4l-6.2 6.2v.8l7-7h.4l-3.6 3.6h.8l3.6-3.6h.4l-3.6 3.6h.8l3.6-3.6h.4l-3.6 3.6h.8l3.6-3.6h.4l-3.6 3.6h.8l3.6-3.6h.4l-3.6 3.6h.8l3.6-3.6h.4l-3.6 3.6h.8l3.6-3.6h.4l-3.6 3.6h.8l3.6-3.6h.4l-3.6 3.6h.8l3.6-3.6h.2v.2l-3.6 3.6zm-13.2 4.5l3.6-3.6v-.8l-3.6 3.6v.8zm0 1.2l3.6-3.6v-.8l-3.6 3.6v.8zm0 1.2l3.6-3.6v-.8l-3.6 3.6v.8zm5.8 5l3.6-3.6h.2v-4.8h-6v.2l-3.6 3.6v.8l3.6-3.6v.4l-3.6 3.6v.8l3.6-3.6v.4l-3.6 3.6v.8l3.6-3.6v.4l-3.6 3.6v.8l3.6-3.6v.2h.2l-3.8 3.7v.8l4.6-4.6h.4l-5 5v.8l5.8-5.8h.4l-6.2 6.2v.8l7-7h.4l-3.6 3.6h.8l3.6-3.6h.4l-3.6 3.6h.8zm-2.2.1l-3.6 3.6v.8l3.6-3.6v-.8zm0 1.2l-3.6 3.6v.8l3.6-3.6v-.8zm0 1.2l-3.6 3.6v.8l3.6-3.6v-.8zm3.4-2.5l3.6-3.6h-.8l-3.6 3.6h.8zm1.2 0l3.6-3.6h-.8l-3.6 3.6h.8zm4.8-3.6h-.8l-3.6 3.6h.8l3.6-3.6z" fill="url(#c)"/><linearGradient id="d" gradientUnits="userSpaceOnUse" x1="156.612" y1="39.666" x2="156.612" y2="9.687"><stop offset="0" stop-color="#ad69ff"/><stop offset=".28" stop-color="#af66fc"/><stop offset=".499" stop-color="#b65cf4"/><stop offset=".697" stop-color="#c24ce6"/><stop offset=".881" stop-color="#d334d2"/><stop offset="1" stop-color="#e121c1"/></linearGradient><path d="M156.6 13.4v.8l3.6-3.6v.4l-3.6 3.6v.8l3.6-3.6v.4l-3.6 3.6v.8l3.6-3.6v.4l-3.6 3.6v.8l3.6-3.6v.4l-3.6 3.6v.8l3.6-3.6v.4l-3.6 3.6v.8l3.6-3.6v.4l-3.6 3.6v.8l3.6-3.6v.4l-3.6 3.6v.8l3.6-3.6v.4l-3.6 3.6v.8l3.6-3.6v.4l-3.6 3.6v.8l3.6-3.6v.4l-3.6 3.6v.8l3.6-3.6v.4l-3.6 3.6v.8l3.6-3.6v.4l-3.6 3.6v.8l3.6-3.6v.4l-3.6 3.6v.8l3.6-3.6v.4l-3.6 3.6v.8l3.6-3.6v.4l-3.6 3.6v.8l3.6-3.6v.4l-3.6 3.6v.8l3.6-3.6v.4l-3.6 3.6v.8l3.6-3.6v.4l-3.6 3.6v.8l3.6-3.6v.4l-3.4 3.4h.8l2.6-2.6v.4L158 36h.8l1.4-1.4v.4l-1 1h1l-3.6 3.6H153V13.3l3.6-3.6v1l1-1h.4l-1.4 1.4v.8l2.2-2.2h.4l-2.6 2.6v.8l3.4-3.4h.2v.2l-3.6 3.5z" fill="url(#d)"/><linearGradient id="e" gradientUnits="userSpaceOnUse" x1="174.245" y1="39.666" x2="174.245" y2="9.687"><stop offset="0" stop-color="#ad69ff"/><stop offset=".28" stop-color="#af66fc"/><stop offset=".499" stop-color="#b65cf4"/><stop offset=".697" stop-color="#c24ce6"/><stop offset=".881" stop-color="#d334d2"/><stop offset="1" stop-color="#e121c1"/></linearGradient><path d="M180.8 13.4v.8l3.6-3.6v.4l-3.6 3.6v.8l3.6-3.6v.4l-3.6 3.6v.8l3.6-3.6v.4l-3.6 3.6v.8l3.6-3.6v.4l-3.6 3.6v.8l3.6-3.6v.4l-6.5 6.5.5.5 6-6.1v.4l-5.9 5.9.4.4 5.5-5.5v.4l-5.3 5.3.4.4 4.9-4.9v.4l-4.7 4.7.5.5 4.2-4.3v.4l-4.1 4.1.4.4 3.7-3.7v.4l-3.6 3.6v.8l3.6-3.6v.4l-3.6 3.6v.8l3.6-3.6v.4l-3.6 3.6v.8l3.6-3.6v.4l-3.6 3.6v.8l3.6-3.6v.4l-3.6 3.6v.6l3.6-3.6v.4l-3.6 3.6v.8l3.6-3.6v.4l-3.6 3.6v.8l3.6-3.6v.4l-3.6 3.6v.8l3.6-3.6v.4l-3.6 3.6v.8l3.6-3.6v.4L181 36h.8l2.6-2.6v.4l-2.2 2.2h.8l1.4-1.4v.4l-1 1h1l-3.6 3.6h-3.6V28.8l-6-6v.2l-3.6 3.6v.8l3.6-3.6v.4l-3.6 3.6v.8l3.6-3.6v.4l-3.6 3.6v.8l3.6-3.6v.4l-3.6 3.6v.8l3.6-3.6v.4l-3.6 3.6v.8l3.6-3.6v.4l-3.6 3.6v.8l3.6-3.6v.4l-3.6 3.6v.8l3.6-3.6v.4l-3.6 3.6v.8l3.6-3.6v.4l-3.4 3.4h.8l2.6-2.6v.4L169 36h.8l1.4-1.4v.4l-1 1h1l-3.6 3.6H164V13.3l3.6-3.6v1l1-1h.4l-1.4 1.4v.8l2.2-2.2h.4l-2.6 2.6v.8l3.4-3.4h.2l.1.1-3.7 3.7v.8l4.1-4.1.2.2-4.3 4.3v.8l4.7-4.7.2.2-4.9 4.9v.8l5.3-5.3.2.2-5.5 5.5v.8l5.9-6 .2.2-6.1 6.1v.8l6.5-6.5.2.2-3 3 .4.4 3-3 .2.2-3 3 .4.4 3-3 .2.2-3 3 .4.4 3-3 .2.2-3 3 .5.5 3-3 .2.2-3 3 .4.4 3-3 .1.1v-2.4l3.6-3.6v1l1-1h.4l-1.4 1.4v.8l2.2-2.2h.4l-2.6 2.6v.8l3.4-3.4h.2v.2l-3.7 3.5zm-9.6 2.4l-3.6 3.6v.8l3.6-3.6v-.8zm0 1.3l-3.6 3.6v.8l3.6-3.6v-.8zm0 1.2l-3.6 3.6v.8l3.6-3.6v-.8zm0 1.1l-3.6 3.6v.8l3.6-3.6v-.8zm0 1.2l-3.6 3.6v.8l3.6-3.6v-.8zm0 1.2l-3.6 3.6v.8l3.6-3.6v-.8zm3.1-3.1l.5.5 3-3-.4-.4-3.1 2.9zm3.6-2.4l-3 3 .4.4 3-3-.4-.4zm.7.7l-3 3 .4.4 3-3-.4-.4zm.5.6l-3 3 .5.5 3-3-.5-.5zm.6.5l-3 3 .4.4 3-3-.4-.4zm1.1 1.1l-.4-.4-3 3 .5.5 2.9-3.1z" fill="url(#e)"/><linearGradient id="f" gradientUnits="userSpaceOnUse" x1="126.389" y1="41.341" x2="126.389" y2="71.019"><stop offset="0" stop-color="#ad69ff"/><stop offset=".007" stop-color="#ac68ff"/><stop offset=".487" stop-color="#5f42de"/><stop offset=".83" stop-color="#2f2ac9"/><stop offset="1" stop-color="#1d21c1"/></linearGradient><path d="M132.9 45.1v.8l3.5-3.5v.4l-3.5 3.5v.8l3.5-3.5v.4l-3.5 3.5v.8l3.5-3.6v.4l-3.5 3.6v.8l3.5-3.6v.4l-3.5 3.6v.8l3.5-3.5v.4l-3.5 3.5v.8l3.5-3.5v.4l-3.5 3.5v.7l3.5-3.5v.4l-6.9 6.9h.8l6.1-6.1v.3l-5.7 5.8h.8l4.9-4.9v.4l-4.5 4.6h.8l3.8-3.8v.4L133 57v.8l3.5-3.5v.4l-3.5 3.5v.8l3.5-3.5v.4l-3.5 3.5v.8l3.5-3.6v.4l-3.5 3.6v.8l3.5-3.6v.4l-3.5 3.6v.8l3.5-3.5v.4L133 63v.8l3.5-3.5v.4l-3.5 3.5v.8l3.5-3.5v.4l-3.5 3.5v.8l3.5-3.6v.4l-3.5 3.6v.8l3.5-3.6v.4l-3.4 3.4h.8l2.6-2.6v.4l-2.2 2.2h.8l1.4-1.4v.4l-1 1h1l-3.5 3.6h-3.6V60.3h-5.9v.2L120 64v.8l3.5-3.5v.4l-3.5 3.5v.8l3.5-3.6v.4l-3.5 3.6v.8l3.5-3.6v.4l-3.3 3.4h.8l2.6-2.6v.4l-2.2 2.2h.8l1.4-1.4v.4l-1 1h1l-3.5 3.6h-3.5V44.9l3.5-3.5v1l1-1h.4l-1.4 1.4v.8l2.2-2.2h.4l-2.6 2.6v.8l3.4-3.3h.4l-3.8 3.7v.8l4.6-4.5h.4l-4.9 4.9v.8l5.8-5.7h.4l-6.1 6.1v.8l6.9-6.9h.4l-3.5 3.5h.8l3.5-3.5h.4l-3.5 3.5h.8l3.5-3.5h.4l-3.5 3.5h.8l3.6-3.5h.4l-3.6 3.5h.8l3.6-3.5h.4l-3.6 3.5h.8l3.5-3.5h.4l-3.5 3.5h.8l3.5-3.5h.4l-3.5 3.5h.8l3.5-3.5h.4l-3.5 3.5h.8l3.6-3.5h.2v.2l-4.2 3.4zm-13 4.4l3.5-3.6v-.8l-3.5 3.6v.8zm0 1.1l3.5-3.5v-.8l-3.5 3.6v.7zm0 1.2l3.5-3.5v-.8l-3.5 3.5v.8zm5.7 5l3.5-3.5h.2v-4.8h-5.9v.2l-3.5 3.5v.8l3.5-3.5v.4l-3.5 3.5v.8l3.5-3.6v.4l-3.5 3.6v.8l3.5-3.6v.4l-3.5 3.6v.8l3.5-3.5v.2h.2l-3.8 3.7v.8l4.6-4.5h.4l-4.9 4.9v.8l5.8-5.7h.4l-6.1 6.1v.8l6.9-6.9h.4l-3.5 3.5h.8l3.5-3.5h.4l-3.5 3.5h.6zm-2.2.1l-3.5 3.6v.8l3.5-3.6v-.8zm0 1.2l-3.5 3.6v.8l3.5-3.5v-.9zm0 1.2l-3.5 3.5v.8l3.5-3.5v-.8zm3.4-2.5l3.6-3.5h-.8l-3.5 3.5h.7zm1.2 0l3.6-3.5h-.8l-3.6 3.5h.8zm4.7-3.6h-.8l-3.6 3.5h.8l3.6-3.5z" fill="url(#f)"/><linearGradient id="g" gradientUnits="userSpaceOnUse" x1="150.377" y1="41.259" x2="150.377" y2="71.019"><stop offset="0" stop-color="#ad69ff"/><stop offset=".007" stop-color="#ac68ff"/><stop offset=".487" stop-color="#5f42de"/><stop offset=".83" stop-color="#2f2ac9"/><stop offset="1" stop-color="#1d21c1"/></linearGradient><path d="M156.9 45v.8l3.5-3.5v.4l-3.5 3.5v.8l3.5-3.5v.4l-3.5 3.5v.8l3.5-3.5v.3l-3.5 3.5v.8l3.5-3.6v.4l-3.5 3.6v.8l3.5-3.6v.4l-3.5 3.6v.8l3.5-3.5v.4l-3.5 3.5v.8l3.5-3.5v.4l-3.5 3.5v.8l3.5-3.5v.4l-3.5 3.5v.8l3.5-3.6v.4l-3.5 3.6v.8l3.5-3.6v.4l-11.1 11.2.4.4 10.7-10.8v.4l-10.6 10.6.4.4 10.1-10.2v.4l-10 10 .5.5 9.5-9.6v.4l-9.4 9.4.4.4 8.9-9v.2l-8.8 8.8.5.5 8.3-8.4v.4L148.7 71l-8.4-8.4V44.8l3.5-3.5v1l1-1h.4l-1.4 1.4v.8l2.2-2.2h.4l-2.6 2.6v.8l3.4-3.4h.2v.2l-3.5 3.6v.8l3.5-3.5v.4l-3.5 3.5v.7l3.5-3.5v.4l-3.5 3.5v.8l3.5-3.5v.3l-3.5 3.5v.8l3.5-3.6v.4l-3.5 3.6v.8l3.5-3.6v.4l-3.5 3.6v.8l3.5-3.5v.4l-3.5 3.5v.8l3.5-3.5v.4l-3.5 3.5v.8l3.5-3.5v.4l-3.5 3.5v.8l3.5-3.6v.4l-3.5 3.6v.8l3.5-3.6v.4l-3.5 3.6v.8l3.5-3.5v.4l-3.5 3.5v.8l3.5-3.5v.4l-3.5 3.4.4.4 3.1-3v.2l.1.1-3 2.9.5.5 2.9-3 .2.2-3 2.9.5.5 2.9-3 .2.2-3 2.9.4.4 2.9-3 .2.2-3 2.9.5.5 2.9-3 .2.2-3 2.9.4.4 2.9-3 .2.2-3 2.9.4.4 3-3 .2.2-3 2.9.4.4 3-3 .2.2-3 2.9.5.5 4.2-4.2V44.8l3.6-3.5v1l1-1h.4l-1.4 1.4v.8l2.2-2.2h.4l-2.6 2.6v.8l3.4-3.4h.2v.2l-3.5 3.5z" fill="url(#g)"/><linearGradient id="h" gradientUnits="userSpaceOnUse" x1="174.364" y1="41.341" x2="174.364" y2="71.019"><stop offset="0" stop-color="#ad69ff"/><stop offset=".007" stop-color="#ac68ff"/><stop offset=".487" stop-color="#5f42de"/><stop offset=".83" stop-color="#2f2ac9"/><stop offset="1" stop-color="#1d21c1"/></linearGradient><path d="M167.8 52.2v.8l3.5-3.5v.4l-3.5 3.5v.8l3.5-3.6v.4l-3.5 3.6v.8l3.5-3.6v.4l-3.5 3.6v.8l3.5-3.5v.2h.2l-3.8 3.7v.8l4.6-4.5h.4l-4.9 4.9v.8l5.8-5.7h.4l-6.1 6.1v.8l6.9-6.9h.4l-3.5 3.5h.8l3.5-3.5h.4l-3.5 3.5h.8l3.5-3.5h.4l-3.5 3.5h.8l3.6-3.5h.4l-3.6 3.5h.8l3.6-3.5h.4l-3.6 3.5h.8l3.5-3.5h.2v.2l-3.4 3.4h.8l2.6-2.6v.4l-2.2 2.2h.8l1.4-1.4v.4l-1 1h1l-3.6 3.5h-5.9v.2l-3.5 3.5v.8l3.5-3.5v.4l-3.5 3.5v.8l3.5-3.6v.4l-3.5 3.6v.8l3.5-3.6v.2h.2l-3.5 3.5h.8l3.6-3.5h.4l-3.6 3.5h.8l3.6-3.5h.4l-3.6 3.5h.8l3.5-3.5h.4l-3.5 3.5h.8l3.5-3.5h.4l-3.5 3.5h.8l3.5-3.5h.4l-3.5 3.5h.8l3.6-3.5h.4l-3.6 3.5h.8l3.6-3.5h.4l-3.6 3.5h.8l3.5-3.5h.4l-3.5 3.5h.8l3.5-3.5h.4l-3.5 3.5h.8l3.5-3.5h.4l-3.5 3.5h.8l3.6-3.5h.2v.2l-3.4 3.4h.8l2.6-2.6v.4l-2.2 2.2h.8l1.4-1.4v.4l-1 1h1l-3.5 3.6h-16.6V44.9l3.5-3.5v1l1-1h.4l-1.4 1.4v.8l2.2-2.2h.4l-2.6 2.6v.8l3.4-3.3h.4l-3.8 3.7v.8l4.6-4.5h.4l-4.9 4.9v.8l5.8-5.7h.4l-6.1 6.1v.8l6.9-6.9h.4l-3.5 3.5h12.9l-3.5 3.5h-9.5v.2l-4.3 3.5zm0-2.7l3.5-3.6v-.8l-3.5 3.6v.8zm0 1.1l3.5-3.5v-.8l-3.5 3.6v.7zm0 1.2l3.5-3.5v-.8l-3.5 3.5v.8zm0 8.7v.8l3.5-3.6v-.8l-3.5 3.6zm3.6-2.4l-3.5 3.6v.8l3.5-3.5v-.9zm0 1.2l-3.5 3.5v.8l3.5-3.5v-.8zm1-14.4l3.5-3.5h.4l-3.5 3.5h-.4zm1.2 0l3.5-3.5h.4l-3.5 3.5h-.4zm1.2 0l3.6-3.5h.4l-3.6 3.5h-.4zm1.2 0l3.6-3.5h.4l-3.6 3.5h-.4zm1.1 0l3.5-3.5h.4l-3.5 3.5h-.4zm1.2 0l3.5-3.5h.4l-3.5 3.5h-.4zm1.2 0l3.5-3.5h.4l-3.5 3.5h-.4zm4.9-3.6v.2l-3.4 3.4h-.4l3.6-3.5h.2zm-2.5 3.6l2.6-2.6v.4l-2.2 2.2h-.4zm1.2 0l1.4-1.4v.4l-1 1h-.4z" fill="url(#h)"/><linearGradient id="i" gradientUnits="userSpaceOnUse" x1="96.911" y1="41.13" x2="96.911" y2="71.034"><stop offset="0" stop-color="#ad69ff"/><stop offset=".007" stop-color="#ac68ff"/><stop offset=".487" stop-color="#5f42de"/><stop offset=".83" stop-color="#2f2ac9"/><stop offset="1" stop-color="#1d21c1"/></linearGradient><path fill="url(#i)" d="M113.6 41.3v-.2h-.2l-3.4 3.4v-.8l2.6-2.6h-.4l-2.2 2.2v-.8l1.4-1.4h-.4l-1 1v-1l-3.6 3.6v15.4l-4.1 4.2-.5-.5 3-2.9-.2-.2-3 3-.4-.5 3-2.9-.2-.2-3 3-.4-.4 3-3-.2-.2-3 3-.4-.4 3-3-.2-.2-2.9 3-.5-.4 3-3-.2-.2-3 3-.4-.4 3-3-.2-.2-2.9 3h-.1l-6.5 6.6-.4-.5 6.9-7 2.6-2.5-.2-.2-.5.5-9 9.1-.4-.4 9.4-9.5v-.3l-9.6 9.6-.4-.5 9.7-9.8.3-.2v-.3l-.7.6-2.9 2.9-6.6 6.7-.4-.4 10.6-10.7V54L89.7 64.9l-.4-.4 7.6-7.7 3.6-3.6v-.4l-3.6 3.7v-.9l3.6-3.6v-.4l-3.6 3.7v-.9l3.6-3.5v-.4L96.9 54v-.8l3.6-3.5v-.4l-3.6 3.5V52l3.6-3.5v-.4l-3.6 3.5v-.7l3.6-3.6v-.4l-3.6 3.6v-.8l3.6-3.6v-.4l-3.6 3.6v-.8l3.6-3.6v-.4l-3.6 3.6v-.8l3.6-3.6v-.4l-3.6 3.6v-.8l3.6-3.6v-.4l-3.6 3.6v-.8l3.6-3.6v-.2h-.2l-3.4 3.4v-.8l2.6-2.6h-.4l-2.2 2.2v-.8l1.4-1.4h-.4l-1 1v-1l-3.6 3.6v15.4l-4.2 4.2-.5-.5 3.1-2.9-.3-.2-2.9 3-.4-.5 3-2.9-.2-.2-3 3-.4-.4 3-3-.3-.2-2.9 3-.4-.4 3-3-.2-.2-3 3-.4-.4 3-3-.3-.2-2.9 3-.4-.4 3-3-.2-.2-3 3-.4-.4 3-3-.3-.2-2.9 3-.5-.5 3-2.9-.1-.1v-.1l-3 3-.4-.4 3.4-3.5v-.3l-3.5 3.5V58l3.5-3.6V54l-3.5 3.6v-.8l3.5-3.6v-.4l-3.5 3.7v-.9l3.5-3.6v-.4l-3.5 3.7v-.9l3.5-3.5v-.4L83.8 54v-.8l3.5-3.5v-.4l-3.5 3.5V52l3.5-3.5v-.4l-3.5 3.5v-.7l3.5-3.6v-.4l-3.5 3.6v-.8l3.5-3.6v-.4l-3.5 3.6v-.8l3.5-3.6v-.4l-3.5 3.6v-.8l3.5-3.6v-.4l-3.5 3.6v-.8l3.5-3.6v-.4l-3.5 3.6v-.8l3.5-3.6v-.2h-.1l-3.4 3.4v-.8l2.6-2.6H86l-2.2 2.2v-.8l1.4-1.4h-.4l-1 1v-1l-3.6 3.6v17.9l8.5 8.4 6.6-6.6-.1.1 6.6 6.5 11.8-11.8v-.4l-8.4 8.5-.4-.4 8.8-8.9v-.4l-9 9.1-.4-.4 9.4-9.5v-.3l-9.6 9.6-.4-.4 10-10.1v-.3l-10.2 10.2-.4-.4 10.6-10.7v-.3l-10.8 10.8-.4-.4 11.2-11.3v-.3l-3.6 3.6v-.9l3.6-3.6v-.3l-3.6 3.6v-.9l3.6-3.5v-.4l-3.6 3.6v-.9l3.6-3.5v-.4l-3.6 3.6V52l3.6-3.5v-.4l-3.6 3.6v-.8l3.6-3.6v-.4l-3.6 3.6v-.8l3.6-3.6v-.4l-3.6 3.6v-.8l3.6-3.6v-.4l-3.6 3.6v-.8l3.6-3.6v-.4l-3.6 3.6v-.8l3.6-3.6v-.4l-3.6 3.6v-.8z"/></svg>