<svg xmlns="http://www.w3.org/2000/svg" viewBox="0 0 122.8 80.8"><linearGradient id="a" gradientUnits="userSpaceOnUse" x1="19.563" y1="39.666" x2="19.563" y2="9.687"><stop offset="0" stop-color="#ad69ff"/><stop offset=".28" stop-color="#af66fc"/><stop offset=".499" stop-color="#b65cf4"/><stop offset=".697" stop-color="#c24ce6"/><stop offset=".881" stop-color="#d334d2"/><stop offset="1" stop-color="#e121c1"/></linearGradient><path d="M29.7 21.7v.2l-3.6 3.6v6.8l3.6-3.6v.3l-7 7h.8l6.2-6.2v.4L24 36h.8l5-5v.4L25.2 36h.8l3.8-3.8v.4L26.3 36h.8l2.6-2.6v.4L27.5 36h.8l1.4-1.4v.4l-1 1h1l-3.6 3.6H9.4V13.3L13 9.7v1l1-1h.4L13 11.1v.8l2.2-2.2h.4L13 12.3v.8l3.4-3.4h.4L13 13.4v.8l4.6-4.6h.4l-5 5v.8l5.8-5.8h.4L13 15.8v.8l7-7h.4l-3.6 3.6h7v8.2l3.6-3.6v.4l-7 7h.8l6.2-6.2v.4l-5.8 5.8h.8l5-5v.4l-4.6 4.6h.8l3.8-3.8v.2h.2L24 25.3h.8l3.6-3.6h.4l-3.6 3.6h.8l3.6-3.6h.1zM13 17.9l3.6-3.6v-.8L13 17.1v.8zm0 1.2l3.6-3.6v-.8L13 18.3v.8zm0 1.2l3.6-3.6v-.8L13 19.4v.9zm0 8.4l7-7h.2v-4.8h-3.6v.2L13 20.6v.8l3.6-3.6v.4L13 21.8v.8l3.6-3.6v.4L13 23.1v.8l3.6-3.6v.4L13 24.3v.8l3.6-3.6v.2h.2L13 25.4v.8l4.6-4.6h.4l-5 5v.8l5.8-5.8h.4L13 27.8v.9zm0 1.2l3.6-3.6v-.8L13 29v.9zm0 1.1l3.6-3.6v-.8L13 30.3v.7zm0 1.3l3.6-3.6v-.8L13 31.4v.9zm5.8 3.7l3.6-3.6h.2v-3.6h-6v.2L13 32.6v.8l3.6-3.6v.4L13 33.8v.8l3.6-3.6v.4L13 35v.8l3.6-3.6v.2h.2L13.2 36h.8l3.6-3.6h.4L14.3 36h.8l3.6-3.6h.4L15.5 36h.8l3.6-3.6h.4L16.8 36h.8l3.6-3.6h.4L18 36h.8zm-2-10.7h.8l3.6-3.6h-.8l-3.6 3.6zm.8-12l3.6-3.6h.4L18 13.3h-.4zm.4 12h.8l3.6-3.6h-.8L18 25.3zm.8-12l3.6-3.6h.4l-3.6 3.6h-.4zm4.8 8.4h-.8l-3.6 3.6h.8l3.6-3.6zM20 36l3.6-3.6h-.8L19.2 36h.8zm0-22.7l3.6-3.6h.4l-3.6 3.6H20zm.3 22.7h.8l3.6-3.6H24L20.3 36zm.9-22.7l3.6-3.6h.4l-3.6 3.6h-.4zM22.4 36l3.6-3.6h-.8L21.5 36h.9zm0-22.7L26 9.7h.4l-3.6 3.6h-.4zm1.2 0l3.6-3.6h.2v.2l-3.6 3.6v-.2h-.2zm3.8-2.2l-3.6 3.6v-.4l3.6-3.6v.4zm0 1.2l-3.6 3.6v-.4l3.6-3.6v.4zm0 1.1L23.8 17v-.4l3.6-3.6v.4zm0 1.2l-3.6 3.6v-.4l3.6-3.6v.4zm0 1.2l-3.6 3.6V19l3.6-3.6v.4zm0 1.3l-3.6 3.6v-.4l3.6-3.6v.4zm-1.2 9.2l3.6-3.6v.4l-3.6 3.6v-.4zm0 1.2l3.6-3.6v.4l-3.6 3.6v-.4zm0 1.2l3.6-3.6v.4L26.2 29v-.3zm0 1.2l3.6-3.6v.4l-3.6 3.6v-.4zm0 1.1l3.6-3.6v.4l-3.6 3.6V31z" fill="url(#a)"/><linearGradient id="b" gradientUnits="userSpaceOnUse" x1="43.794" y1="39.666" x2="43.794" y2="9.687"><stop offset="0" stop-color="#ad69ff"/><stop offset=".28" stop-color="#af66fc"/><stop offset=".499" stop-color="#b65cf4"/><stop offset=".697" stop-color="#c24ce6"/><stop offset=".881" stop-color="#d334d2"/><stop offset="1" stop-color="#e121c1"/></linearGradient><path d="M50.4 13.4v.8l3.6-3.6v.4l-3.6 3.6v.8l3.6-3.6v.4l-3.6 3.6v.8L54 13v.4L50.4 17v.8l3.6-3.6v.4l-3.6 3.6v.8l3.6-3.6v.4l-3.6 3.6v.8l3.6-3.6v.4l-3.6 3.6v.8l3.6-3.6v.4l-8.3 8.3.4.4L54 19v.4l-7.7 7.7.5.5 7.2-7.3v.4l-7.1 7.1.4.4 6.7-6.7v.4l-3.4 3.4h.8l2.6-2.6v.4l-2.2 2.2h.8l1.4-1.4v.4l-1 1h1L52.2 27l.1.1-3 3 .5.5 3-3 .2.2-3 3 .4.4 3-3 .2.2-3.1 3.1v.8l3.5-3.5.1.1v.1l-3.6 3.6v.8l3.6-3.6v.4l-3.6 3.6v.8L54 31v.4L50.4 35v.8l3.6-3.6v.4L50.6 36h.8l2.6-2.6v.4L51.8 36h.8l1.4-1.4v.4l-1 1h1l-3.6 3.6h-3.6v-4.8l-6-6v.2l-3.6 3.6v.8l3.6-3.6v.4l-3.6 3.6v.8l3.6-3.6v.4L37.2 35v.8l3.6-3.6v.4L37.4 36h.8l2.6-2.6v.4L38.6 36h.8l1.4-1.4v.4l-1 1h1l-3.6 3.6h-3.6V13.3l3.6-3.6v1l1-1h.4l-1.4 1.4v.8l2.2-2.2h.4l-2.6 2.6v.8l3.4-3.4h.4l-3.8 3.7v.8l4.6-4.6h.4l-5 5v.8L43 9.7h.4l-6.2 6.2v.8l7-7h.4L41 13.3h.8l3.6-3.6h.4l-3.6 3.6h.8l3.6-3.6h.4l-3.6 3.6h.8l3.6-3.6h.4l-3.6 3.6h.8L49 9.7h.4l-3.6 3.6h.8l3.6-3.6h.4L47 13.3h.8l3.6-3.6h.4l-3.6 3.6h.8l3.6-3.6h.4l-3.6 3.6h.8l3.6-3.6h.2v.2l-3.6 3.5zm-13.2 4.5l3.6-3.6v-.8l-3.6 3.6v.8zm0 1.2l3.6-3.6v-.8l-3.6 3.6v.8zm0 1.2l3.6-3.6v-.8l-3.6 3.6v.8zm5.8 5l3.6-3.6h.2v-4.8h-6v.2l-3.6 3.6v.8l3.6-3.6v.4l-3.6 3.6v.8l3.6-3.6v.4l-3.6 3.6v.8l3.6-3.6v.4l-3.6 3.6v.8l3.6-3.6v.2h.2l-3.8 3.7v.8l4.6-4.6h.4l-5 5v.8l5.8-5.8h.4l-6.2 6.2v.8l7-7h.4L41 25.3h.8l3.6-3.6h.4l-3.6 3.6h.8zm-2.2.1L37.2 29v.8l3.6-3.6v-.8zm0 1.2l-3.6 3.6v.8l3.6-3.6v-.8zm0 1.2l-3.6 3.6v.8l3.6-3.6v-.8zm3.4-2.5l3.6-3.6H47l-3.6 3.6h.8zm.3 0l.5.5 4.1-4.1h-.8l-3.8 3.6zm5.7-3.6h-.8L45.1 26l.4.4 4.7-4.7zm-2.7 6.6l.5.5 3-3-.4-.4-3.1 2.9zm3.6-2.3l-3 3 .4.4 3-3-.4-.4zm.6.5l-3 3 .4.4 3-3-.4-.4z" fill="url(#b)"/><linearGradient id="c" gradientUnits="userSpaceOnUse" x1="68.026" y1="39.666" x2="68.026" y2="9.687"><stop offset="0" stop-color="#ad69ff"/><stop offset=".28" stop-color="#af66fc"/><stop offset=".499" stop-color="#b65cf4"/><stop offset=".697" stop-color="#c24ce6"/><stop offset=".881" stop-color="#d334d2"/><stop offset="1" stop-color="#e121c1"/></linearGradient><path d="M74.6 13.4v.8l3.6-3.6v.4l-3.6 3.6v.8l3.6-3.6v.4l-3.6 3.6v.8l3.6-3.6v.4L74.6 17v.8l3.6-3.6v.4l-3.6 3.6v.8l3.6-3.6v.4l-3.6 3.6v.8l3.6-3.6v.4l-3.6 3.6v.8l3.6-3.6v.4l-7 7h.8l6.2-6.2v.4l-5.8 5.8h.8l5-5v.4l-4.6 4.6h.8l3.8-3.8v.4l-3.6 3.6v.8l3.6-3.6v.4l-3.6 3.6v.8l3.6-3.6v.4l-3.6 3.6v.8l3.6-3.6v.4L74.6 29v.8l3.6-3.6v.4l-3.6 3.6v.8l3.6-3.6v.4l-3.6 3.6v.8l3.6-3.6v.4l-3.6 3.6v.8l3.6-3.6v.4l-3.6 3.6v.8l3.6-3.6v.4L74.6 35v.8l3.6-3.6v.4L74.8 36h.8l2.6-2.6v.4L76 36h.8l1.4-1.4v.4l-1 1h1l-3.6 3.6H71V28.8h-6v.2l-3.6 3.6v.8l3.6-3.6v.4l-3.6 3.6v.8L65 31v.4L61.4 35v.8l3.6-3.6v.4L61.6 36h.8l2.6-2.6v.4L62.8 36h.8l1.4-1.4v.4l-1 1h1l-3.6 3.6h-3.6V13.3l3.6-3.6v1l1-1h.4l-1.4 1.4v.8l2.2-2.2h.4l-2.6 2.6v.8l3.4-3.4h.4l-3.8 3.7v.8L66 9.7h.4l-5 5v.8l5.8-5.8h.4l-6.2 6.2v.8l7-7h.4l-3.6 3.6h.8l3.6-3.6h.4l-3.6 3.6h.8l3.6-3.6h.4l-3.6 3.6h.8L72 9.7h.4l-3.6 3.6h.8l3.6-3.6h.4L70 13.3h.8l3.6-3.6h.4l-3.6 3.6h.8l3.6-3.6h.4l-3.6 3.6h.8l3.6-3.6h.4l-3.6 3.6h.8L78 9.7h.2v.2l-3.6 3.5zm-13.2 4.5l3.6-3.6v-.8l-3.6 3.6v.8zm0 1.2l3.6-3.6v-.8l-3.6 3.6v.8zm0 1.2l3.6-3.6v-.8l-3.6 3.6v.8zm5.9 5l3.6-3.6h.1v-4.8h-6v.2l-3.6 3.6v.8l3.6-3.6v.4l-3.6 3.6v.8l3.6-3.6v.4l-3.6 3.6v.8l3.6-3.6v.4l-3.6 3.6v.8l3.6-3.6v.2h.2l-3.8 3.7v.8l4.6-4.6h.4l-5 5v.8l5.8-5.8h.4l-6.2 6.2v.8l7-7h.4l-3.6 3.6h.8l3.6-3.6h.4l-3.6 3.6h.9zm-2.3.1L61.4 29v.8l3.6-3.6v-.8zm0 1.2l-3.6 3.6v.8l3.6-3.6v-.8zm0 1.2l-3.6 3.6v.8l3.6-3.6v-.8zm3.4-2.5l3.6-3.6h-.8l-3.6 3.6h.8zm1.2 0l3.6-3.6h-.8l-3.6 3.6h.8zm4.8-3.6h-.8L70 25.3h.8l3.6-3.6z" fill="url(#c)"/><linearGradient id="d" gradientUnits="userSpaceOnUse" x1="85.659" y1="39.666" x2="85.659" y2="9.687"><stop offset="0" stop-color="#ad69ff"/><stop offset=".28" stop-color="#af66fc"/><stop offset=".499" stop-color="#b65cf4"/><stop offset=".697" stop-color="#c24ce6"/><stop offset=".881" stop-color="#d334d2"/><stop offset="1" stop-color="#e121c1"/></linearGradient><path d="M85.7 13.4v.8l3.6-3.6v.4l-3.6 3.6v.8l3.6-3.6v.4l-3.6 3.6v.8l3.6-3.6v.4L85.7 17v.8l3.6-3.6v.4l-3.6 3.6v.8l3.6-3.6v.4l-3.6 3.6v.8l3.6-3.6v.4l-3.6 3.6v.8l3.6-3.6v.4l-3.6 3.6v.8l3.6-3.6v.4L85.7 23v.8l3.6-3.6v.4l-3.6 3.6v.8l3.6-3.6v.4l-3.6 3.6v.8l3.6-3.6v.4l-3.6 3.6v.8l3.6-3.6v.4l-3.6 3.6v.8l3.6-3.6v.4L85.7 29v.8l3.6-3.6v.4l-3.6 3.6v.8l3.6-3.6v.4l-3.6 3.6v.8l3.6-3.6v.4l-3.6 3.6v.8l3.6-3.6v.4l-3.6 3.6v.8l3.6-3.6v.4L85.7 35v.8l3.6-3.6v.4L85.8 36h.8l2.6-2.6v.4L87 36h.8l1.4-1.4v.4l-1 1h1l-3.6 3.6H82V13.3l3.6-3.6v1l1-1h.4l-1.4 1.4v.8l2.2-2.2h.4l-2.6 2.6v.8L89 9.7h.2v.2l-3.5 3.5z" fill="url(#d)"/><linearGradient id="e" gradientUnits="userSpaceOnUse" x1="103.292" y1="39.666" x2="103.292" y2="9.687"><stop offset="0" stop-color="#ad69ff"/><stop offset=".28" stop-color="#af66fc"/><stop offset=".499" stop-color="#b65cf4"/><stop offset=".697" stop-color="#c24ce6"/><stop offset=".881" stop-color="#d334d2"/><stop offset="1" stop-color="#e121c1"/></linearGradient><path d="M109.9 13.4v.8l3.6-3.6v.4l-3.6 3.6v.8l3.6-3.6v.4l-3.6 3.6v.8l3.6-3.6v.4l-3.6 3.6v.8l3.6-3.6v.4l-3.6 3.6v.8l3.6-3.6v.4l-6.5 6.5.5.5 6-6.1v.4l-5.9 5.9.4.4 5.5-5.5v.4l-5.3 5.3.4.4 4.9-4.9v.4l-4.7 4.7.5.5 4.2-4.3v.4l-4.1 4.1.4.4 3.7-3.7v.4l-3.6 3.6v.8l3.6-3.6v.4l-3.6 3.6v.8l3.6-3.6v.4l-3.6 3.6v.8l3.6-3.6v.4l-3.6 3.6v.8l3.6-3.6v.4l-3.6 3.6v.6l3.6-3.6v.4l-3.6 3.6v.8l3.6-3.6v.4l-3.6 3.6v.8l3.6-3.6v.4l-3.6 3.6v.8l3.6-3.6v.4l-3.6 3.6v.8l3.6-3.6v.4l-3.4 3.4h.8l2.6-2.6v.4l-2.2 2.2h.8l1.4-1.4v.4l-1 1h1l-3.6 3.6h-3.6V28.8l-6-6v.2l-3.6 3.6v.8l3.6-3.6v.4l-3.6 3.6v.8l3.6-3.6v.4L96.7 29v.8l3.6-3.6v.4l-3.6 3.6v.8l3.6-3.6v.4l-3.6 3.6v.8l3.6-3.6v.4l-3.6 3.6v.8l3.6-3.6v.4l-3.6 3.6v.8l3.6-3.6v.4L96.7 35v.8l3.6-3.6v.4L96.9 36h.8l2.6-2.6v.4L98.1 36h.8l1.4-1.4v.4l-1 1h1l-3.6 3.6h-3.6V13.3l3.6-3.6v1l1-1h.4l-1.4 1.4v.8l2.2-2.2h.4l-2.6 2.6v.8l3.4-3.4h.2l.1.1-3.7 3.7v.8l4.1-4.1.2.2-4.3 4.3v.8l4.7-4.7.2.2-4.9 4.9v.8l5.3-5.3.2.2-5.5 5.5v.8l5.9-6 .2.2-6.1 6.1v.8l6.5-6.5.2.2-3 3 .4.4 3-3 .2.2-3 3 .4.4 3-3 .2.2-3 3 .4.4 3-3 .2.2-3 3 .5.5 3-3 .2.2-3 3 .4.4 3-3 .1.1v-2.4l3.6-3.6v1l1-1h.4l-1.4 1.4v.8l2.2-2.2h.4l-2.6 2.6v.8l3.4-3.4h.2v.2l-3.7 3.5zm-9.6 2.4l-3.6 3.6v.8l3.6-3.6v-.8zm0 1.3l-3.6 3.6v.8l3.6-3.6v-.8zm0 1.2l-3.6 3.6v.8l3.6-3.6v-.8zm0 1.1L96.7 23v.8l3.6-3.6v-.8zm0 1.2l-3.6 3.6v.8l3.6-3.6v-.8zm0 1.2l-3.6 3.6v.8l3.6-3.6v-.8zm3.1-3.1l.5.5 3-3-.4-.4-3.1 2.9zm3.6-2.4l-3 3 .4.4 3-3-.4-.4zm.6.7l-3 3 .4.4 3-3-.4-.4zm.6.6l-3 3 .5.5 3-3-.5-.5zm.6.5l-3 3 .4.4 3-3-.4-.4zm1 1.1l-.4-.4-3 3 .5.5 2.9-3.1z" fill="url(#e)"/><linearGradient id="f" gradientUnits="userSpaceOnUse" x1="55.436" y1="41.341" x2="55.436" y2="71.019"><stop offset="0" stop-color="#ad69ff"/><stop offset=".007" stop-color="#ac68ff"/><stop offset=".487" stop-color="#5f42de"/><stop offset=".83" stop-color="#2f2ac9"/><stop offset="1" stop-color="#1d21c1"/></linearGradient><path d="M62 45.1v.8l3.5-3.5v.4L62 46.2v.8l3.5-3.5v.4L62 47.4v.8l3.5-3.6v.4L62 48.6v.8l3.5-3.6v.4L62 49.8v.8l3.5-3.5v.4L62 51v.8l3.5-3.5v.4L62 52.2v.8l3.5-3.5v.4l-6.9 6.9h.8l6.1-6.1v.3l-5.7 5.8h.8l4.9-4.9v.4L61 56.8h.8l3.8-3.8v.4L62 56.9v.8l3.5-3.5v.4L62 58.1v.8l3.5-3.5v.4L62 59.3v.8l3.5-3.6v.4L62 60.5v.8l3.5-3.6v.4L62 61.7v.8l3.5-3.5v.4L62 62.9v.8l3.5-3.5v.4L62 64.1v.8l3.5-3.5v.4L62 65.2v.8l3.5-3.6v.4L62 66.4v.8l3.5-3.6v.4l-3.4 3.4h.9l2.6-2.6v.4l-2.2 2.2h.8l1.4-1.4v.4l-1 1h1L62 71h-3.6V60.3h-5.9v.2L49 64v.8l3.5-3.5v.4L49 65.2v.8l3.5-3.6v.4L49 66.4v.8l3.5-3.6v.4l-3.3 3.4h.8l2.6-2.6v.4l-2.2 2.2h.8l1.4-1.4v.4l-1 1h1L48.9 71h-3.5V44.9l3.5-3.5v1l1-1h.4l-1.4 1.4v.8l2.2-2.2h.4L48.9 44v.8l3.4-3.3h.4l-3.8 3.7v.8l4.6-4.5h.4L49 46.4v.8l5.8-5.7h.2l-6.1 6.1v.8l6.9-6.9h.4L52.7 45h.8l3.5-3.5h.4L53.9 45h.8l3.5-3.5h.4L55 44.9h.8l3.6-3.5h.4l-3.6 3.5h.8l3.6-3.5h.4l-3.6 3.5h.8l3.5-3.5h.4l-3.5 3.5h.8l3.5-3.5h.4l-3.5 3.5h.8l3.5-3.5h.4L61 44.9h.8l3.6-3.5h.2v.2L62 45.1zm-13.1 4.4l3.5-3.6v-.8l-3.5 3.6v.8zm0 1.1l3.5-3.5v-.8l-3.5 3.6v.7zm0 1.2l3.5-3.5v-.8L48.9 51v.8zm5.8 5l3.5-3.5h.2v-4.8h-5.9v.2L49 52.2v.8l3.5-3.5v.4L49 53.4v.8l3.5-3.6v.4L49 54.6v.8l3.5-3.6v.4L49 55.8v.8l3.5-3.5v.2h.2L48.9 57v.8l4.6-4.5h.4L49 58.2v.8l5.8-5.7h.2l-6.1 6.1v.8l6.9-6.9h.4l-3.5 3.5h.8l3.5-3.5h.4l-3.5 3.5h.8zm-2.3.1l-3.5 3.6v.8l3.5-3.6v-.8zm0 1.2l-3.5 3.6v.8l3.5-3.5v-.9zm0 1.2l-3.5 3.5v.8l3.5-3.5v-.8zm3.4-2.5l3.6-3.5h-.8L55 56.8h.8zm1.2 0l3.6-3.5h-.8l-3.6 3.5h.8zm4.8-3.6H61l-3.6 3.5h.8l3.6-3.5z" fill="url(#f)"/><linearGradient id="g" gradientUnits="userSpaceOnUse" x1="79.424" y1="41.259" x2="79.424" y2="71.019"><stop offset="0" stop-color="#ad69ff"/><stop offset=".007" stop-color="#ac68ff"/><stop offset=".487" stop-color="#5f42de"/><stop offset=".83" stop-color="#2f2ac9"/><stop offset="1" stop-color="#1d21c1"/></linearGradient><path d="M86 45v.8l3.5-3.5v.4L86 46.2v.8l3.5-3.5v.4L86 47.4v.8l3.5-3.5v.3L86 48.6v.8l3.5-3.6v.4L86 49.7v.8l3.5-3.6v.4L86 50.9v.8l3.5-3.5v.4L86 52.1v.8l3.5-3.5v.4L86 53.3v.8l3.5-3.5v.4L86 54.5v.8l3.5-3.6v.4L86 55.7v.8l3.5-3.6v.4L78.4 64.5l.4.4 10.7-10.8v.4L78.9 65.1l.4.4 10.1-10.2v.4l-10 10 .5.5 9.5-9.6v.4L80 66.4l.4.4 8.9-9v.2l-8.8 8.8.5.5 8.3-8.4v.4L77.8 71l-8.4-8.4V44.8l3.5-3.5v1l1-1h.4l-1.4 1.4v.8l2.2-2.2h.4l-2.6 2.6v.8l3.4-3.4h.2v.2L72.9 45v.8l3.5-3.5v.4l-3.5 3.5v.8l3.5-3.5v.4l-3.5 3.5v.8l3.5-3.5v.3l-3.5 3.5v.8l3.5-3.6v.4l-3.5 3.6v.8l3.5-3.6v.4l-3.5 3.6v.8l3.5-3.5v.4l-3.5 3.5v.8l3.5-3.5v.4l-3.5 3.5v.8l3.5-3.5v.4l-3.5 3.5v.8l3.5-3.6v.4l-3.5 3.6v.8l3.5-3.6v.4l-3.5 3.6v.8l3.5-3.5v.4L72.9 58v.8l3.5-3.5v.4L73 59.1l.4.4 3.1-3v.2l.1.1-3 2.9.5.5 2.9-3 .2.2-3 2.9.5.5 2.9-3 .2.2-3 2.9.4.4 2.9-3 .2.2-3 2.9.5.5 2.9-3 .2.2-3 2.9.4.4 2.9-3 .2.2-3 2.9.4.4 3-3 .2.2-3 2.9.4.4 3-3 .2.2-3 2.9.5.5 4.2-4.2v-15l3.6-3.5v1l1-1h.4L86 42.6v.8l2.2-2.2h.4L86 43.8v.8l3.4-3.4h.2v.2L86 45z" fill="url(#g)"/><linearGradient id="h" gradientUnits="userSpaceOnUse" x1="103.411" y1="41.341" x2="103.411" y2="71.019"><stop offset="0" stop-color="#ad69ff"/><stop offset=".007" stop-color="#ac68ff"/><stop offset=".487" stop-color="#5f42de"/><stop offset=".83" stop-color="#2f2ac9"/><stop offset="1" stop-color="#1d21c1"/></linearGradient><path d="M96.9 52.2v.8l3.5-3.5v.4l-3.5 3.5v.8l3.5-3.6v.4l-3.5 3.6v.8l3.5-3.6v.4l-3.5 3.6v.8l3.5-3.5v.2h.2L96.8 57v.8l4.6-4.5h.4l-4.9 4.9v.8l5.8-5.7h.4L97 59.4v.8l6.9-6.9h.4l-3.5 3.5h.8l3.5-3.5h.4l-3.5 3.5h.8l3.5-3.5h.4l-3.5 3.5h.8l3.6-3.5h.4l-3.6 3.5h.8l3.6-3.5h.4l-3.6 3.5h.8l3.5-3.5h.2v.2l-3.4 3.4h.8l2.6-2.6v.4l-2.2 2.2h.8l1.4-1.4v.4l-1 1h1l-3.6 3.5h-5.9v.2l-3.5 3.5v.8l3.5-3.5v.4l-3.5 3.5v.8l3.5-3.6v.4l-3.5 3.6v.8l3.5-3.6v.2h.2l-3.5 3.5h.8l3.6-3.5h.4l-3.6 3.5h.8l3.6-3.5h.4l-3.6 3.5h.8l3.5-3.5h.4l-3.5 3.5h.8l3.5-3.5h.4l-3.5 3.5h.8l3.5-3.5h.4l-3.5 3.5h.8l3.6-3.5h.4l-3.6 3.5h.8l3.6-3.5h.4l-3.6 3.5h.8l3.5-3.5h.4l-3.5 3.5h.8l3.5-3.5h.4l-3.5 3.5h.8l3.5-3.5h.4l-3.5 3.5h.8l3.6-3.5h.2v.2l-3.4 3.4h.8l2.6-2.6v.4l-2.2 2.2h.8l1.4-1.4v.4l-1 1h1l-3.5 3.6H93.3V44.9l3.5-3.5v1l1-1h.4l-1.4 1.4v.8l2.2-2.2h.4L96.8 44v.8l3.4-3.3h.4l-3.8 3.7v.8l4.6-4.5h.4l-4.9 4.9v.8l5.8-5.7h.4L97 47.6v.8l6.9-6.9h.4l-3.5 3.5h12.9l-3.5 3.5h-9.5v.2l-3.8 3.5zm0-2.7l3.5-3.6v-.8l-3.5 3.6v.8zm0 1.1l3.5-3.5v-.8l-3.5 3.6v.7zm0 1.2l3.5-3.5v-.8L96.9 51v.8zm0 8.7v.8l3.5-3.6v-.8l-3.5 3.6zm3.5-2.4l-3.5 3.6v.8l3.5-3.5v-.9zm0 1.2l-3.5 3.5v.8l3.5-3.5v-.8zm1.1-14.4l3.5-3.5h.4l-3.5 3.5h-.4zm1.1 0l3.5-3.5h.4l-3.5 3.5h-.4zm1.2 0l3.6-3.5h.4l-3.6 3.5h-.4zm1.2 0l3.6-3.5h.4l-3.6 3.5h-.4zm1.2 0l3.5-3.5h.4l-3.5 3.5h-.4zm1.2 0l3.5-3.5h.4l-3.5 3.5h-.4zm1.2 0l3.5-3.5h.4l-3.5 3.5h-.4zm4.9-3.6v.2l-3.4 3.4h-.4l3.6-3.5h.2zm-2.6 3.6l2.6-2.6v.4l-2.2 2.2h-.4zm1.2 0l1.4-1.4v.4l-1 1h-.4z" fill="url(#h)"/><linearGradient id="i" gradientUnits="userSpaceOnUse" x1="25.958" y1="41.13" x2="25.958" y2="71.034"><stop offset="0" stop-color="#ad69ff"/><stop offset=".007" stop-color="#ac68ff"/><stop offset=".487" stop-color="#5f42de"/><stop offset=".83" stop-color="#2f2ac9"/><stop offset="1" stop-color="#1d21c1"/></linearGradient><path fill="url(#i)" d="M42.6 41.3v-.2h-.1l-3.4 3.4v-.8l2.6-2.6h-.4l-2.2 2.2v-.8l1.4-1.4h-.4l-1 1v-1l-3.6 3.6v15.4l-4.2 4.2-.5-.5 3-2.9-.2-.2-3 3-.4-.5 3-2.9-.2-.2-2.9 3-.5-.4 3-3-.2-.2-2.9 3-.4-.4 2.9-3-.2-.2-2.9 3-.5-.4 3-3-.2-.2-2.9 3-.4-.4 2.9-3-.2-.2-2.9 3-6.5 6.6-.5-.5 7-7 2.5-2.5-.2-.2-.5.5-9 9.1-.4-.4 9.4-9.5v-.3L20 66.1l-.5-.5 9.8-9.8.2-.2v-.3l-.6.6-2.9 2.9-6.7 6.7-.4-.4 10.6-10.7V54L18.8 64.9l-.5-.4 7.7-7.7 3.5-3.6v-.4L26 56.5v-.9l3.5-3.6v-.4L26 55.3v-.9l3.5-3.5v-.4L26 54v-.8l3.5-3.5v-.4L26 52.8V52l3.5-3.5v-.4L26 51.6v-.7l3.5-3.6v-.4L26 50.5v-.8l3.5-3.6v-.4L26 49.3v-.8l3.5-3.6v-.4L26 48.1v-.8l3.5-3.6v-.4L26 46.9v-.8l3.5-3.6v-.4L26 45.7v-.8l3.5-3.6v-.2h-.1L26 44.5v-.8l2.5-2.6h-.3L26 43.3v-.8l1.3-1.4H27l-1 1v-1l-3.6 3.6v15.4l-4.2 4.2-.5-.5 3-2.9-.2-.2-3 3-.4-.5 3-2.9-.2-.2-3 3-.4-.4 3-3-.2-.2-2.9 3-.5-.4 3-3-.2-.2-2.9 3-.5-.4 3-3-.2-.2-2.9 3-.5-.4 3-3-.2-.2-2.9 3-.5-.4 3-3-.2-.2-2.9 3-.5-.5 3-2.9-.1-.1v-.1l-3.1 3-.4-.4 3.5-3.5v-.3l-3.6 3.5V58l3.6-3.6V54l-3.6 3.6v-.8l3.6-3.6v-.4l-3.6 3.7v-.9l3.6-3.6v-.4l-3.6 3.7v-.9l3.6-3.5v-.4L12.8 54v-.8l3.6-3.5v-.4l-3.6 3.5V52l3.6-3.5v-.4l-3.6 3.5v-.7l3.6-3.6v-.4l-3.6 3.6v-.8l3.6-3.6v-.4l-3.6 3.6v-.8l3.6-3.6v-.4l-3.6 3.6v-.8l3.6-3.6v-.4l-3.6 3.6v-.8l3.6-3.6v-.4l-3.6 3.6v-.8l3.6-3.6v-.2h-.2l-3.4 3.4v-.8l2.6-2.6H15l-2.2 2.2v-.8l1.4-1.4h-.4l-1 1v-1l-3.5 3.6v17.9l8.4 8.4 6.6-6.6v.1l6.5 6.5 11.8-11.8v-.4l-8.3 8.5-.5-.4 8.8-8.9v-.4l-8.9 9.1-.5-.4 9.4-9.5v-.3l-9.5 9.6-.5-.4 10-10.1v-.3L32.5 65.5l-.5-.4 10.6-10.7v-.3L31.9 64.9l-.4-.4 11.1-11.3v-.3l-3.5 3.6v-.9l3.5-3.6v-.3l-3.5 3.6v-.9l3.5-3.5v-.4l-3.5 3.6v-.9l3.5-3.5v-.4l-3.5 3.6V52l3.5-3.5v-.4l-3.5 3.6v-.8l3.5-3.6v-.4l-3.5 3.6v-.8l3.5-3.6v-.4l-3.5 3.6v-.8l3.5-3.6v-.4l-3.5 3.6v-.8l3.5-3.6v-.4l-3.5 3.6v-.8l3.5-3.6v-.4l-3.5 3.6v-.8z"/></svg>