<?xml version="1.0" encoding="utf-8"?>
<!-- Generator: Adobe Illustrator 24.0.3, SVG Export Plug-In . SVG Version: 6.00 Build 0)  -->
<svg version="1.1" xmlns="http://www.w3.org/2000/svg" xmlns:xlink="http://www.w3.org/1999/xlink" x="0px" y="0px"
	 viewBox="0 0 358.2 235.7" style="enable-background:new 0 0 358.2 235.7;" xml:space="preserve">
<style type="text/css">
	.st0{fill:url(#SVGID_1_);}
	.st1{fill:url(#SVGID_2_);}
	.st2{fill:url(#SVGID_3_);}
	.st3{fill:url(#SVGID_4_);}
	.st4{fill:url(#SVGID_5_);}
	.st5{fill:url(#SVGID_6_);}
	.st6{fill:url(#SVGID_7_);}
	.st7{fill:url(#SVGID_8_);}
	.st8{fill:url(#SVGID_9_);}
</style>
<g id="Layer_1">
	<linearGradient id="SVGID_1_" gradientUnits="userSpaceOnUse" x1="44.8424" y1="115.627" x2="44.8424" y2="21.375">
		<stop  offset="0" style="stop-color:#AD69FF"/>
		<stop  offset="0.2801" style="stop-color:#AF66FC"/>
		<stop  offset="0.4988" style="stop-color:#B65CF4"/>
		<stop  offset="0.6967" style="stop-color:#C24CE6"/>
		<stop  offset="0.8812" style="stop-color:#D334D2"/>
		<stop  offset="1" style="stop-color:#E121C1"/>
	</linearGradient>
	<path class="st0" d="M76.8,59.1v0.5L65.6,70.9v21.5l11.3-11.3v1.2l-22,22h2.6l19.4-19.4V86l-18.2,18.2h2.6l15.6-15.7v1.2
		l-14.4,14.5h2.5l11.9-11.9v1.2l-10.7,10.7h2.6l8.1-8.1v1.2l-6.9,6.9h2.6l4.3-4.3v1.2l-3.1,3.1h3.1l-11.3,11.4H12.8v-83l11.3-11.3
		v3.1l3.1-3.1h1.2l-4.3,4.3v2.6l6.9-6.9h1.2l-8.1,8.1V32l10.7-10.6H36L24.1,33.2v2.6l14.5-14.4h1.2L24.1,37v2.6l18.3-18.2h1.2
		L24.1,40.7v2.6l22-22h1.2L36,32.6h22v25.8l11.4-11.3v1.2l-22.1,22h2.6l19.5-19.5V52L51.1,70.3h2.6l15.7-15.7v1.2L54.9,70.3h2.6
		l11.9-11.9v0.7c0,0,0.1,0,0.5,0L58.7,70.3h2.6l11.3-11.3c0.4,0,0.8,0,1.2,0L62.4,70.3h2.5l11.4-11.3C76.7,59.1,76.8,59.1,76.8,59.1
		z M24.1,47.2l11.3-11.4v-2.6L24.1,44.5V47.2z M24.1,50.8l11.3-11.3V37L24.1,48.3V50.8z M24.1,54.6l11.3-11.3v-2.6L24.1,52V54.6z
		 M24.1,81.1l22-22h0.7V43.9H35.4v0.7L24.1,55.8v2.6l11.3-11.3v1.2L24.1,59.6v2.6l11.3-11.4V52L24.1,63.4V66l11.3-11.4v1.2
		L24.1,67.2v2.5l11.3-11.3v0.7H36L24.1,70.9v2.6l14.5-14.4h1.2L24.1,74.7v2.6l18.3-18.2h1.2L24.1,78.4V81.1z M24.1,84.9l11.3-11.4
		v-2.6L24.1,82.2V84.9z M24.1,88.5l11.3-11.3v-2.6L24.1,86V88.5z M24.1,92.3l11.3-11.3v-2.6L24.1,89.7V92.3z M42.4,104.2L53.7,93
		h0.5V81.6H35.4v0.7L24.1,93.5v2.6l11.3-11.3V86L24.1,97.3v2.6l11.3-11.4v1.2l-11.3,11.4v2.6l11.3-11.4V93H36l-11.3,11.3h2.5
		L38.6,93h1.2l-11.4,11.3H31L42.4,93h1.2l-11.4,11.3h2.6L46.1,93h1.2L36,104.2h2.6L49.9,93h1.2l-11.3,11.3H42.4z M36,70.3h2.6
		l11.3-11.3h-2.6L36,70.3z M38.6,32.6l11.3-11.3h1.2L39.8,32.6H38.6z M39.8,70.3h2.6l11.3-11.3h-2.6L39.8,70.3z M42.4,32.6
		l11.3-11.3h1.2L43.6,32.6H42.4z M57.5,59.1h-2.6L43.6,70.3h2.5L57.5,59.1z M46.1,104.2L57.5,93h-2.6l-11.3,11.3H46.1z M46.1,32.6
		l11.4-11.3h1.2L47.3,32.6H46.1z M47.3,104.2h2.6L61.3,93h-2.6L47.3,104.2z M49.9,32.6l11.4-11.3h1.2L51.1,32.6H49.9z M53.7,104.2
		L64.9,93h-2.5l-11.4,11.3H53.7z M53.7,32.6l11.3-11.3h1.2L54.9,32.6H53.7z M57.5,32.6l11.3-11.3h0.7v0.5L58,33.2v-0.5H57.5z
		 M69.4,25.7L58,37v-1.2l11.4-11.3V25.7z M69.4,29.5L58,40.7v-1.2l11.4-11.3V29.5z M69.4,33.2L58,44.5v-1.2L69.4,32V33.2z M69.4,37
		L58,48.3v-1.2l11.4-11.4V37z M69.4,40.7L58,52v-1.2l11.4-11.3V40.7z M69.4,44.5L58,55.8v-1.2l11.4-11.3V44.5z M65.6,73.5l11.3-11.3
		v1.2L65.6,74.7V73.5z M65.6,77.3L76.8,66v1.2L65.6,78.4V77.3z M65.6,81.1l11.3-11.4v1.2L65.6,82.2V81.1z M65.6,84.9l11.3-11.4v1.2
		L65.6,86V84.9z M65.6,88.5l11.3-11.3v1.2L65.6,89.7V88.5z"/>
	<linearGradient id="SVGID_2_" gradientUnits="userSpaceOnUse" x1="121.027" y1="115.627" x2="121.027" y2="21.375">
		<stop  offset="0" style="stop-color:#AD69FF"/>
		<stop  offset="0.2801" style="stop-color:#AF66FC"/>
		<stop  offset="0.4988" style="stop-color:#B65CF4"/>
		<stop  offset="0.6967" style="stop-color:#C24CE6"/>
		<stop  offset="0.8812" style="stop-color:#D334D2"/>
		<stop  offset="1" style="stop-color:#E121C1"/>
	</linearGradient>
	<path class="st1" d="M141.8,33.2v2.6L153,24.5v1.2L141.8,37v2.6L153,28.3v1.2l-11.3,11.3v2.6L153,32v1.2l-11.3,11.4v2.6L153,35.8
		V37l-11.3,11.4v2.5L153,39.6v1.2L141.8,52v2.6L153,43.4v1.2l-11.3,11.3v2.6L153,47.2v1.2l-26,26l1.3,1.3L153,50.8V52l-24.2,24.2
		l1.4,1.4l22.8-23v1.2l-22.3,22.4l1.3,1.3L153,58.4v1.2l-10.7,10.7h2.6l8.1-8.1v1.2l-6.9,6.9h2.6L153,66v1.2l-3.1,3.1h3.1l-5.6,5.6
		l0.3,0.3l-9.4,9.4l1.4,1.4l9.3-9.6l0.7,0.7l-9.4,9.4l1.3,1.3l9.4-9.4l0.5,0.5l-9.7,9.7v2.6l11-11l0.3,0.3v0.7l-11.3,11.3v2.6
		L153,84.9V86l-11.3,11.3v2.6L153,88.5v1.2l-11.3,11.4v2.6L153,92.3v1.2l-10.7,10.7h2.6l8.1-8.1v1.2l-6.9,6.9h2.6l4.3-4.3v1.2
		l-3.1,3.1h3.1l-11.3,11.4h-11.4v-15.2l-18.9-18.9v0.7l-11.3,11.3v2.6l11.3-11.3V86l-11.3,11.3v2.6l11.3-11.4v1.2l-11.3,11.4v2.6
		l11.3-11.4v1.2l-10.6,10.7h2.5l8.1-8.1v1.2l-6.9,6.9h2.6l4.3-4.3v1.2l-3.1,3.1h3.1l-11.3,11.4H89v-83l11.3-11.3v3.1l3.1-3.1h1.2
		l-4.3,4.3v2.6l6.9-6.9h1.2l-8.1,8.1V32L111,21.4h1.2l-11.9,11.8v2.6l14.5-14.4h1.2L100.3,37v2.6l18.3-18.2h1.2l-19.5,19.4v2.6
		l22-22h1.2l-11.3,11.3h2.6l11.3-11.3h1.2L116,32.6h2.6l11.3-11.3h1.2l-11.3,11.3h2.5l11.4-11.3h1.2l-11.4,11.3h2.6l11.4-11.3h1.2
		l-11.4,11.3h2.6l11.3-11.3h1.2L131,32.6h2.6l11.3-11.3h1.2l-11.3,11.3h2.6l11.3-11.3h1.2l-11.3,11.3h2.5l11.4-11.3h0.5v0.5
		L141.8,33.2z M100.3,47.2l11.3-11.4v-2.6l-11.3,11.4V47.2z M100.3,50.8l11.3-11.3V37l-11.3,11.4V50.8z M100.3,54.6l11.3-11.3v-2.6
		L100.3,52V54.6z M118.6,70.3l11.3-11.3h0.5V43.9h-18.9v0.7l-11.3,11.3v2.6l11.3-11.3v1.2l-11.3,11.3v2.6l11.3-11.4V52l-11.3,11.4
		V66l11.3-11.4v1.2l-11.3,11.4v2.5l11.3-11.3v0.7h0.7l-11.9,11.8v2.6l14.5-14.4h1.2l-15.7,15.6v2.6l18.3-18.2h1.2l-19.5,19.4v2.6
		l22-22h1.2l-11.3,11.3h2.6l11.3-11.3h1.2L116,70.3H118.6z M111.5,70.9l-11.3,11.4v2.6l11.3-11.4V70.9z M111.5,74.7L100.3,86v2.5
		l11.3-11.3V74.7z M111.5,78.4l-11.3,11.3v2.6l11.3-11.3V78.4z M122.3,70.3l11.4-11.3H131l-11.3,11.3H122.3z M123.2,70.6l1.4,1.4
		l12.8-13h-2.6L123.2,70.6z M141.1,59.1h-2.5l-13.5,13.5l1.3,1.3L141.1,59.1z M132.6,80l1.4,1.4l9.3-9.6l-1.3-1.3L132.6,80z
		 M144,72.6l-9.4,9.4l1.3,1.3l9.3-9.6L144,72.6z M145.8,74.4l-9.4,9.4l1.3,1.3l9.4-9.4L145.8,74.4z"/>
	<linearGradient id="SVGID_3_" gradientUnits="userSpaceOnUse" x1="197.2125" y1="115.627" x2="197.2125" y2="21.375">
		<stop  offset="0" style="stop-color:#AD69FF"/>
		<stop  offset="0.2801" style="stop-color:#AF66FC"/>
		<stop  offset="0.4988" style="stop-color:#B65CF4"/>
		<stop  offset="0.6967" style="stop-color:#C24CE6"/>
		<stop  offset="0.8812" style="stop-color:#D334D2"/>
		<stop  offset="1" style="stop-color:#E121C1"/>
	</linearGradient>
	<path class="st2" d="M218,33.2v2.6l11.3-11.3v1.2L218,37v2.6l11.3-11.3v1.2L218,40.7v2.6L229.2,32v1.2L218,44.5v2.6l11.3-11.4V37
		L218,48.3v2.5l11.3-11.3v1.2L218,52v2.6l11.3-11.3v1.2L218,55.8v2.6l11.3-11.3v1.2l-22,22h2.6l19.4-19.5V52L211,70.3h2.6l15.6-15.7
		v1.2l-14.4,14.5h2.5l11.9-11.9v1.2L218,70.9v2.6l11.3-11.3v1.2L218,74.7v2.6L229.2,66v1.2L218,78.4v2.6l11.3-11.4v1.2L218,82.2v2.6
		l11.3-11.4v1.2L218,86v2.5l11.3-11.3v1.2L218,89.7v2.6l11.3-11.3v1.2L218,93.5v2.6l11.3-11.3V86L218,97.3v2.6l11.3-11.4v1.2
		L218,101.1v2.6l11.3-11.4v1.2l-10.7,10.7h2.6l8.1-8.1v1.2l-6.9,6.9h2.6l4.3-4.3v1.2l-3.1,3.1h3.1L218,115.6h-11.4v-34h-18.9v0.7
		l-11.3,11.3v2.6l11.3-11.3V86l-11.3,11.3v2.6l11.3-11.4v1.2l-11.3,11.4v2.6l11.3-11.4v1.2l-10.6,10.7h2.5l8.1-8.1v1.2l-6.9,6.9h2.6
		l4.3-4.3v1.2l-3.1,3.1h3.1l-11.3,11.4h-11.3v-83l11.3-11.3v3.1l3.1-3.1h1.2l-4.3,4.3v2.6l6.9-6.9h1.2l-8.1,8.1V32l10.7-10.6h1.2
		l-11.9,11.8v2.6L191,21.4h1.2L176.5,37v2.6l18.3-18.2h1.2l-19.5,19.4v2.6l22-22h1.2l-11.3,11.3h2.6l11.3-11.3h1.2l-11.3,11.3h2.6
		L206,21.4h1.2L196,32.6h2.5l11.4-11.3h1.2l-11.4,11.3h2.6l11.4-11.3h1.2l-11.4,11.3h2.6l11.3-11.3h1.2l-11.3,11.3h2.6l11.3-11.3
		h1.2L211,32.6h2.6l11.3-11.3h1.2l-11.3,11.3h2.5l11.4-11.3h0.5v0.5L218,33.2z M176.5,47.2l11.3-11.4v-2.6l-11.3,11.4V47.2z
		 M176.5,50.8l11.3-11.3V37l-11.3,11.4V50.8z M176.5,54.6l11.3-11.3v-2.6L176.5,52V54.6z M194.8,70.3L206,59.1h0.5V43.9h-18.9v0.7
		l-11.3,11.3v2.6l11.3-11.3v1.2l-11.3,11.3v2.6l11.3-11.4V52l-11.3,11.4V66l11.3-11.4v1.2l-11.3,11.4v2.5l11.3-11.3v0.7h0.7
		l-11.9,11.8v2.6L191,59.1h1.2l-15.7,15.6v2.6l18.3-18.2h1.2l-19.5,19.4v2.6l22-22h1.2l-11.3,11.3h2.6l11.3-11.3h1.2l-11.3,11.3
		H194.8z M187.7,70.9l-11.3,11.4v2.6l11.3-11.4V70.9z M187.7,74.7L176.5,86v2.5l11.3-11.3V74.7z M187.7,78.4l-11.3,11.3v2.6
		l11.3-11.3V78.4z M198.5,70.3l11.4-11.3h-2.6L196,70.3H198.5z M202.3,70.3l11.4-11.3H211l-11.4,11.3H202.3z M217.3,59.1h-2.5
		l-11.4,11.3h2.6L217.3,59.1z"/>
	<linearGradient id="SVGID_4_" gradientUnits="userSpaceOnUse" x1="252.6486" y1="115.627" x2="252.6486" y2="21.375">
		<stop  offset="0" style="stop-color:#AD69FF"/>
		<stop  offset="0.2801" style="stop-color:#AF66FC"/>
		<stop  offset="0.4988" style="stop-color:#B65CF4"/>
		<stop  offset="0.6967" style="stop-color:#C24CE6"/>
		<stop  offset="0.8812" style="stop-color:#D334D2"/>
		<stop  offset="1" style="stop-color:#E121C1"/>
	</linearGradient>
	<path class="st3" d="M252.6,33.2v2.6l11.3-11.3v1.2L252.6,37v2.6l11.3-11.3v1.2l-11.3,11.3v2.6L263.9,32v1.2l-11.3,11.4v2.6
		l11.3-11.4V37l-11.3,11.4v2.5l11.3-11.3v1.2L252.6,52v2.6l11.3-11.3v1.2l-11.3,11.3v2.6l11.3-11.3v1.2l-11.3,11.3v2.6l11.3-11.4V52
		l-11.3,11.4V66l11.3-11.4v1.2l-11.3,11.4v2.5l11.3-11.3v1.2l-11.3,11.3v2.6l11.3-11.3v1.2l-11.3,11.3v2.6L263.9,66v1.2l-11.3,11.3
		v2.6l11.3-11.4v1.2l-11.3,11.4v2.6l11.3-11.4v1.2L252.6,86v2.5l11.3-11.3v1.2l-11.3,11.3v2.6l11.3-11.3v1.2l-11.3,11.3v2.6
		l11.3-11.3V86l-11.3,11.3v2.6l11.3-11.4v1.2l-11.3,11.4v2.6l11.3-11.4v1.2l-10.7,10.7h2.6l8.1-8.1v1.2l-6.9,6.9h2.6l4.3-4.3v1.2
		l-3.1,3.1h3.1l-11.3,11.4h-11.3v-83l11.3-11.3v3.1l3.1-3.1h1.2l-4.3,4.3v2.6l6.9-6.9h1.2l-8.1,8.1V32l10.7-10.6h0.5v0.5L252.6,33.2
		z"/>
	<linearGradient id="SVGID_5_" gradientUnits="userSpaceOnUse" x1="308.0865" y1="115.627" x2="308.0865" y2="21.375">
		<stop  offset="0" style="stop-color:#AD69FF"/>
		<stop  offset="0.2801" style="stop-color:#AF66FC"/>
		<stop  offset="0.4988" style="stop-color:#B65CF4"/>
		<stop  offset="0.6967" style="stop-color:#C24CE6"/>
		<stop  offset="0.8812" style="stop-color:#D334D2"/>
		<stop  offset="1" style="stop-color:#E121C1"/>
	</linearGradient>
	<path class="st4" d="M328.8,33.2v2.6l11.3-11.3v1.2L328.8,37v2.6l11.3-11.3v1.2l-11.3,11.3v2.6L340.1,32v1.2l-11.3,11.4v2.6
		l11.3-11.4V37l-11.3,11.4v2.5l11.3-11.3v1.2l-20.4,20.4l1.4,1.4l19-19.2v1.2l-18.5,18.6l1.3,1.3l17.1-17.3v1.2L323.5,65l1.3,1.3
		l15.3-15.4V52l-14.8,14.8l1.4,1.4l13.4-13.6v1.2l-12.8,13l1.3,1.3l11.5-11.7v1.2l-11.3,11.3v2.6l11.3-11.3v1.2l-11.3,11.3v2.6
		L340.1,66v1.2l-11.3,11.3v2.6l11.3-11.4v1.2l-11.3,11.4v2.6l11.3-11.4v1.2L328.8,86v2.5l11.3-11.3v1.2l-11.3,11.3v2.6l11.3-11.3
		v1.2l-11.3,11.3v2.6l11.3-11.3V86l-11.3,11.3v2.6l11.3-11.4v1.2l-11.3,11.4v2.6l11.3-11.4v1.2l-10.7,10.7h2.6l8.1-8.1v1.2l-6.9,6.9
		h2.6l4.3-4.3v1.2l-3.1,3.1h3.1l-11.3,11.4h-11.4v-34l-18.9-18.9v0.7l-11.3,11.3v2.6L298.6,66v1.2l-11.3,11.3v2.6l11.3-11.4v1.2
		l-11.3,11.4v2.6l11.3-11.4v1.2L287.3,86v2.5l11.3-11.3v1.2l-11.3,11.3v2.6l11.3-11.3v1.2l-11.3,11.3v2.6l11.3-11.3V86l-11.3,11.3
		v2.6l11.3-11.4v1.2l-11.3,11.4v2.6l11.3-11.4v1.2L288,104.2h2.5l8.1-8.1v1.2l-6.9,6.9h2.6l4.3-4.3v1.2l-3.1,3.1h3.1l-11.3,11.4
		h-11.3v-83l11.3-11.3v3.1l3.1-3.1h1.2l-4.3,4.3v2.6l6.9-6.9h1.2l-8.1,8.1V32l10.7-10.6h0.5l0.4,0.3l-11.7,11.5v2.6l12.8-13l0.7,0.7
		L287.3,37v2.6l14.8-14.8l0.7,0.7l-15.4,15.3v2.6L304,26.6l0.7,0.7l-17.3,17.3v2.6l18.5-18.7l0.7,0.7l-19.1,19.2v2.5l20.4-20.4
		l0.7,0.7l-9.4,9.4l1.3,1.3l9.3-9.6l0.7,0.7l-9.4,9.4l1.3,1.3l9.4-9.4l0.7,0.7l-9.6,9.3l1.3,1.3l9.4-9.4l0.7,0.7l-9.6,9.3l1.4,1.4
		l9.3-9.6l0.7,0.7l-9.4,9.4l1.3,1.3l9.4-9.4l0.3,0.3v-7.5l11.4-11.3v3.1l3.1-3.1h1.2l-4.3,4.3v2.6l6.9-6.9h1.2l-8.1,8.1V32
		l10.7-10.6h0.5v0.5L328.8,33.2z M298.6,40.7L287.3,52v2.6l11.3-11.3V40.7z M298.6,44.5l-11.3,11.3v2.6l11.3-11.3V44.5z M298.6,48.3
		l-11.3,11.3v2.6l11.3-11.4V48.3z M298.6,52l-11.3,11.4V66l11.3-11.4V52z M298.6,55.8l-11.3,11.4v2.5l11.3-11.3V55.8z M298.6,59.6
		l-11.3,11.3v2.6l11.3-11.3V59.6z M308.3,49.8l1.4,1.4l9.4-9.4l-1.3-1.3L308.3,49.8z M319.7,42.3l-9.4,9.4l1.3,1.3l9.4-9.4
		L319.7,42.3z M321.6,44.3l-9.6,9.3l1.3,1.3l9.4-9.4L321.6,44.3z M323.5,46.1l-9.6,9.3l1.4,1.4l9.4-9.4L323.5,46.1z M325.3,47.9
		l-9.4,9.4l1.3,1.3l9.4-9.4L325.3,47.9z M328.6,51.2l-1.3-1.3l-9.6,9.3l1.4,1.4L328.6,51.2z"/>
</g>
<g id="Layer_4">
	<linearGradient id="SVGID_6_" gradientUnits="userSpaceOnUse" x1="157.6271" y1="120.8945" x2="157.6271" y2="214.2012">
		<stop  offset="0" style="stop-color:#AD69FF"/>
		<stop  offset="6.521269e-03" style="stop-color:#AC68FF"/>
		<stop  offset="0.4873" style="stop-color:#5F42DE"/>
		<stop  offset="0.83" style="stop-color:#2F2AC9"/>
		<stop  offset="1" style="stop-color:#1D21C1"/>
	</linearGradient>
	<path class="st5" d="M178.2,132.6v2.6l11.1-11.1v1.2l-11.1,11.1v2.6l11.1-11.1v1.2l-11.1,11.1v2.6l11.1-11.3v1.2l-11.1,11.3v2.6
		l11.1-11.3v1.2l-11.1,11.3v2.5l11.1-11.1v1.2l-11.1,11.1v2.6l11.1-11.1v1.2L178.2,155v2.6l11.1-11.1v1.2l-21.8,21.8h2.6l19.2-19.3
		v1.2l-18,18.1h2.6l15.4-15.6v1.2l-14.3,14.4h2.5l11.8-11.8v1.2l-11.1,11.1v2.6l11.1-11.1v1.2l-11.1,11.1v2.6l11.1-11.1v1.2
		l-11.1,11.1v2.6l11.1-11.3v1.2l-11.1,11.3v2.6l11.1-11.3v1.2l-11.1,11.3v2.5l11.1-11.1v1.2l-11.1,11.1v2.6l11.1-11.1v1.2
		l-11.1,11.1v2.6l11.1-11.1v1.2l-11.1,11.1v2.6l11.1-11.3v1.2l-11.1,11.3v2.6l11.1-11.3v1.2l-10.6,10.6h2.6l8-8v1.2l-6.9,6.9h2.6
		l4.3-4.3v1.2l-3.1,3.1h3.1l-11.1,11.3h-11.3v-33.7h-18.7v0.6l-11.1,11.1v2.6l11.1-11.1v1.2l-11.1,11.1v2.6l11.1-11.3v1.2
		l-11.1,11.3v2.6l11.1-11.3v1.2l-10.5,10.6h2.5l8-8v1.2l-6.9,6.9h2.6l4.3-4.3v1.2l-3.1,3.1h3.1l-11.1,11.3h-11.1V132l11.1-11.1v3.1
		l3.1-3.1h1.2l-4.3,4.3v2.6l6.9-6.9h1.2l-8,8v2.5l10.6-10.5h1.2l-11.8,11.7v2.6l14.4-14.3h1.2l-15.6,15.4v2.6l18.1-18h1.2
		l-19.3,19.2v2.6l21.8-21.8h1.2L148.9,132h2.6l11.1-11.1h1.2L152.6,132h2.6l11.1-11.1h1.2L156.4,132h2.5l11.3-11.1h1.2L160,132h2.6
		l11.3-11.1h1.2L163.8,132h2.6l11.1-11.1h1.2L167.5,132h2.6l11.1-11.1h1.2L171.3,132h2.6l11.1-11.1h1.2L175.1,132h2.5l11.3-11.1h0.5
		v0.5L178.2,132.6z M137.1,146.4l11.1-11.3v-2.6l-11.1,11.3V146.4z M137.1,150.1l11.1-11.1v-2.6l-11.1,11.3V150.1z M137.1,153.8
		l11.1-11.1v-2.6l-11.1,11.1V153.8z M155.2,169.4l11.1-11.1h0.5v-15h-18.7v0.6L137.1,155v2.6l11.1-11.1v1.2l-11.1,11.1v2.6
		l11.1-11.3v1.2l-11.1,11.3v2.6l11.1-11.3v1.2l-11.1,11.3v2.5l11.1-11.1v0.6h0.6l-11.8,11.7v2.6l14.4-14.3h1.2l-15.6,15.4v2.6
		l18.1-18h1.2l-19.3,19.2v2.6l21.8-21.8h1.2l-11.1,11.1h2.6l11.1-11.1h1.2l-11.1,11.1H155.2z M148.2,169.9l-11.1,11.3v2.6l11.1-11.3
		V169.9z M148.2,173.6l-11.1,11.3v2.5l11.1-11.1V173.6z M148.2,177.4l-11.1,11.1v2.6l11.1-11.1V177.4z M158.9,169.4l11.3-11.1h-2.6
		l-11.1,11.1H158.9z M162.6,169.4l11.3-11.1h-2.6L160,169.4H162.6z M177.5,158.2h-2.5l-11.3,11.1h2.6L177.5,158.2z"/>
	<linearGradient id="SVGID_7_" gradientUnits="userSpaceOnUse" x1="233.045" y1="120.6353" x2="233.045" y2="214.2012">
		<stop  offset="0" style="stop-color:#AD69FF"/>
		<stop  offset="6.521269e-03" style="stop-color:#AC68FF"/>
		<stop  offset="0.4873" style="stop-color:#5F42DE"/>
		<stop  offset="0.83" style="stop-color:#2F2AC9"/>
		<stop  offset="1" style="stop-color:#1D21C1"/>
	</linearGradient>
	<path class="st6" d="M253.6,132.4v2.5l11.1-11.1v1.2l-11.1,11.1v2.6l11.1-11.1v1.2l-11.1,11.1v2.6l11.1-11.1v1.2l-11.1,11.1v2.6
		l11.1-11.3v1.2l-11.1,11.3v2.6l11.1-11.3v1.2l-11.1,11.3v2.5l11.1-11.1v1.2l-11.1,11.1v2.6l11.1-11.1v1.2l-11.1,11.1v2.6l11.1-11.1
		v1.2l-11.1,11.1v2.6l11.1-11.3v1.2L253.6,166v2.6l11.1-11.3v1.2l-35,35.2l1.3,1.3l33.7-34v1.2l-33.2,33.3l1.3,1.3l31.9-32v1.2
		l-31.4,31.4l1.4,1.4l29.9-30.2v1.2l-29.4,29.5l1.3,1.3l28.1-28.4v1.2l-27.6,27.7l1.4,1.4l26.2-26.6v1.2l-36.9,37.1l-26.4-26.4v-56
		l11.1-11.1v3.1l3.1-3.1h1.2l-4.3,4.3v2.6l6.9-6.9h1.2l-8,8v2.6l10.6-10.6h0.5v0.5l-11.1,11.3v2.5l11.1-11.1v1.2l-11.1,11.1v2.6
		l11.1-11.1v1.2l-11.1,11.1v2.6l11.1-11.1v1.2l-11.1,11.1v2.6l11.1-11.3v1.2l-11.1,11.3v2.6l11.1-11.3v1.2l-11.1,11.3v2.5l11.1-11.1
		v1.2l-11.1,11.1v2.6l11.1-11.1v1.2l-11.1,11.1v2.6l11.1-11.1v1.2l-11.1,11.1v2.6l11.1-11.3v1.2L212.5,166v2.6l11.1-11.3v1.2
		l-11.1,11.3v2.5l11.1-11.1v1.2l-11.1,11.1v2.6l11.1-11.1v1.2l-10.9,10.8l1.3,1.3l9.6-9.5v0.5l0.3,0.3l-9.3,9.2l1.4,1.4l9.2-9.3
		l0.6,0.6l-9.3,9.2l1.4,1.4l9.2-9.3l0.6,0.6l-9.3,9.2l1.3,1.3l9.2-9.3l0.6,0.6l-9.3,9.2l1.4,1.4l9.2-9.3l0.6,0.6l-9.3,9.2l1.3,1.3
		l9.2-9.3l0.6,0.6L224,188l1.3,1.3l9.3-9.3l0.6,0.6l-9.5,9.2l1.3,1.3l9.3-9.3l0.6,0.6l-9.5,9.2l1.6,1.6l13.1-13.3v-48.1l11.3-11.1
		v3.1l3.1-3.1h1.2l-4.3,4.3v2.6l6.9-6.9h1.2l-8,8v2.6l10.6-10.6h0.5v0.5L253.6,132.4z"/>
	<linearGradient id="SVGID_8_" gradientUnits="userSpaceOnUse" x1="308.462" y1="120.8945" x2="308.462" y2="214.2012">
		<stop  offset="0" style="stop-color:#AD69FF"/>
		<stop  offset="6.521269e-03" style="stop-color:#AC68FF"/>
		<stop  offset="0.4873" style="stop-color:#5F42DE"/>
		<stop  offset="0.83" style="stop-color:#2F2AC9"/>
		<stop  offset="1" style="stop-color:#1D21C1"/>
	</linearGradient>
	<path class="st7" d="M287.9,155v2.6l11.1-11.1v1.2l-11.1,11.1v2.6l11.1-11.3v1.2l-11.1,11.3v2.6l11.1-11.3v1.2l-11.1,11.3v2.5
		l11.1-11.1v0.6h0.6l-11.8,11.7v2.6l14.4-14.3h1.2l-15.6,15.4v2.6l18.1-18h1.2l-19.3,19.2v2.6l21.8-21.8h1.2l-11.1,11.1h2.6
		l11.1-11.1h1.2l-11.1,11.1h2.6l11.1-11.1h1.2l-11.1,11.1h2.5l11.3-11.1h1.2l-11.3,11.1h2.6l11.3-11.1h1.2l-11.3,11.1h2.6l11.1-11.1
		h0.6v0.5l-10.6,10.6h2.6l8-8v1.2l-6.9,6.9h2.6l4.3-4.3v1.2l-3.1,3.1h3.1l-11.3,11.1h-18.7v0.6l-11.1,11.1v2.6l11.1-11.1v1.2
		l-11.1,11.1v2.6l11.1-11.3v1.2l-11.1,11.3v2.6l11.1-11.3v0.6h0.6l-11.1,11.1h2.5l11.3-11.1h1.2l-11.3,11.1h2.6l11.3-11.1h1.2
		L296,202.9h2.6l11.1-11.1h1.2l-11.1,11.1h2.6l11.1-11.1h1.2l-11.1,11.1h2.6l11.1-11.1h1.2l-11.1,11.1h2.5l11.3-11.1h1.2l-11.3,11.1
		h2.6l11.3-11.1h1.2l-11.3,11.1h2.6l11.1-11.1h1.2l-11.1,11.1h2.6l11.1-11.1h1.2l-11.1,11.1h2.6l11.1-11.1h1.2l-11.1,11.1h2.5
		l11.3-11.1h0.5v0.5l-10.6,10.6h2.6l8-8v1.2l-6.9,6.9h2.6l4.3-4.3v1.2l-3.1,3.1h3.1L329,214.2h-52.2V132l11.1-11.1v3.1l3.1-3.1h1.2
		l-4.3,4.3v2.6l6.9-6.9h1.2l-8,8v2.5l10.6-10.5h1.2l-11.8,11.7v2.6l14.4-14.3h1.2l-15.6,15.4v2.6l18.1-18h1.2l-19.3,19.2v2.6
		l21.8-21.8h1.2L299.7,132h40.4L329,143.2h-29.9v0.6L287.9,155z M287.9,146.4l11.1-11.3v-2.6l-11.1,11.3V146.4z M287.9,150.1
		l11.1-11.1v-2.6l-11.1,11.3V150.1z M287.9,153.8l11.1-11.1v-2.6l-11.1,11.1V153.8z M287.9,181.2v2.6l11.1-11.3v-2.6L287.9,181.2z
		 M299.1,173.6l-11.1,11.3v2.5l11.1-11.1V173.6z M299.1,177.4l-11.1,11.1v2.6l11.1-11.1V177.4z M302.3,132l11.1-11.1h1.2L303.5,132
		H302.3z M306.1,132l11.1-11.1h1.2L307.2,132H306.1z M309.7,132l11.3-11.1h1.2L310.9,132H309.7z M313.5,132l11.3-11.1h1.2L314.6,132
		H313.5z M317.2,132l11.1-11.1h1.2L318.4,132H317.2z M321,132l11.1-11.1h1.2L322.1,132H321z M324.7,132l11.1-11.1h1.2L325.9,132
		H324.7z M340.1,120.9v0.5L329.5,132h-1.2l11.3-11.1H340.1z M332.1,132l8-8v1.2l-6.9,6.9H332.1z M335.9,132l4.3-4.3v1.2L337,132
		H335.9z"/>
	<linearGradient id="SVGID_9_" gradientUnits="userSpaceOnUse" x1="64.9497" y1="120.2297" x2="64.9497" y2="214.2473">
		<stop  offset="0" style="stop-color:#AD69FF"/>
		<stop  offset="6.521269e-03" style="stop-color:#AC68FF"/>
		<stop  offset="0.4873" style="stop-color:#5F42DE"/>
		<stop  offset="0.83" style="stop-color:#2F2AC9"/>
		<stop  offset="1" style="stop-color:#1D21C1"/>
	</linearGradient>
	<polygon class="st8" points="117.4,120.8 117.4,120.2 116.9,120.2 106.2,130.9 106.2,128.3 114.3,120.2 113.1,120.2 106.2,127.1 
		106.2,124.5 110.5,120.2 109.3,120.2 106.2,123.4 106.2,120.2 94.9,131.4 94.9,179.7 81.7,193.2 80.2,191.6 89.7,182.3 89,181.7 
		79.7,191.1 78.4,189.8 87.9,180.5 87.2,179.9 77.8,189.2 76.5,187.9 85.9,178.7 85.3,178.1 76,187.4 74.7,186.1 84.1,176.9 
		83.4,176.2 74.2,185.6 72.8,184.2 82.1,174.9 81.5,174.3 72.2,183.7 71,182.4 80.3,173.1 79.6,172.5 70.5,181.7 70.3,181.9 
		49.9,202.5 48.4,201.1 70.4,179 78.4,171.2 77.7,170.5 76.2,172.1 76.2,172 47.9,200.6 46.6,199.3 76.2,169.6 76.2,168.4 
		46.1,198.7 44.6,197.3 75.4,166.5 76.1,165.8 76.1,165.8 76.2,165.8 76.2,164.6 74.2,166.6 65,175.8 65,175.8 44.1,196.8 
		42.8,195.5 76.2,162 76.2,160.9 42.3,195 41,193.7 65,169.5 65,169.6 76.1,158.3 76.1,158.3 76.2,158.2 76.2,157.1 65,168.4 
		65,165.8 76.1,154.5 76.1,154.5 76.2,154.5 76.2,153.3 65,164.6 65,162 76.1,150.8 76.1,150.8 76.2,150.8 76.2,149.7 65,160.9 
		65,158.3 76.1,147.1 76.1,147.1 76.2,147 76.2,145.9 65,157.1 65,154.5 76.1,143.3 76.1,143.3 76.2,143.3 76.2,142.1 65,153.3 
		65,150.8 76.1,139.5 76.1,139.5 76.2,139.5 76.2,138.3 65,149.7 65,147.1 76.1,135.7 76.1,135.7 76.2,135.7 76.2,134.6 65,145.9 
		65,143.3 76.1,132.1 76.1,132.1 76.2,132.1 76.2,130.9 65,142.1 65,139.5 76.1,128.3 76.1,128.3 76.2,128.3 76.2,127.1 65,138.3 
		65,135.7 76.1,124.5 76.1,124.5 76.2,124.5 76.2,123.4 65,134.6 65,132.1 76.1,120.8 76.1,120.8 76.2,120.8 76.2,120.2 75.6,120.2 
		65,130.9 65,128.3 73,120.2 73,120.2 73,120.2 71.9,120.2 65,127.1 65,124.5 69.2,120.2 69.2,120.2 69.3,120.2 68.1,120.2 
		65,123.4 65,120.2 53.6,131.4 53.6,179.7 40.5,193.1 38.9,191.6 48.4,182.3 47.8,181.7 38.4,191.1 37.1,189.8 46.6,180.5 
		45.9,179.9 36.6,189.2 35.3,187.9 44.6,178.7 44,178 34.7,187.4 33.4,186.1 42.8,176.9 42.2,176.2 32.9,185.6 31.5,184.2 
		40.9,174.9 40.2,174.3 31,183.6 29.7,182.3 39,173.1 38.4,172.4 29.1,181.8 27.7,180.4 37.1,171.1 36.4,170.5 27.2,179.9 
		25.8,178.4 35.1,169.2 34.9,168.9 34.9,168.4 25.2,177.9 23.9,176.6 34.9,165.8 34.9,164.6 23.7,175.8 23.7,173.2 34.9,162 
		34.9,160.9 23.7,172 23.7,169.6 34.9,158.2 34.9,157.1 23.7,168.4 23.7,165.8 34.9,154.5 34.9,153.3 23.7,164.6 23.7,162 
		34.9,150.8 34.9,149.7 23.7,160.9 23.7,158.2 34.9,147 34.9,145.9 23.7,157.1 23.7,154.5 34.9,143.3 34.9,142.1 23.7,153.3 
		23.7,150.8 34.9,139.5 34.9,138.3 23.7,149.7 23.7,147 34.9,135.7 34.9,134.6 23.7,145.9 23.7,143.3 34.9,132.1 34.9,130.9 
		23.7,142.1 23.7,139.5 34.9,128.3 34.9,127.1 23.7,138.3 23.7,135.7 34.9,124.5 34.9,123.4 23.7,134.6 23.7,132.1 34.9,120.8 
		34.9,120.2 34.4,120.2 23.7,130.9 23.7,128.3 31.8,120.2 30.6,120.2 23.7,127.1 23.7,124.5 28,120.2 26.8,120.2 23.7,123.4 
		23.7,120.2 12.5,131.4 12.5,187.7 39,214.2 59.9,193.3 59.6,193.6 80.3,214.2 117.4,177 117.4,175.8 91.1,202.5 89.7,201.1 
		117.4,173.2 117.4,172.1 89.2,200.6 87.9,199.3 117.4,169.6 117.4,168.4 87.3,198.8 85.9,197.3 117.4,165.8 117.4,164.6 
		85.4,196.8 84.1,195.5 117.4,162 117.4,160.9 83.6,195 82.3,193.7 117.4,158.3 117.4,157.1 106.2,168.4 106.2,165.8 117.4,154.5 
		117.4,153.3 106.2,164.6 106.2,162 117.4,150.8 117.4,149.7 106.2,160.9 106.2,158.3 117.4,147.1 117.4,145.9 106.2,157.1 
		106.2,154.5 117.4,143.3 117.4,142.1 106.2,153.3 106.2,150.8 117.4,139.5 117.4,138.3 106.2,149.7 106.2,147.1 117.4,135.7 
		117.4,134.6 106.2,145.9 106.2,143.3 117.4,132.1 117.4,130.9 106.2,142.1 106.2,139.5 117.4,128.3 117.4,127.1 106.2,138.3 
		106.2,135.7 117.4,124.5 117.4,123.4 106.2,134.6 106.2,132.1 	"/>
</g>
</svg>
