<svg xmlns="http://www.w3.org/2000/svg" viewBox="0 0 1050 604"><path d="M873.1 212c-4.7 13.5-9.8 26.5-15.8 37.8v-1.3c0-35.3-30.9-60.1-31.8-86.4 3.8-14.8 6.9-30.8 9.5-48.4l-21.4 1.4c-5 16.7-7.2 31.2-7.2 43.8 0 10.7 1.6 20.4 3.8 29.3-6 16.7-12 32.4-16.1 44.2-13.9 39.8-24.9 59.3-31.8 61.1-3.2.8-5-.6-5-5.3 0-11 14.5-40.9 14.5-61.1 0-18-13.6-27.1-24-35.1 5-17.7 7.6-33.5 8.8-54.6l-23.6-.9c-5 17.7-7.2 30.9-7.2 40.9 0 11 2.5 18.9 5.7 25-3.2 15.9-7.2 32.7-12.9 49.3-12 35.2-27.4 58.7-46 63.5-14.5 3.7-19.9-10-19.9-28.9v-4.7c37.2-15.5 56.1-50.7 56.1-73 0-14.5-7.9-23.8-23.6-19.8-29 7.4-50.1 48.1-56.7 86.1-13.9 39.8-24.9 59.3-31.8 61.1-3.2.8-5-.6-5-5.3 0-11 14.5-40.9 14.5-61.1 0-18-13.6-27.1-24-35.1 5-17.7 7.6-33.5 8.8-54.6l-23.6-.9c-5 17.7-7.2 30.9-7.2 40.9 0 11 2.5 18.9 5.7 25-3.2 15.9-7.2 32.8-12.9 49.3-12 35.2-27.4 58.7-46 63.5-14.5 3.7-19.9-10-19.9-28.9v-4.7c37.2-15.5 56.1-50.7 56.1-73 0-14.5-7.9-23.8-23.6-19.8-29 7.4-50.1 48.1-56.7 86.1-13.9 38.2-30.9 59.6-46 63.5-16.1 4.1-22.4-10.6-22.4-30.5 0-29.9 14.2-71.1 30.6-75.3 4.4-1.1 6.3 2.8 6.3 9.4 0 9.5-4.1 24.4-10.4 36.7l20.2 5.5c6.3-15.2 10.4-31.7 10.4-45.2 0-18.3-7.2-30.9-25.2-26.3-28.8 7.4-48.8 47.7-55 85.7h-.1c-13.9 39.8-24.9 59.3-31.8 61.1-3.2.8-5-.6-5-5.3 0-11 14.5-40.9 14.5-61.1 0-18-13.6-27.1-24-35.1 5-17.7 7.6-33.5 8.8-54.6l-23.6-.9c-5 17.7-7.2 30.9-7.2 40.9 0 11 2.5 18.9 5.7 25-3.2 15.9-7.2 32.8-12.9 49.3-5.7 16.3-13.2 26.1-21.4 32 4.1-14.9 7.9-32 7.9-47.4 0-28.4-11-49.8-32.1-44.4-22.4 5.8-35.6 30.3-39.1 55.4l-11.3.1c-6.3 20.2-9.8 41-9.8 58.6 0 28.7 9.5 48.9 31.2 43.4 20.2-5.2 36.2-22.9 47-48.6 15.1-9.2 29.3-26.1 36.6-46.9l12.6-36.6c3.5 5.7 6.3 12.2 6.3 21.7 0 16.1-14.5 42.2-14.5 62.7 0 14.2 5.7 22.2 20.5 18.4 19.2-4.9 30.2-27.9 40.3-55.6 1.8 25.7 12.7 43.6 35 37.9 24.3-6.2 43.8-37.1 56.2-64.1 1.3 27 12.8 46.4 38.6 39.7 30.9-7.9 46.6-44.8 62.4-90.1l12.6-36.6c3.5 5.7 6.3 12.2 6.3 21.7 0 16.1-14.5 42.2-14.5 62.7 0 14.2 5.7 22.2 20.5 18.4 19-4.9 30-27.6 40-54.9 2.1 25.2 13.7 42.7 38.4 36.3 30.9-7.9 46.6-44.8 62.4-90.1l12.6-36.6c3.5 5.7 6.3 12.2 6.3 21.7 0 16.1-14.5 42.2-14.5 62.7 0 14.2 5.7 22.2 20.5 18.4 25.8-6.6 36.9-46 50.7-85.5 3.5-10.3 7.6-21.2 11-32.4 6.9 20.6 16.1 37.2 16.1 56.7 0 11.3-4.4 18.2-12.3 20.2-6 1.5-9.8 0-13.9-5.9L785.2 292c4.4 11.8 16.4 17.2 31.2 13.4 34-8.7 51.7-49.5 66.2-91.1-.7-2-7.7-2.8-9.5-2.3zm-190.7-3c3.2-.8 5 1.9 5 6.6 0 11.7-10.4 36.1-34 53.8 3.8-27.1 16.1-57 29-60.4zm-165.8 42.6c3.2-.8 5 1.9 5 6.6 0 11.7-10.4 36.1-34 53.8 3.8-27.1 16.1-57 29-60.4zM227 432.3c-.9.6-1.6.7-2.5 1-7.9 2-12.9-9.6-12.9-28.2 0-4.1.3-8.9.9-13.8 4.4 14 12.9 24.4 26.2 26.1-3.8 7.2-7.6 12.6-11.7 14.9zm18.3-29.9c-14.2-.5-19.2-15.5-19.2-32.6 0-20.2 7.3-42.5 16.4-46.8.6-.2 1.6-.7 2.2-.9 8.8-2.3 12.3 7.6 12.3 21.7-.1 16.8-4.8 40.1-11.7 58.6z"/><path d="M112.3 128c11.6-35.5 33.2-64.2 59.2-79 12.3-7 43.5-20.3 67 7 53.7 62.3-25.2 173.9-26.3 175.4l-7.2 9.9 19.9 14.3 7.2-9.9c3.8-5.2 91.3-128.7 25-205.7-24.3-28-61.7-32.7-97.7-12.3-31.2 17.7-56.9 51.5-70.4 92.7-10.9 33.3-19.1 87.5 3.8 156.6 36.2 108.8 72.5 228.4 45.9 270.4-6.1 9.7-15.4 14.9-29.3 16.6-11.7 1.4-41 .1-60.6-41.6-21.7-46.4-11.4-96.3 11.1-117.7l8.9-8.4-16.9-17.8-8.9 8.4C4.9 423.1 6.2 489.1 26.7 532.8c16.8 35.7 45 56.1 76.7 56.1 3 0 6-.2 9-.5 21.1-2.5 37-11.9 47-27.8 29.4-46.3 6.4-141.9-43.3-291.3-20.9-62.8-13.6-111.5-3.8-141.3zM984.6 144s1.2 109.3-55.3 109.3c0 0 53.5-11.6 53.5 105.8 0 0-4.1-107.5 54.7-107.5 0-.1-52.9 10.9-52.9-107.6zM887.4 451.6s-.9-86 43.5-86c0 0-42.1 9.1-42.1-83.2 0 0 3.2 84.6-43 84.6-.1 0 41.6-8.7 41.6 84.6zM930 78.5s.7 52.3-33.7 52.3c0 0 32.6-5.6 32.6 50.6 0 0-2.5-51.4 33.4-51.4 0-.1-32.3 5.2-32.3-51.5zM343.1 138.7c6.5-1.8 12.7-2.5 18.5-2.1 5.8.4 10.8 1.7 15.1 3.9 4.3 2.2 7.7 5.3 10.1 9.1 2.5 3.8 3.7 8.3 3.7 13.5s-1.2 10.3-3.7 15.5c-2.5 5.2-5.9 10.1-10.1 14.6-4.3 4.6-9.3 8.6-15.1 12.1-5.8 3.5-11.9 6.1-18.5 7.9-6.5 1.8-12.7 2.5-18.4 2.1-5.7-.4-10.8-1.7-15-3.9-4.3-2.2-7.7-5.3-10.1-9.2-2.5-3.9-3.7-8.4-3.7-13.5s1.2-10.3 3.7-15.5c2.5-5.2 5.9-10 10.1-14.6 4.3-4.5 9.3-8.6 15-12.1 5.7-3.4 11.9-6 18.4-7.8zm0 65c5.1-1.4 9.9-3.4 14.4-6.2 4.4-2.7 8.3-5.8 11.6-9.2 3.3-3.4 5.8-7.1 7.7-10.9 1.8-3.9 2.8-7.6 2.8-11.3 0-3.7-.9-6.9-2.8-9.8-1.8-2.8-4.4-5.1-7.7-6.7-3.3-1.7-7.1-2.6-11.6-3-4.4-.3-9.2.2-14.4 1.6-5.1 1.4-9.9 3.4-14.3 6.2-4.4 2.7-8.2 5.8-11.5 9.2-3.3 3.4-5.8 7-7.7 10.9-1.8 3.8-2.8 7.6-2.8 11.3 0 3.7.9 7 2.8 9.8 1.8 2.9 4.4 5.1 7.7 6.8 3.3 1.7 7.1 2.6 11.5 3 4.4.2 9.1-.3 14.3-1.7zM473.2 105.9c3.8-1 7.4-1.3 10.7-.9 3.3.4 6.2 1.4 8.7 3s4.4 3.7 5.9 6.4c1.4 2.7 2.1 5.7 2.1 9.1 0 3.4-.7 6.8-2.1 10.2-1.4 3.4-3.4 6.6-5.9 9.5-2.5 3-5.4 5.5-8.7 7.7-3.3 2.2-6.9 3.8-10.7 4.8l-41 11.1v9.9l20-5.4v10l-49.9 13.5v-10l20-5.4v-49.8l-20 5.4v-10l70.9-19.1zm-.5 40c2.4-.7 4.7-1.7 6.8-3 2.1-1.4 4-2.9 5.5-4.7 1.6-1.8 2.8-3.7 3.7-5.7.9-2.1 1.4-4.1 1.4-6.2 0-2.1-.5-3.9-1.4-5.5-.9-1.6-2.2-2.8-3.7-3.7-1.6-.9-3.4-1.5-5.5-1.7-2.1-.2-4.4 0-6.8.6l-40.5 11v29.9l40.5-11zM602.3 81l-59.8 16.2v19.9l49.9-13.5v10l-49.9 13.5V147l59.8-16.2v-9.9l9.9-2.7v19.9L512.5 165v-10l20-5.4V99.9l-20 5.4v-10l99.6-26.9v19.9l-9.9 2.7V81zM721.4 48.9l-20 5.4v-10l49.9-13.5v10l-20 5.4V106l-10 2.7L661.5 65v49.8l20-5.4v10l-49.9 13.5v-10l20-5.4V67.7l-20 5.4v-10l34-9.2 55.8 40.7V48.9z"/><path d="M873.1 212c-4.7 13.5-9.8 26.5-15.8 37.8v-1.3c0-35.3-30.9-60.1-31.8-86.4 3.8-14.8 6.9-30.8 9.5-48.4l-21.4 1.4c-5 16.7-7.2 31.2-7.2 43.8 0 10.7 1.6 20.4 3.8 29.3-6 16.7-12 32.4-16.1 44.2-13.9 39.8-24.9 59.3-31.8 61.1-3.2.8-5-.6-5-5.3 0-11 14.5-40.9 14.5-61.1 0-18-13.6-27.1-24-35.1 5-17.7 7.6-33.5 8.8-54.6l-23.6-.9c-5 17.7-7.2 30.9-7.2 40.9 0 11 2.5 18.9 5.7 25-3.2 15.9-7.2 32.7-12.9 49.3-12 35.2-27.4 58.7-46 63.5-14.5 3.7-19.9-10-19.9-28.9v-4.7c37.2-15.5 56.1-50.7 56.1-73 0-14.5-7.9-23.8-23.6-19.8-29 7.4-50.1 48.1-56.7 86.1-13.9 39.8-24.9 59.3-31.8 61.1-3.2.8-5-.6-5-5.3 0-11 14.5-40.9 14.5-61.1 0-18-13.6-27.1-24-35.1 5-17.7 7.6-33.5 8.8-54.6l-23.6-.9c-5 17.7-7.2 30.9-7.2 40.9 0 11 2.5 18.9 5.7 25-3.2 15.9-7.2 32.8-12.9 49.3-12 35.2-27.4 58.7-46 63.5-14.5 3.7-19.9-10-19.9-28.9v-4.7c37.2-15.5 56.1-50.7 56.1-73 0-14.5-7.9-23.8-23.6-19.8-29 7.4-50.1 48.1-56.7 86.1-13.9 38.2-30.9 59.6-46 63.5-16.1 4.1-22.4-10.6-22.4-30.5 0-29.9 14.2-71.1 30.6-75.3 4.4-1.1 6.3 2.8 6.3 9.4 0 9.5-4.1 24.4-10.4 36.7l20.2 5.5c6.3-15.2 10.4-31.7 10.4-45.2 0-18.3-7.2-30.9-25.2-26.3-28.8 7.4-48.8 47.7-55 85.7h-.1c-13.9 39.8-24.9 59.3-31.8 61.1-3.2.8-5-.6-5-5.3 0-11 14.5-40.9 14.5-61.1 0-18-13.6-27.1-24-35.1 5-17.7 7.6-33.5 8.8-54.6l-23.6-.9c-5 17.7-7.2 30.9-7.2 40.9 0 11 2.5 18.9 5.7 25-3.2 15.9-7.2 32.8-12.9 49.3-5.7 16.3-13.2 26.1-21.4 32 4.1-14.9 7.9-32 7.9-47.4 0-28.4-11-49.8-32.1-44.4-22.4 5.8-35.6 30.3-39.1 55.4l-11.3.1c-6.3 20.2-9.8 41-9.8 58.6 0 28.7 9.5 48.9 31.2 43.4 20.2-5.2 36.2-22.9 47-48.6 15.1-9.2 29.3-26.1 36.6-46.9l12.6-36.6c3.5 5.7 6.3 12.2 6.3 21.7 0 16.1-14.5 42.2-14.5 62.7 0 14.2 5.7 22.2 20.5 18.4 19.2-4.9 30.2-27.9 40.3-55.6 1.8 25.7 12.7 43.6 35 37.9 24.3-6.2 43.8-37.1 56.2-64.1 1.3 27 12.8 46.4 38.6 39.7 30.9-7.9 46.6-44.8 62.4-90.1l12.6-36.6c3.5 5.7 6.3 12.2 6.3 21.7 0 16.1-14.5 42.2-14.5 62.7 0 14.2 5.7 22.2 20.5 18.4 19-4.9 30-27.6 40-54.9 2.1 25.2 13.7 42.7 38.4 36.3 30.9-7.9 46.6-44.8 62.4-90.1l12.6-36.6c3.5 5.7 6.3 12.2 6.3 21.7 0 16.1-14.5 42.2-14.5 62.7 0 14.2 5.7 22.2 20.5 18.4 25.8-6.6 36.9-46 50.7-85.5 3.5-10.3 7.6-21.2 11-32.4 6.9 20.6 16.1 37.2 16.1 56.7 0 11.3-4.4 18.2-12.3 20.2-6 1.5-9.8 0-13.9-5.9L785.2 292c4.4 11.8 16.4 17.2 31.2 13.4 34-8.7 51.7-49.5 66.2-91.1-.7-2-7.7-2.8-9.5-2.3zm-190.7-3c3.2-.8 5 1.9 5 6.6 0 11.7-10.4 36.1-34 53.8 3.8-27.1 16.1-57 29-60.4zm-165.8 42.6c3.2-.8 5 1.9 5 6.6 0 11.7-10.4 36.1-34 53.8 3.8-27.1 16.1-57 29-60.4zM227 432.3c-.9.6-1.6.7-2.5 1-7.9 2-12.9-9.6-12.9-28.2 0-4.1.3-8.9.9-13.8 4.4 14 12.9 24.4 26.2 26.1-3.8 7.2-7.6 12.6-11.7 14.9zm18.3-29.9c-14.2-.5-19.2-15.5-19.2-32.6 0-20.2 7.3-42.5 16.4-46.8.6-.2 1.6-.7 2.2-.9 8.8-2.3 12.3 7.6 12.3 21.7-.1 16.8-4.8 40.1-11.7 58.6z"/><path d="M112.3 128c11.6-35.5 33.2-64.2 59.2-79 12.3-7 43.5-20.3 67 7 53.7 62.3-25.2 173.9-26.3 175.4l-7.2 9.9 19.9 14.3 7.2-9.9c3.8-5.2 91.3-128.7 25-205.7-24.3-28-61.7-32.7-97.7-12.3-31.2 17.7-56.9 51.5-70.4 92.7-10.9 33.3-19.1 87.5 3.8 156.6 36.2 108.8 72.5 228.4 45.9 270.4-6.1 9.7-15.4 14.9-29.3 16.6-11.7 1.4-41 .1-60.6-41.6-21.7-46.4-11.4-96.3 11.1-117.7l8.9-8.4-16.9-17.8-8.9 8.4C4.9 423.1 6.2 489.1 26.7 532.8c16.8 35.7 45 56.1 76.7 56.1 3 0 6-.2 9-.5 21.1-2.5 37-11.9 47-27.8 29.4-46.3 6.4-141.9-43.3-291.3-20.9-62.8-13.6-111.5-3.8-141.3z"/></svg>