<?xml version="1.0" encoding="utf-8"?>
<!-- Generator: Adobe Illustrator 24.0.3, SVG Export Plug-In . SVG Version: 6.00 Build 0)  -->
<svg version="1.1" id="Layer_1" xmlns="http://www.w3.org/2000/svg" xmlns:xlink="http://www.w3.org/1999/xlink" x="0px" y="0px"
	 viewBox="0 0 493 361" style="enable-background:new 0 0 493 361;" xml:space="preserve">
<g>
	<g>
		<path d="M172.2,71.6c17.9-4.2,24.1,9,21.9,27.6c-3,24.1-21.2,78.2-51.3,85.2c-17.9,4.2-24.1-9.1-21.9-27.7
			C123.6,132.6,141.8,78.6,172.2,71.6z M168,93.1c-12.6,2.9-24.5,42.5-26.2,57.6c-1,8.3,0.1,13.5,5.3,12.3
			c12.3-2.9,24.5-42.5,26.2-57.3C174.3,97.2,173.2,91.9,168,93.1z"/>
		<path d="M181.6,173.8v-1.3c0,0,4.6-4,6.9-10.6l26.9-89.6c1.7-5.5-1-7.6-1-7.6v-1.5l29.7-6.9c14.9-3.5,23.2,6.1,21.2,21.8
			c-2.7,20.8-17.3,44.2-42.3,50l-5.6,1.3l-8.9,29.9c-1.4,4.9,1.3,6.6,1.3,6.6v1.3L181.6,173.8z M238.9,75.2l-5.4,1.3l-10.3,34
			l5.3-1.2c9.9-2.3,16.5-14.6,17.8-24.7C247.2,77,244,74,238.9,75.2z"/>
		<path d="M332.2,35.8l-6.3,22.1l-1.4,0.3c0,0,0.1-3.4-4-2.4l-20.3,4.7l-8.2,28.1l14.6-3.4c4-0.9,6.2-3.9,6.2-3.9l1.3-0.3l-7.3,24.2
			l-1.6,0.4c0,0,0.4-3-3.7-2.1l-14.8,3.4l-7.9,27.3l18.3-4.3c5-1.2,8-4.7,8-4.7l1.3-0.3l-6.3,21.3l-50.9,11.8v-1.3
			c0,0,4.2-2.9,6.2-8.5l26.6-91.8c1.4-5.3-1-7.3-1-7.3v-1.5L332.2,35.8z"/>
		<path d="M356,133.2v-1.5c0,0,1.1-2.2,1-5.8l-3.3-57.6l-17.5,60.1c-1.7,5.7,1.1,7.7,1.1,7.7v1.5l-28.2,6.6v-1.5c0,0,4.3-2.9,6-8.3
			l27.1-93.1c1.4-5.2-1.3-6.2-1.3-6.2v-1.3l25.8-6v1.3c0,0-1.3,2.2-1,5.7l4,59.2l19.8-62.1c1.7-5.5-1.3-7.8-1.3-7.8v-1.3l28.4-6.6
			v1.3c0,0-5.4,4.1-7.2,9.9l-28.8,91c-1.7,5.5,1.3,7.3,1.3,7.3v1.5L356,133.2z"/>
	</g>
</g>
<g>
	<path d="M105.2,221.4c4.2-12.6,2.7-20.7,2.7-20.7c-2.2-11.6-10.5-20.6-28.6-16.4c-12.9,3-27.2,18.4-27.2,39.9
		c0,31.5,19.4,41.4,19.4,76.1c0,16.1-11.3,39.9-27,47c-16.1,1.5-22.4-11-22.4-25.9c0-18.4,8.6-39.9,19.4-45.1c4.1,1.3,6,5.9,6,11.9
		c0,11.1-5.6,26.3-12.6,34.9c1.3,1.8,4.1,2.7,7.8,1.8c12.9-3,19.9-18.5,19.9-32.8c0-13.7-6.8-25.6-21.8-22.1
		c-22.1,5.2-35.9,31.9-35.9,54c0,20.2,10.8,36.4,38.6,29.9c28.5-6.7,44.2-34.8,44.2-60.6c0-34.7-19.4-47.8-19.4-76.9
		c0-14.3,7.2-25.8,15.4-28.1c6.7,2.3,9.9,9.6,9.9,18.8c-0.2,9.3-3.7,20.3-10.2,29.1c2.1,1.6,4.5,2,7,1.4
		C95.9,236.6,101.8,230.1,105.2,221.4z"/>
	<path d="M488.2,131c-1.6-6.3-5.4-11.6-11.3-10.2c-8.1,1.9-12.9,11.9-22.8,39.4c-11.7,30.4-31.7,64.3-41.9,72.9
		c1.1-5,4.8-14.5,8.9-24.2c5.7-13.6,11.9-28.2,11.9-33.3c0-7.3-3.8-6.4-15.6-7.5c-1-0.1-1.4-0.8-1.4-2.1c0-1.4,0.3-2.5,1.1-4.2
		c5.2-11.6,9.4-18.9,12.9-24.6c-1.7-2.6-4.8-3.5-7.8-2.8c-6,1.4-12.6,9.8-12.6,26.6c0,3.6,0.4,6.1,1.6,8.1
		c-12.1,31.8-36.1,70.2-50.6,76.7c-4.9-0.8-6.8-3.6-6.8-8.7c0-1.4,0.2-3.1,0.3-4.8c1.6,0.1,3-0.1,4.5-0.4
		c19.6-4.6,35.8-40.7,35.8-54c0-11.6-8.9-13.5-17-11.6c-7.3,1.7-12.6,6.3-16.7,12c-8.7,11.9-15.8,29.6-19.2,44.6
		c-7.9,15.3-16.6,28.6-24.2,34c0.3-4.4,4.5-14.7,9.1-25.7c5.7-13.6,11.9-28.2,11.9-33.3c0-7.3-3.8-6.4-15.6-7.5
		c-1-0.1-1.4-0.8-1.4-2.1c0-1.4,0.3-2.5,1.1-4.2c5.2-11.6,9.4-18.9,12.9-24.6c-1.7-2.6-4.8-3.5-7.8-2.8c-6,1.4-12.6,9.8-12.6,26.6
		c0,3.6,0.4,6.1,1.6,8c-12.1,31.8-36.1,70.2-50.6,76.7c-4.9-0.8-6.8-3.6-6.8-8.7c0-1.4,0.2-3.1,0.3-4.8c1.6,0.1,3-0.1,4.5-0.4
		c19.6-4.6,35.8-40.7,35.8-54c0-11.6-8.9-13.5-17-11.6c-7.3,1.7-12.6,6.3-16.7,12c-8.2,11.1-14.9,27.2-18.5,41.5
		c-9.6,17-21.3,32.2-34,37.4c-2.5-1.5-3.8-4.7-3.8-9.4c0-19.4,17.2-62.1,25.4-64.5c1,0.4,1.3,1.8,1.3,3.8c0,9.5-8.7,31.9-13.8,39
		c1,2.5,3.8,3.4,6.4,2.8c12.1-2.8,19.1-26.7,19.1-36.9c0-11.9-8.6-15.6-18-13.4c-3.5,0.8-8.6,3-11.1,5.5
		c-11.1,11.1-19.5,32.8-23.1,50.8c-7.9,15.3-16.6,28.5-24.2,33.9c0.3-4.4,4.5-14.7,9.1-25.7c5.7-13.6,11.9-28.2,11.9-33.3
		c0-7.3-3.8-6.4-15.6-7.5c-1-0.1-1.4-0.8-1.4-2.1c0-1.4,0.3-2.5,1.1-4.2c5.2-11.6,9.4-18.9,12.9-24.6c-1.7-2.6-4.8-3.5-7.8-2.8
		c-6,1.4-12.6,9.8-12.6,26.6c0,3.5,0.4,6.1,1.6,8c-10.1,28.1-21.4,52.2-33.4,60.8c9.1-17.7,16.2-39.7,16.2-50.2
		c0-10.7-9.1-14.9-17.7-12.9c-7.3,1.7-12.1,6.2-15.1,12.1c-0.8-0.3-1.6-0.3-2.2-0.1c-2.5,0.6-4.8,4.1-6.5,7.3
		c-9.9,16.6-16.9,38.1-16.9,52.8c0,13,8.9,17.8,19.1,15.4c5.4-1.3,12.6-6.1,18.4-15.9c0.6-1.1,1.4-2.4,2.1-3.5
		c0.8,0,1.7-0.3,2.7-0.5c19.7-4.6,34.8-48.7,36.7-62.1c0.6,0.4,1.3,0.7,2.1,1c1.9,0.8,3.3,1.4,3.3,3.7c0,4.9-22.7,47-22.7,54.8
		c0,6.7,5.2,11.5,11.4,10c8.3-1.9,17.7-14.8,25.7-29.4c-0.1,1.8-0.2,3.5-0.2,5c0,11,9.7,16.2,22.3,13.2c9.5-2.2,20-16.2,28.7-31.7
		c-0.3,2.4-0.4,4.7-0.4,6.8c0,11,10.2,15.9,22.6,13c27.8-6.5,49.2-65.4,52.7-80.6c0.7,0.4,1.4,0.8,2.3,1.1c1.9,0.8,3.3,1.4,3.3,3.7
		c0,4.9-22.7,47-22.7,54.8c0,6.7,5.2,11.5,11.4,10c8.2-1.9,17.4-14.4,25.3-28.8c-0.1,1.6-0.2,3.2-0.2,4.7c0,11,10.2,15.9,22.6,13
		c27.8-6.5,49.2-65.4,52.7-80.6c0.7,0.4,1.4,0.8,2.3,1.1c1.9,0.8,3.3,1.4,3.3,3.7c0,4.9-22.7,47-22.7,54.8c0,6.7,5.2,11.5,11.4,10
		c6.4-1.5,13.4-8.8,20.1-18.4c0,0.2,0,0.5,0,0.7c0,6,5.2,11.8,17.2,9c13.8-3.2,21.9-19.8,21.9-38.4c0.2-15-5.1-30.5-5.1-37
		C463,148.2,478.9,137.4,488.2,131z M114.4,304.2c-3.3-0.3-4.8-4-4.8-9.5c0-8,2.7-19.9,7-31.7c0.3,9.8,2.4,19.3,7.5,24.3
		C120.6,294.9,116.9,301.2,114.4,304.2z M126.8,281.1c-3.5-4.3-4.9-10.9-4.9-18.1c0-13.7,5.1-29.5,10.8-34.3
		c4.8,0.5,5.9,4.2,5.9,7.8C138.6,248.4,133,266.4,126.8,281.1z M287.6,193.2c0.8,0.5,1.1,1.6,1.1,3.4c0,11.6-14,47.3-28.3,53.1
		C264.8,229,280.1,195.4,287.6,193.2z M382.3,171c0.8,0.5,1.1,1.6,1.1,3.4c0,11.6-14,47.3-28.3,53.1
		C359.6,206.9,374.9,173.2,382.3,171z M444.8,226.4c-3-1.2-7.6-6.6-10.5-11.1c-0.1,0-0.3,0.1-0.4,0.2c9.4-15.7,17.7-34.7,21.7-46.4
		C454.5,202.9,449.9,220.4,444.8,226.4z"/>
</g>
<path d="M415.4,83.8c0,2.5-0.5,11.2-5.8,11.7c1.5,0.1,5.6,1.3,5.6,12.5c0-0.4,0-11.9,5.8-12.6C419.6,95.4,415.6,94.2,415.4,83.8z"/>
<path d="M458.1,68.8c0,5-0.9,21.8-11.3,22.9c2.9,0.1,10.9,2.5,10.9,24.3c0-0.8,0-23.2,11.4-24.6C466.1,91.3,458.4,89.1,458.1,68.8z"
	/>
<path d="M433.1,95.8c0.1-9.6,1.6-42.3,18.6-44.1c-4.5-0.1-17.9-3.9-17.9-46.9c0,1.5,0.1,44.8-18.4,47.4
	C420.2,52.5,432.6,56.8,433.1,95.8z"/>
</svg>
